SplineFontDB: 3.0
FontName: NeutonCursive-Regular
FullName: Neuton Cursive
FamilyName: Neuton Cursive
Weight: Book
Copyright: Copyright (c) 2010, 2011 Brian M Zick (http://21326.info/), \nwith Reserved Font Name 'Neuton Cursive'.\n\nThis Font Software is licensed under the SIL Open Font License, Version 1.1.\nThis license is available with a FAQ at: http://scripts.sil.org/OFL\n   WITHOUT WARRANTIES OR CONDITIONS OF ANY KIND, either express or implied.\n   See the License for the specific language governing permissions and\n   limitations under the License.
Version: 1.46
ItalicAngle: 0
UnderlinePosition: -361
UnderlineWidth: 0
Ascent: 1638
Descent: 410
LayerCount: 2
Layer: 0 0 "Back"  1
Layer: 1 0 "Fore"  0
XUID: [1021 467 2011608612 8622985]
FSType: 1
OS2Version: 1
OS2_WeightWidthSlopeOnly: 0
OS2_UseTypoMetrics: 0
CreationTime: 1300472668
ModificationTime: 1333037846
PfmFamily: 17
TTFWeight: 500
TTFWidth: 5
LineGap: 0
VLineGap: 0
OS2TypoAscent: 2106
OS2TypoAOffset: 0
OS2TypoDescent: -485
OS2TypoDOffset: 0
OS2TypoLinegap: 0
OS2WinAscent: 2106
OS2WinAOffset: 0
OS2WinDescent: 485
OS2WinDOffset: 0
HheadAscent: 2106
HheadAOffset: 0
HheadDescent: -485
HheadDOffset: 0
OS2SubXSize: 1095
OS2SubYSize: 1179
OS2SubXOff: 0
OS2SubYOff: 235
OS2SupXSize: 1095
OS2SupYSize: 1179
OS2SupXOff: 0
OS2SupYOff: 809
OS2StrikeYSize: 84
OS2StrikeYPos: 436
OS2Vendor: 'PfEd'
OS2CodePages: 20000093.00000000
OS2UnicodeRanges: a00000ef.0000204a.00000000.00000000
Lookup: 1 0 0 "'onum' Oldstyle Figures lookup 1"  {"'onum' Oldstyle Figures lookup 1-1" ("osf" ) } ['onum' ('DFLT' <'dflt' > 'hebr' <'dflt' > 'latn' <'dflt' > ) ]
MarkAttachClasses: 1
DEI: 91125
ShortTable: maxp 16
  1
  0
  367
  132
  7
  0
  0
  2
  0
  1
  1
  0
  64
  0
  0
  0
EndShort

StartChar: exclam
Encoding: 2 33 1
Width: 341
VWidth: 1655
GlyphClass: 2
Flags: HMW
LayerCount: 2
Fore
SplineSet
59 1257 m 1
 90 1279 126 1290 167 1290 c 128
 208 1290 242 1278 268 1254 c 128
 294 1230 310 1196 318 1152 c 1
 322 1136 324 1114 323 1085 c 0
 321 1000 304 872 269 699 c 5
 194 338 l 1
 123 325 l 1
 135 495 l 2
 140 561 142 666 142 811 c 2
 142 874 l 1
 137 1022 110 1150 59 1257 c 1
188 206 m 128
 200 200 210 192 220 178 c 128
 230 164 235 154 238 143 c 128
 241 132 242 125 242 120 c 128
 242 115 240 100 234 73 c 128
 228 46 214 22 191 -1 c 128
 168 -24 141 -35 111 -35 c 1
 84 -33 64 -24 48 -8 c 128
 32 8 24 24 21 42 c 128
 18 60 17 68 17 71 c 128
 17 74 19 86 24 108 c 128
 29 130 41 153 64 176 c 128
 87 199 110 211 134 212 c 128
 158 213 176 212 188 206 c 128
EndSplineSet
Colour: ffffff
EndChar

StartChar: quotedbl
Encoding: 3 34 2
Width: 442
VWidth: 1655
GlyphClass: 2
Flags: HMW
LayerCount: 2
Fore
SplineSet
28 1308 m 1
 34 1310 52 1311 86 1310 c 128
 120 1309 162 1304 211 1292 c 1
 126 906 l 1
 103 898 78 894 51 895 c 2
 30 895 l 1
 28 1308 l 1
237 1308 m 1
 243 1310 262 1311 296 1310 c 128
 330 1309 371 1304 420 1292 c 1
 335 906 l 1
 312 898 287 894 260 895 c 2
 240 895 l 1
 237 1308 l 1
EndSplineSet
Colour: ffffff
EndChar

StartChar: numbersign
Encoding: 4 35 3
Width: 895
VWidth: 1655
GlyphClass: 2
Flags: HMW
LayerCount: 2
Fore
SplineSet
284 355 m 1
 233 174 l 1
 128 167 l 1
 183 355 l 1
 17 355 l 1
 58 455 l 1
 216 455 l 1
 279 662 l 1
 121 662 l 1
 160 760 l 1
 312 760 l 1
 369 931 l 1
 470 941 l 1
 413 760 l 1
 613 760 l 1
 667 931 l 1
 770 940 l 1
 713 760 l 1
 878 760 l 1
 839 662 l 1
 681 662 l 1
 619 455 l 1
 775 455 l 1
 736 355 l 1
 584 355 l 1
 533 174 l 1
 428 167 l 1
 484 355 l 1
 284 355 l 1
317 455 m 1
 516 455 l 1
 581 662 l 1
 380 662 l 1
 317 455 l 1
EndSplineSet
Colour: ffffff
EndChar

StartChar: dollar
Encoding: 5 36 4
Width: 877
VWidth: 1655
GlyphClass: 2
Flags: HMW
LayerCount: 2
Fore
SplineSet
545 1184 m 1
 541 1184 l 2
 496 1184 456 1168 418 1138 c 128
 380 1108 360 1067 356 1016 c 1
 356 1003 l 2
 356 945 376 894 416 850 c 1
 432 833 453 813 479 788 c 1
 545 1184 l 1
425 80 m 1
 466 83 504 94 537 116 c 0
 591 151 618 200 618 262 c 128
 618 324 596 378 553 423 c 1
 539 440 519 458 493 479 c 1
 425 80 l 1
242 401 m 1
 222 346 212 297 214 256 c 0
 214 193 246.154 146 309 113 c 1
 323 104 340 96 362 88 c 1
 436 525 l 1
 355 591 292 650 249 702 c 1
 193 773 165 841 165 906 c 2
 165 928 l 1
 169 966 180 1004 200 1043 c 1
 234 1108 280 1161 339 1200 c 128
 398 1239 460 1263 527 1273 c 1
 552 1417 l 1
 685 1426 l 1
 660 1271 l 1
 741 1256 808 1225 862 1178 c 1
 797 832 l 1
 709 851 l 1
 702 1101 l 1
 679 1134 648 1157 609 1171 c 1
 536 741 l 1
 623 668 677 621 700 600 c 0
 769 532 808 457 819 376 c 0
 821 371 821 362 820 346 c 0
 820 261 789 185 726 120 c 1
 675 66 610 26 531 0 c 0
 502 -10 472 -15 441 -19 c 1
 418 -157 l 1
 289 -167 l 1
 314 -19 l 1
 241 -11 177 12 120 49 c 0
 90 70 66 94 48 123 c 128
 30 152 20 180 17 207 c 1
 15 211 15 218 15 232 c 128
 15 246 17 264 23 286 c 1
 41 339 75 375 127 395 c 1
 150 406 174 411 200 411 c 128
 215.167 411 229.75 408 242 401 c 1
EndSplineSet
Colour: ffffff
EndChar

StartChar: percent
Encoding: 6 37 5
Width: 1063
VWidth: 1655
GlyphClass: 2
Flags: HMW
LayerCount: 2
Fore
SplineSet
859 962 m 1
 995 971 l 1
 186 -23 l 1
 44 -31 l 1
 859 962 l 1
504 770 m 0
 504 768 504 754 502 727 c 1
 492 649 463 587 413 541 c 128
 363 495 302 471 231 471 c 128
 160 471 106 491 71 530 c 128
 36 569 18 621 18 686 c 0
 18 769 46 838 102 893 c 128
 158 948 221 975 293 975 c 128
 365 975 419 957 453 920 c 128
 487 883 504 833 504 770 c 0
274 883 m 0
 181 883 135 821 136 699 c 0
 136 608 173 563 247 562 c 0
 329 562 375 619 387 733 c 0
 389 745 389 752 389 754 c 0
 389 794 380 825 359 848 c 128
 338 871 310 883 274 883 c 0
1046 274 m 0
 1046 270 1045 257 1042 233 c 1
 1033 156 1004 94 953 47 c 128
 902 0 841 -24 770 -24 c 128
 699 -24 646 -3 611 37 c 128
 576 77 558 128 558 191 c 0
 558 272 587 339 646 394 c 128
 705 449 770 476 840 476 c 128
 910 476 962 458 996 421 c 128
 1030 384 1046 335 1046 274 c 0
676 202 m 0
 676 113 713 68 788 68 c 0
 869 68 915 119 927 220 c 0
 929 226 929 236 929 254 c 0
 929 295 919 327 898 350 c 128
 877 373 850 385 814 385 c 0
 735 385 690 337 678 240 c 0
 676 234 676 222 676 202 c 0
EndSplineSet
Colour: ffffff
EndChar

StartChar: ampersand
Encoding: 7 38 6
Width: 1130
VWidth: 1655
GlyphClass: 2
Flags: HMW
LayerCount: 2
Fore
SplineSet
237 872 m 0
 237 1050.9 403.162 1220 613 1220 c 128
 763.836 1220 871 1126.06 871 985 c 0
 871 793 672 673 517 627 c 1
 535.489 601.527 487 695 487 695 c 17
 600 725 688 849 688 933 c 128
 688 1062.33 623.982 1127 544 1127 c 128
 462.474 1127 410 1046.18 410 971 c 0
 410 842.781 447 778 528 645 c 2
 835.457 141 l 2
 874.243 69.1885 913 0 913 -79 c 0
 913 -272.492 656.194 -363 494 -301 c 1
 487 -265 l 1
 604.073 -243.917 722 -212.549 722 -112 c 0
 722 -56 708.668 -35.1377 658.289 61 c 2
 342.611 585 l 2
 269 707 237 798.101 237 872 c 0
763 617 m 1
 799.659 671.037 848.37 701 919 701 c 0
 1029.66 701 1112 586.288 1112 460 c 0
 1112 113.594 691.191 -52 380 -52 c 0
 192.972 -52 17 29.7617 17 270 c 0
 17 436 180 560 354.461 643.428 c 1
 354.668 635.17 396 572 396 572 c 1
 254 488.655 229 408.621 229 309 c 0
 229 151.666 357.636 72 512 72 c 0
 707.265 72 928 158.641 928 400 c 0
 928 488.279 873.268 578.565 763 617 c 1
EndSplineSet
Colour: ffffff
EndChar

StartChar: quotesingle
Encoding: 8 39 7
Width: 233
VWidth: 1655
GlyphClass: 2
Flags: HMW
LayerCount: 2
Fore
SplineSet
28 1308 m 5
 34 1310 52 1311 86 1310 c 128
 120 1309 162 1304 211 1292 c 1
 126 906 l 1
 103 898 78 894 51 895 c 2
 30 895 l 1
 28 1308 l 5
EndSplineSet
Colour: ffffff
EndChar

StartChar: parenleft
Encoding: 9 40 8
Width: 526
VWidth: 1655
GlyphClass: 2
Flags: HMW
LayerCount: 2
Fore
SplineSet
260 -378 m 1
 99 -195 18 27 17 287 c 0
 17 338 21 402 30 477 c 128
 39 552 58 635 88 724 c 128
 118 813 150 885 182 940 c 128
 214 995 252 1047 295 1098 c 128
 338 1149 373 1187 402 1212 c 128
 431 1237 452 1254 467 1266 c 1
 509 1199 l 1
 348 1020 248 774 209 460 c 0
 201 401 198 341 197 282 c 1
 199 72 246 -129 337 -320 c 1
 260 -378 l 1
EndSplineSet
Colour: ffffff
EndChar

StartChar: parenright
Encoding: 10 41 9
Width: 544
VWidth: 1655
GlyphClass: 2
Flags: HMW
LayerCount: 2
Fore
SplineSet
17 -320 m 1
 240 -16 351 319 352 685 c 0
 352 886 308 1057 220 1199 c 1
 278 1266 l 1
 444 1111 527 897 526 621 c 0
 526 467 500 317 449 170 c 0
 418 84 387 12 355 -45 c 128
 323 -102 288 -152 251 -197 c 128
 214 -242 186 -276 166 -298 c 0
 142 -325 113 -351 79 -378 c 1
 17 -320 l 1
EndSplineSet
Colour: ffffff
EndChar

StartChar: asterisk
Encoding: 11 42 10
Width: 751
VWidth: 0
GlyphClass: 2
Flags: HMW
LayerCount: 2
Fore
SplineSet
304 1292 m 1
 440 1279 l 1
 414 988 l 1
 703 1119 l 1
 732 989 l 1
 447 921 l 1
 666 692 l 1
 548 623 l 1
 395 870 l 1
 240 593 l 1
 138 685 l 1
 331 904 l 1
 19 964 l 1
 74 1091 l 1
 341 977 l 1
 304 1292 l 1
EndSplineSet
Colour: ffffff
EndChar

StartChar: plus
Encoding: 12 43 11
Width: 608
VWidth: 1655
GlyphClass: 2
Flags: HMW
LayerCount: 2
Fore
SplineSet
353 413 m 1
 325 174 l 1
 216 186 l 1
 244 413 l 1
 20 413 l 1
 45 514 l 1
 254 514 l 1
 284 747 l 1
 390 734 l 1
 365 514 l 1
 588 514 l 1
 562 413 l 1
 353 413 l 1
EndSplineSet
Colour: ffffff
EndChar

StartChar: comma
Encoding: 13 44 12
Width: 378
VWidth: 1655
GlyphClass: 2
Flags: HMW
LayerCount: 2
Fore
SplineSet
212 227 m 2
 227 227 l 1
 279 221 316 188 338 127 c 0
 348 103 352 80 353 57 c 0
 353 -44 303 -132 204 -209 c 1
 160 -245 110 -276 55 -303 c 1
 23 -251 l 1
 82 -220 124 -187 149 -149 c 128
 174 -111 186 -74 186 -39 c 0
 186 -37 184 -26 180 -4 c 128
 176 18 165 42 145 64 c 128
 125 86 103 103 78 116 c 1
 88 152 105 179 132 198 c 128
 159 217 185 227 212 227 c 2
EndSplineSet
Colour: ffffff
EndChar

StartChar: hyphen
Encoding: 14 45 13
Width: 460
VWidth: 1655
GlyphClass: 2
Flags: HMW
LayerCount: 2
Fore
SplineSet
35 489 m 1
 435 507 l 1
 423 408 l 1
 24 390 l 1
 35 489 l 1
EndSplineSet
Colour: ffffff
EndChar

StartChar: period
Encoding: 15 46 14
Width: 274
VWidth: 1655
GlyphClass: 2
Flags: HMW
LayerCount: 2
Fore
SplineSet
195 206 m 128
 207 200 217 192 227 178 c 128
 237 164 242 154 245 143 c 128
 248 132 249 125 249 120 c 128
 249 115 247 100 241 73 c 128
 235 46 221 22 198 -1 c 128
 175 -24 148 -35 118 -35 c 1
 91 -33 71 -24 55 -8 c 128
 39 8 31 24 28 42 c 128
 25 60 24 68 24 71 c 128
 24 74 26 86 31 108 c 128
 36 130 48 153 71 176 c 128
 94 199 117 211 141 212 c 128
 165 213 183 212 195 206 c 128
EndSplineSet
Colour: ffffff
EndChar

StartChar: slash
Encoding: 16 47 15
Width: 634
VWidth: 1655
GlyphClass: 2
Flags: HMW
LayerCount: 2
Fore
SplineSet
483 1245 m 1
 617 1252 l 1
 148 -357 l 1
 17 -367 l 1
 483 1245 l 1
EndSplineSet
Colour: ffffff
EndChar

StartChar: zero
Encoding: 17 48 16
Width: 873
VWidth: 1655
GlyphClass: 2
Flags: HMW
LayerCount: 2
Fore
SplineSet
498 1158 m 1
 563 1154 620 1133 669 1092 c 128
 718 1051 759 997 790 931 c 0
 833 840 855 736 855 618 c 0
 855 611 854 586 851 543 c 1
 839 402 800 282 731 181 c 0
 693 126 649 81 600 45 c 128
 551 9 507 -11 467 -16 c 128
 427 -21 407 -23 403 -23 c 0
 340 -23 280 -5 224 30 c 128
 168 65 122 119 87 191 c 128
 52 263 31 345 23 437 c 1
 19 466 18 503 18 548 c 128
 18 593 24 644 38 702 c 0
 65 818 116 921 193 1011 c 1
 238 1063 284 1100 330 1123 c 128
 376 1146 426 1158 481 1158 c 2
 498 1158 l 1
207 864 m 1
 187 801 177 731 178 653 c 0
 178 509 210 375 273 251 c 1
 325 151 392 101 473 101 c 0
 535 101 582 125 615 173 c 0
 636 204 655 252 672 317 c 128
 689 382 696 448 696 517 c 0
 696 624 673 728 629 829 c 128
 585 930 530 995 463 1022 c 1
 439 1031 422 1035 411 1036 c 128
 400 1037 385 1035 365 1032 c 1
 287 1015 234 959 207 864 c 1
EndSplineSet
Substitution2: "'onum' Oldstyle Figures lookup 1-1" zero.osf
Colour: ffffff
EndChar

StartChar: one
Encoding: 18 49 17
Width: 551
VWidth: 1655
GlyphClass: 2
Flags: HMW
LayerCount: 2
Fore
SplineSet
214 -14 m 1
 262 261 291 438 302 516 c 128
 313 594 320 658 328 707 c 128
 336 756 342 806 349 857 c 128
 356 908 363 968 373 1036 c 1
 364 1032 l 1
 338 959 310 907 281 879 c 128
 252 851 225 834 200 826 c 128
 175 818 154 815 137 815 c 128
 120 815 102 820 81 830 c 0
 39 850 18 885 17 935 c 0
 17 937 18 944 21 959 c 1
 125 966 219 997 304 1053 c 1
 342 1078 376 1107 407 1138 c 1
 533 1154 l 1
 434 -8 l 1
 214 -14 l 1
EndSplineSet
Substitution2: "'onum' Oldstyle Figures lookup 1-1" one.osf
Colour: ffffff
EndChar

StartChar: two
Encoding: 19 50 18
Width: 871
VWidth: 1655
GlyphClass: 2
Flags: HMW
LayerCount: 2
Fore
SplineSet
390 664 m 1
 359 626 325 607 288 607 c 0
 216 607 166 639 138 702 c 1
 127 725 122 758 122 802 c 128
 122 846 141 899 178 961 c 128
 215 1023 264 1074 325 1114 c 128
 386 1154 455 1176 531 1178 c 1
 545 1178 l 2
 634 1178 705 1150 759 1094 c 1
 822 1031 853 948 854 845 c 0
 853 698 782 558 638 424 c 0
 575 365 477 291 345 200 c 2
 232 123 l 1
 232 113 l 1
 433 121 l 1
 449 121 468 121 492 123 c 128
 516 125 531 125 539 125 c 0
 608 131 660 159 695 212 c 0
 711 234 724 262 738 296 c 2
 771 376 l 1
 845 349 l 1
 844 343 838 297 824 210 c 0
 810 123 794 48 775 -16 c 1
 620 -16 l 1
 458 -14 312 -10 180 -3 c 2
 17 5 l 1
 28 101 l 1
 209 211 l 2
 324 281 407 337 456 381 c 128
 505 425 541 464 565 499 c 128
 589 534 610 574 629 621 c 128
 648 668 658 723 660 786 c 1
 660 797 l 2
 660 863 646 922 618 974 c 128
 590 1026 551 1061 502 1078 c 1
 482 1084 460 1086 436 1086 c 128
 412 1086 385 1075 355 1054 c 128
 325 1033 306 1005 293 973 c 128
 280 941 274 912 274 885 c 0
 274 797 313 723 390 664 c 1
EndSplineSet
Substitution2: "'onum' Oldstyle Figures lookup 1-1" two.osf
Colour: ffffff
EndChar

StartChar: three
Encoding: 20 51 19
Width: 804
VWidth: 1655
GlyphClass: 2
Flags: HMW
LayerCount: 2
Fore
SplineSet
322 589 m 1
 447.578 651.167 613 735.159 613 915 c 0
 613 1023.03 557.954 1099 461 1099 c 128
 375.754 1099 307 1049.26 307 969 c 128
 307 892.109 343 848 381 815 c 1
 363.064 781.121 331.479 757 288 757 c 1
 286 755 285 755 281 755 c 0
 212.663 755 160 817.086 160 888 c 0
 160 1059.7 373.426 1179 543 1179 c 0
 695.659 1179 786 1105.01 786 961 c 128
 786 779.168 623 676 521 625 c 1
 521 621 l 1
 654.569 621 773 522.215 773 372 c 0
 773 122.151 527.198 -28 286 -28 c 128
 151.374 -28 19.1055 44.8994 17 167 c 1
 17 272.75 100.88 333.335 197 332 c 1
 165.728 188.148 235.177 63 366 63 c 0
 485.541 63 590 134.941 590 283 c 0
 590 459.429 451 553.422 316 530 c 1
 322 589 l 1
EndSplineSet
Substitution2: "'onum' Oldstyle Figures lookup 1-1" three.osf
Colour: ffffff
EndChar

StartChar: four
Encoding: 21 52 20
Width: 867
VWidth: 1655
GlyphClass: 2
Flags: HMW
LayerCount: 2
Fore
SplineSet
352 532 m 2
 162 353 l 1
 508 360 l 1
 529 585 l 1
 699 702 l 1
 655 365 l 1
 850 369 l 1
 817 233 l 1
 646 241 l 1
 627 14 l 1
 469 -12 l 1
 500 246 l 1
 32 267 l 1
 17 323 l 1
 206 510 l 2
 382.394 684.527 575.451 859.043 571 1184 c 1
 672.047 1202.37 745 1137.75 745 1046 c 128
 745 908 535.337 706.425 352 532 c 2
EndSplineSet
Substitution2: "'onum' Oldstyle Figures lookup 1-1" four.osf
Colour: ffffff
EndChar

StartChar: five
Encoding: 22 53 21
Width: 835
VWidth: 1655
GlyphClass: 2
Flags: HMW
LayerCount: 2
Fore
SplineSet
818 1092 m 1
 809 998 742 951 617 951 c 0
 560 951 502 954 445 962 c 0
 388 970 357 973 352 973 c 1
 299 750 l 1
 307 747 l 1
 313 747 316 747 320 748 c 1
 336 748 l 2
 452 748 549 712 627 641 c 1
 703 567 741 480 742 380 c 0
 742 281 710 192 647 114 c 0
 600 57 541 17 469 -5 c 1
 422 -23 378 -31 339 -31 c 128
 300 -31 279 -31 273 -30 c 1
 211 -26 157 -11 112 18 c 1
 49 57 18 112 17 184 c 0
 17 188 18 198 21 216 c 1
 29 247 44 277 68 303 c 128
 92 329 124 343 164 346 c 1
 166 336 170 310 180 269 c 1
 213 161 272 99 358 81 c 1
 381 79 393 78 395 78 c 0
 435 78 472 89 508 111 c 128
 544 133 566 160 575 193 c 128
 584 226 588 250 588 267 c 128
 588 284 588 298 586 311 c 128
 584 324 577 348 562 383 c 1
 539 441 505 488 460 524 c 128
 415 560 364 582 307 592 c 1
 274 599 241 602 208 602 c 1
 185 620 l 1
 320 1115 l 1
 336 1113 372 1113 427 1113 c 0
 578 1113 705 1129 808 1160 c 1
 815 1140 818 1121 818 1104 c 2
 818 1092 l 1
EndSplineSet
Substitution2: "'onum' Oldstyle Figures lookup 1-1" five.osf
Colour: ffffff
EndChar

StartChar: six
Encoding: 23 54 22
Width: 798
VWidth: 1655
GlyphClass: 2
Flags: HMW
LayerCount: 2
Fore
SplineSet
189 423 m 2
 189 388 l 1
 195 264 219 178 263 129 c 1
 297 89 334 69 375 70 c 0
 377 70 380 70 384 72 c 1
 391 72 l 1
 418 76 443 86 466 104 c 0
 510 144 537 213 547 310 c 0
 551 334 552 359 551 385 c 0
 551 434 542 477 524 514 c 1
 515 534 501 551 481 566 c 1
 450 589 415 600 376 601 c 128
 337 602 300 596 266 584 c 128
 232 572 208 556 194 534 c 1
 190 498 189 461 189 423 c 2
75 675 m 0
 144 866 254 1009 405 1104 c 1
 472 1145 534 1165 589 1164 c 0
 641 1164 683 1151 716 1124 c 0
 759 1087 781 1044 780 995 c 0
 780 966 773 938 757 912 c 128
 741 886 718 866 686 853 c 1
 659 922 620 972 571 1003 c 0
 548 1017 526 1025 503 1029 c 1
 487 1029 l 2
 428 1029 378 1001 336 945 c 128
 294 889 263 825 242 752 c 0
 221 679 209 630 205 604 c 1
 234 642 271 670 318 690 c 128
 365 710 413 718 463 717 c 128
 513 716 557 705 595 682 c 128
 633 659 663 630 684 594 c 128
 705 558 716 523 720 487 c 128
 724 451 726 432 726 427 c 0
 726 372 713 312 687 249 c 128
 661 186 625 134 579 91 c 1
 500 20 416 -15 327 -16 c 0
 311 -16 301 -16 296 -14 c 1
 189 -5 109 52 56 158 c 1
 31 213 19 275 18 344 c 0
 18 372 18 390 20 398 c 1
 26 497 44 590 75 675 c 0
EndSplineSet
Substitution2: "'onum' Oldstyle Figures lookup 1-1" six.osf
Colour: ffffff
EndChar

StartChar: seven
Encoding: 24 55 23
Width: 858
VWidth: 1655
GlyphClass: 2
Flags: HMW
LayerCount: 2
Fore
SplineSet
420 537 m 4
 381 454 362 369 362 282 c 132
 362 195 393 117 455 49 c 5
 437 26 412 9 378 -3 c 5
 368 -8 355 -10 339 -10 c 132
 323 -10 303 -6 277 2 c 132
 251 10 226 28 203 58 c 132
 180 88 168 120 164 153 c 132
 160 186 158 210 158 228 c 4
 158 269 180 335 223 427 c 5
 269 515 338 619 430 738 c 6
 650 1022 l 5
 534 1018 427 1013 328 1005 c 132
 229 997 173 993 158 990 c 5
 92 830 l 5
 17 851 l 5
 51 1142 l 5
 67 1144 124 1147 226 1153 c 132
 328 1159 415 1161 486 1161 c 5
 841 1148 l 5
 838 1090 l 5
 604 812 l 6
 520 711 459 619 420 537 c 4
EndSplineSet
Substitution2: "'onum' Oldstyle Figures lookup 1-1" seven.osf
Colour: ffffff
EndChar

StartChar: eight
Encoding: 25 56 24
Width: 749
VWidth: 1655
GlyphClass: 2
Flags: HMW
LayerCount: 2
Fore
SplineSet
480 653 m 1
 541 707 571 783 570 882 c 0
 570 935 562 978 544 1012 c 128
 526 1046 506 1068 484 1077 c 128
 462 1086 444 1090 428 1090 c 1
 407 1089 l 1
 384 1085 364 1076 346 1059 c 128
 328 1042 317 1021 310 997 c 128
 303 973 300 955 300 941 c 2
 300 931 l 1
 304 878 326 826 368 775 c 0
 402 733 439 692 480 653 c 1
255 618 m 1
 182 701 146 783 145 864 c 0
 145 878 145 886 146 890 c 1
 157 981 208 1056 300 1117 c 1
 362 1156 426 1175 493 1175 c 128
 560 1175 617 1152 663 1106 c 128
 709 1060 731 1005 731 941 c 0
 731 925 731 915 730 911 c 1
 724 852 702 795 662 740 c 128
 622 685 577 641 526 608 c 1
 587 547 631 492 656 443 c 128
 681 394 694 345 694 296 c 0
 694 280 694 270 692 265 c 1
 688 229 678 194 658 160 c 128
 638 126 613 98 582 75 c 1
 527 30 459 -1 378 -18 c 0
 351 -24 322 -26 291 -26 c 0
 179 -26 98 16 48 99 c 1
 27 132 17 171 17 216 c 0
 17 232 17 240 19 242 c 1
 23 287 35 327 56 363 c 0
 77 398 110 441 155 492 c 1
 198 535 237 570 273 599 c 1
 255 618 l 1
316 557 m 1
 234 465 192 375 190 286 c 1
 190 269 l 2
 190 186 219 126 278 89 c 0
 304 72 331 63 360 61 c 1
 364 61 l 2
 411 61 449 77 480 110 c 128
 511 143 526 189 526 246 c 128
 526 303 495 367 434 437 c 0
 418 458 379 498 316 557 c 1
EndSplineSet
Substitution2: "'onum' Oldstyle Figures lookup 1-1" eight.osf
Colour: ffffff
EndChar

StartChar: nine
Encoding: 26 57 25
Width: 741
VWidth: 1655
GlyphClass: 2
Flags: HMW
LayerCount: 2
Fore
SplineSet
358 1090 m 0
 259 1090 204 1003 190 830 c 1
 190 812 l 1
 188 806 188 801 188 794 c 0
 188 682 221 609 288 574 c 0
 313 561 340 555 369 555 c 0
 373 555 388 557 415 561 c 128
 442 565 466 571 489 583 c 128
 512 595 527 602 535 609 c 128
 543 616 550 624 559 636 c 1
 559 681 l 2
 559 782 548 866 526 933 c 0
 493 1038 437 1090 358 1090 c 0
723 739 m 2
 723 632 711 534 686 445 c 128
 661 356 617 270 555 188 c 1
 450 53 338 -14 220 -14 c 2
 213 -14 l 2
 179 -14 147 -7 117 6 c 128
 87 19 64 38 45 64 c 128
 26 90 17 120 17 153 c 0
 17 157 18 166 21 184 c 1
 33 229 59 263 100 284 c 1
 120 248 146 217 177 191 c 1
 227 157 270 140 307 141 c 0
 321 141 329 141 332 142 c 1
 393 148 442 181 481 242 c 1
 509 289 529 357 543 448 c 0
 544 452 547 488 554 557 c 1
 529 522 496 494 454 472 c 128
 412 450 369 438 326 434 c 1
 321 432 306 432 278 432 c 128
 250 432 217 441 179 460 c 128
 141 479 111 503 90 534 c 1
 54 583 36 647 37 726 c 0
 37 827 64 920 118 1005 c 0
 152 1057 193 1098 242 1130 c 128
 291 1162 344 1178 401 1180 c 1
 410 1180 l 2
 462 1180 510 1167 553 1143 c 128
 596 1119 631 1084 658 1039 c 1
 697 975 718 891 723 788 c 1
 723 739 l 2
EndSplineSet
Substitution2: "'onum' Oldstyle Figures lookup 1-1" nine.osf
Colour: ffffff
EndChar

StartChar: colon
Encoding: 27 58 26
Width: 329
VWidth: 1655
GlyphClass: 2
Flags: HMW
LayerCount: 2
Fore
SplineSet
309.251 755 m 0
 309.251 753 308.251 744 306.251 726 c 1
 298.251 695 284.251 672 264.251 653 c 128
 244.251 634 221.251 625 195.251 625 c 128
 169.251 625 148.251 632 135.251 646 c 128
 122.251 660 115.251 676 111.251 696 c 1
 109.251 698 109.251 701 109.251 708 c 128
 109.251 715 110.251 728 114.251 750 c 128
 118.251 772 131.251 794 152.251 815 c 128
 173.251 836 198.251 846 225.251 847 c 128
 252.251 848 273.251 839 288.251 820 c 128
 303.251 801 309.251 779 309.251 755 c 0
202.251 165 m 1
 215.251 147 220.251 132 221.251 120 c 128
 222.251 108 221.251 95 218.251 77 c 1
 211.251 50 198.251 27 177.251 5 c 128
 156.251 -17 131.251 -28 104.251 -28 c 1
 81.251 -26 62.251 -18 48.251 -3 c 1
 28.251 17 18.251 41 20.251 68 c 0
 20.251 104 33.251 134 58.251 159 c 128
 83.251 184 105.251 195 125.251 196 c 128
 145.251 197 160.251 196 170.251 191 c 128
 180.251 186 190.251 178 202.251 165 c 1
EndSplineSet
Colour: ffffff
EndChar

StartChar: semicolon
Encoding: 28 59 27
Width: 410
VWidth: 1655
GlyphClass: 2
Flags: HMW
LayerCount: 2
Fore
SplineSet
127 181 m 1
 150 194 171 200 192 200 c 2
 202 200 l 1
 249 194 282 164 302 109 c 1
 311 82 315 63 316 51 c 128
 317 39 314 18 310 -11 c 128
 306 -40 292 -70 269 -103 c 0
 221 -172 147 -231 48 -280 c 1
 19 -230 l 1
 52 -210 74 -196 86 -187 c 128
 98 -178 113 -160 134 -134 c 128
 155 -108 166 -76 166 -40 c 0
 166 -38 164 -28 160 -9 c 128
 156 10 145 30 127 50 c 128
 109 70 90 87 69 101 c 1
 77 133 96 160 127 181 c 1
371 815 m 1
 384 797 389 782 390 770 c 128
 391 758 390 744 388 726 c 1
 380 695 367 672 347 653 c 128
 327 634 305 625 278 625 c 128
 251 625 232 632 218 646 c 0
 198 667 188 691 189 719 c 0
 189 754 201 785 226 810 c 128
 251 835 274 846 294 847 c 128
 314 848 328 846 338 841 c 128
 348 836 359 829 371 815 c 1
EndSplineSet
Colour: ffffff
EndChar

StartChar: less
Encoding: 29 60 28
Width: 693
VWidth: 1655
GlyphClass: 2
Flags: HMW
LayerCount: 2
Fore
SplineSet
17 419 m 1
 24 446 l 1
 632 952 l 1
 676 883 l 1
 252 446 l 1
 555 -13 l 1
 482 -81 l 1
 17 419 l 1
EndSplineSet
Colour: ffffff
EndChar

StartChar: equal
Encoding: 30 61 29
Width: 710
VWidth: 1655
GlyphClass: 2
Flags: HMW
LayerCount: 2
Fore
SplineSet
47 416 m 1
 650 416 l 1
 622 311 l 1
 20 311 l 1
 47 416 l 1
88 651 m 1
 689 651 l 1
 661 546 l 1
 60 546 l 1
 88 651 l 1
EndSplineSet
Colour: ffffff
EndChar

StartChar: greater
Encoding: 31 62 30
Width: 711
VWidth: 1655
GlyphClass: 2
Flags: HMW
LayerCount: 2
Fore
SplineSet
691 419 m 1
 67 -81 l 1
 17 -13 l 1
 462 446 l 1
 177 883 l 1
 243 952 l 1
 693 446 l 1
 691 419 l 1
EndSplineSet
Colour: ffffff
EndChar

StartChar: question
Encoding: 32 63 31
Width: 585
VWidth: 1655
GlyphClass: 2
Flags: HMW
LayerCount: 2
Fore
SplineSet
188 206 m 128
 200 200 210 192 220 178 c 128
 230 164 235 154 238 143 c 128
 241 132 242 125 242 120 c 128
 242 115 240 100 234 73 c 128
 228 46 214 22 191 -1 c 128
 168 -24 141 -35 111 -35 c 1
 84 -33 64 -24 48 -8 c 128
 32 8 24 24 21 42 c 128
 18 60 17 68 17 71 c 128
 17 74 19 86 24 108 c 128
 29 130 41 153 64 176 c 128
 87 199 110 211 134 212 c 128
 158 213 176 212 188 206 c 128
96 504 m 1
 91 555 l 1
 91 595 102 631 125 662 c 128
 148 693 171 715 194 730 c 128
 217 745 247 759 285 775 c 128
 323 791 351 804 370 816 c 128
 389 828 407 844 427 866 c 128
 447 888 457 913 460 941 c 0
 460 945 460 947 461 951 c 1
 461 959 l 2
 461 1012 437 1057 388 1092 c 1
 368 1105 352 1112 338 1114 c 128
 324 1116 318 1117 317 1118 c 1
 308 1118 l 2
 273 1118 237 1110 200 1093 c 128
 163 1076 136 1061 119 1045 c 1
 108 1050 99 1057 90 1069 c 1
 72 1089 64 1107 64 1125 c 128
 64 1143 64 1153 66 1156 c 1
 74 1204 105 1242 159 1269 c 0
 191 1285 225 1292 261 1292 c 2
 282 1292 l 1
 341 1288 393 1269 437 1234 c 128
 481 1199 514 1154 535 1101 c 128
 556 1048 567 1000 567 957 c 128
 567 914 565 884 560 864 c 0
 547 801 514 746 460 699 c 1
 425 669 382 646 333 628 c 1
 298 614 277 604 267 594 c 128
 257 584 247 574 237 562 c 0
 219 543 211 513 210 472 c 0
 210 464 210 457 212 451 c 1
 212 430 l 2
 212 428 213 414 217 385 c 1
 139 369 l 1
 116 428 102 473 96 504 c 1
EndSplineSet
Colour: ffffff
EndChar

StartChar: at
Encoding: 33 64 32
Width: 1298
VWidth: 1655
GlyphClass: 2
Flags: HMW
LayerCount: 2
Fore
SplineSet
773.022 602 m 1
 732.022 663 691.022 693 650.022 693 c 2
 643.022 693 l 2
 623.022 693 604.022 687 583.022 673 c 128
 562.022 659 547.022 644 536.022 625 c 1
 519.022 600 503.022 553 487.022 485 c 128
 471.022 417 464.022 363 464.022 320 c 2
 464.022 307 l 2
 464.022 284 465.022 263 468.022 244 c 128
 471.022 225 474.022 214 476.022 210 c 128
 478.022 206 480.022 203 484.022 199 c 128
 488.022 195 489.022 194 490.022 193 c 128
 491.022 192 493.022 191 497.022 188 c 0
 502.022 183 510.022 181 522.022 181 c 128
 534.022 181 548.022 186 564.022 198 c 128
 580.022 210 598.022 228 619.022 253 c 128
 640.022 278 668.022 326 703.022 398 c 128
 738.022 470 761.022 538 773.022 602 c 1
712.022 83 m 128
 700.022 98 695.022 124 695.022 159 c 128
 695.022 194 705.022 242 725.022 305 c 1
 713.022 307 l 1
 688.022 254 664.022 211 640.022 177 c 128
 616.022 143 587.022 115 554.022 93 c 128
 521.022 71 487.022 60 453.022 60 c 128
 419.022 60 390.022 74 366.022 104 c 128
 342.022 134 330.022 167 326.022 204 c 1
 324.022 210 324.022 224 324.022 249 c 128
 324.022 274 331.022 323 347.022 395 c 0
 377.022 532 445.022 646 552.022 738 c 1
 597.022 773 638.022 790 676.022 790 c 128
 714.022 790 750.022 771 785.022 733 c 1
 799.022 731 l 1
 805.022 802 l 1
 824.022 809 l 1
 929.022 778 l 1
 868.022 463 l 1
 853.022 356 846.022 301 844.022 296 c 1
 841.022 253 l 2
 839.022 218 838.022 201 838.022 199 c 2
 838.022 188 l 2
 838.022 184 839.022 181 844.022 176 c 128
 849.022 171 853.022 168 858.022 168 c 128
 863.022 168 866.022 168 868.022 170 c 1
 876.022 170 l 1
 892.022 172 903.022 173 909.022 175 c 128
 915.022 177 921.022 177 928.022 179 c 128
 935.022 181 939.022 182 941.022 183 c 128
 943.022 184 946.022 185 952.022 187 c 128
 958.022 189 962.022 190 965.022 192 c 128
 968.022 194 971.022 196 976.022 199 c 128
 981.022 202 985.022 204 989.022 208 c 128
 993.022 212 997.022 214 1003.02 218 c 0
 1056.02 262 1092.02 310 1113.02 362 c 128
 1134.02 414 1144.02 478 1144.02 553 c 0
 1145.02 720 1076.02 840 936.022 913 c 1
 869.022 946 798.022 962 721.022 961 c 0
 616.022 961 520.022 932 435.022 876 c 128
 350.022 820 285.022 745 242.022 651 c 1
 197.022 557 174.022 458 174.022 355 c 128
 174.022 252 195.022 164 237.022 90 c 128
 279.022 16 339.022 -39 416.022 -78 c 128
 493.022 -117 579.022 -137 674.022 -137 c 2
 695.022 -137 l 1
 738.022 -136 786.022 -130 837.022 -117 c 128
 888.022 -104 932.022 -88 970.022 -67 c 0
 1014.02 -44 1041.02 -29 1051.02 -21 c 1
 1087.02 -75 l 1
 1078.02 -80 l 1
 1017.02 -139 946.022 -178 864.022 -199 c 128
 782.022 -220 714.022 -230 660.022 -230 c 2
 646.022 -230 l 2
 540.022 -230 439.022 -210 343.022 -170 c 128
 247.022 -130 172.022 -72 115.022 3 c 1
 49.0225 93 16.0225 202 17.0225 331 c 128
 18.0225 460 49.0225 581 112.022 692 c 128
 175.022 803 263.022 890 374.022 955 c 128
 485.022 1020 610.022 1052 747.022 1052 c 2
 756.022 1052 l 1
 854.022 1049 942.022 1029 1022.02 991 c 128
 1102.02 953 1165.02 899 1211.02 828 c 128
 1257.02 757 1279.02 679 1280.02 594 c 1
 1280.02 583 l 2
 1280.02 498 1259.02 416 1218.02 340 c 128
 1177.02 264 1121.02 200 1049.02 148 c 128
 977.022 96 900.022 64 818.022 52 c 1
 814.022 50 806.022 50 792.022 51 c 1
 759.022 54 l 1
 739.022 59 724.022 68 712.022 83 c 128
EndSplineSet
Colour: ffffff
EndChar

StartChar: A
Encoding: 34 65 33
Width: 1281
VWidth: 1655
GlyphClass: 2
Flags: HMW
LayerCount: 2
Fore
SplineSet
819 505 m 1
 731 1062 l 1
 727 1062 l 1
 696 911 613 655 571 536 c 1
 819 505 l 1
875 1271 m 1
 1083 132 l 1
 1261 81 l 1
 1238 0 l 1
 662 0 l 1
 685 72 l 1
 883 108 l 1
 831 432 l 1
 540 446 l 1
 507 310 362 -28 193 -28 c 3
 110 -28 42 35 20 101 c 1
 413 253 591 765 695 1241 c 1
 875 1271 l 1
EndSplineSet
Colour: ffffff
EndChar

StartChar: B
Encoding: 35 66 34
Width: 1165
VWidth: 1655
GlyphClass: 2
Flags: HMW
LayerCount: 2
Fore
SplineSet
1143.15 385.872 m 0
 1143.15 76.3551 797.295 -16.4266 510.456 -16.4266 c 0
 415.395 -16.4266 320.898 -6.46212 236 10 c 1
 392 1121 l 1
 158 1128 l 1
 177 1205 l 1
 355.321 1256.2 540.77 1280.67 700.103 1280.67 c 0
 945.534 1280.67 1129 1184.23 1129 1005 c 0
 1129 811.779 992.059 692.616 881 659 c 1
 881 643.478 l 1
 1033.31 614.959 1143.15 536.459 1143.15 385.872 c 0
500 595 m 1
 437 121 l 1
 500.067 105.605 557.456 97.9242 609.105 97.9242 c 0
 825.318 97.9242 936 178.484 936 338 c 0
 936 434.669 869.592 549.162 701 571.323 c 2
 500 595 l 1
793.203 651.985 m 1
 880.086 706.239 936 789.82 936 920 c 0
 936 1099.16 760.891 1209.21 582 1194 c 1
 511 668 l 1
 793.203 651.985 l 1
EndSplineSet
Colour: ffffff
EndChar

StartChar: C
Encoding: 36 67 35
Width: 909
VWidth: 1655
GlyphClass: 2
Flags: HMW
LayerCount: 2
Back
SplineSet
799.832 -32 m 1
 824 161 l 25
 843 340 l 1
 826.34 340 l 1
 732.606 138.418 597.241 -33 376 -33 c 0
 144.532 -33 20 158.975 20 444 c 0
 20 915.719 342.689 1263.74 845.451 1263.74 c 4
 910.092 1263.74 977.709 1257.98 1048 1246 c 5
 968 835 l 5
 882 848 l 5
 850 1111 l 5
 784.415 1125.46 725.961 1132.06 673.866 1132.06 c 4
 275.589 1132.06 249 746.008 249 532 c 0
 249 279 309.469 87 440 87 c 0
 566.451 87 744.221 257.748 820 448.108 c 1
 820 463 l 1
 594 456 l 1
 613 532 l 1
 728.104 562.242 843.854 579.227 967.155 579.227 c 0
 1018.15 579.227 1070.29 576.882 1124 572 c 1
 1104 497 l 1
 989 465 l 1
 968 299 l 17
 986 23 l 1
 983 6 l 1
 799.832 -32 l 1
EndSplineSet
Fore
SplineSet
943 1246 m 1
 873 815 l 1
 777 828 l 1
 745 1101 l 1
 696.441 1111.52 652.038 1116.58 611.541 1116.58 c 0
 348.195 1116.58 250.01 902.444 248 581 c 0
 248 343.886 309 135 475 135 c 0
 597 135 794.557 244.913 881 370 c 1
 943 328 l 1
 859.991 177.413 616.757 -30 388 -30 c 128
 126 -30 20 237 20 496 c 0
 20 862.006 324.072 1261.65 783.13 1261.65 c 0
 834.546 1261.65 887.906 1256.64 943 1246 c 1
EndSplineSet
Colour: ffffff
EndChar

StartChar: D
Encoding: 37 68 36
Width: 1321
VWidth: 1655
GlyphClass: 2
Flags: HMW
LayerCount: 2
Fore
SplineSet
386 106 m 1
 813.648 106 1072 262.977 1072 672 c 128
 1072 987.994 841.69 1197.07 513 1171 c 1
 386 106 l 1
174 0 m 1
 316 1068 l 1
 99 1105 l 1
 120 1176 l 1
 285.439 1235.56 485.565 1275.35 675.243 1275.35 c 0
 991.052 1275.35 1275 1141.88 1275 752 c 0
 1275 163.5 791.357 -33 174 0 c 1
EndSplineSet
Colour: ffffff
EndChar

StartChar: E
Encoding: 38 69 37
Width: 1229
VWidth: 1655
GlyphClass: 2
Flags: HMW
LayerCount: 2
Fore
SplineSet
1070 0 m 5
 702 2 495 3 452 3 c 5
 20 -3 l 5
 43 80 l 5
 261 134 l 5
 386 1094 l 5
 159 1117 l 5
 179 1192 l 5
 257 1208 367 1220 512 1233 c 132
 657 1246 790 1252 912 1252 c 5
 1209 1246 l 5
 1129 835 l 5
 1043 848 l 5
 1011 1111 l 5
 983 1117 l 5
 888 1136 765 1145 614 1143 c 6
 581 1143 l 5
 526 680 l 5
 981 714 l 5
 947 569 l 5
 514 578 l 5
 452 98 l 5
 669 108 l 6
 791 115 875 122 920 132 c 5
 943 169 969 222 1000 292 c 132
 1031 362 1050 415 1060 451 c 5
 1147 440 l 5
 1147 434 l 6
 1147 345 1140 262 1126 182 c 132
 1112 102 1094 41 1070 0 c 5
EndSplineSet
Colour: ffffff
EndChar

StartChar: F
Encoding: 39 70 38
Width: 1229
VWidth: 1655
GlyphClass: 2
Flags: HMW
LayerCount: 2
Fore
SplineSet
912 1252 m 1
 1209 1246 l 1
 1129 818 l 1
 1034 832 l 1
 1006 1102 l 1
 974 1107 l 1
 881 1123 771 1134 643 1142 c 1
 581 1143 l 1
 526 637 l 1
 981 670 l 1
 947 519 l 1
 512 537 l 1
 458 109 l 1
 708 80 l 1
 688 -2 l 1
 20 -2 l 1
 43 80 l 1
 261 134 l 1
 386 1094 l 1
 159 1117 l 1
 179 1192 l 1
 257 1208 368 1220 512 1233 c 128
 656 1246 790 1252 912 1252 c 1
EndSplineSet
Colour: ffffff
EndChar

StartChar: G
Encoding: 40 71 39
Width: 1144
VWidth: 1655
GlyphClass: 2
Flags: HMW
LayerCount: 2
Back
SplineSet
856 0 m 5
 816 310 l 5
 799.34 310 l 5
 709.978 124.631 580.925 -33 370 -33 c 4
 138.532 -33 14 158.974 14 444 c 4
 14 976.369 425 1351.18 1042 1246 c 5
 962 835 l 5
 876 848 l 5
 844 1111 l 5
 277 1236 243 774 243 532 c 4
 243 279 303.468 87 434 87 c 4
 557.124 87 730.215 257.748 804 448.108 c 5
 804 463 l 5
 578 456 l 5
 597 532 l 5
 715.354 562.242 834.373 579.227 961.155 579.227 c 4
 1012.15 579.227 1064.3 576.881 1118 572 c 5
 1098 497 l 5
 969 465 l 5
 982 46 l 5
 856 0 l 5
EndSplineSet
Fore
SplineSet
799.832 -32 m 1
 824 161 l 25
 843 340 l 1
 826.34 340 l 1
 732.606 138.418 597.241 -33 376 -33 c 0
 144.532 -33 20 158.975 20 444 c 0
 20 915.719 342.689 1263.74 845.451 1263.74 c 0
 910.092 1263.74 977.709 1257.98 1048 1246 c 1
 968 835 l 1
 882 848 l 1
 850 1105 l 5
 283 1228.7 249 771.492 249 532 c 0
 249 290.371 309.469 107 440 107 c 0
 566.451 107 744.221 268.291 820 448.108 c 1
 820 463 l 1
 594 456 l 1
 613 532 l 1
 728.104 562.242 843.854 579.227 967.155 579.227 c 0
 1018.15 579.227 1070.29 576.882 1124 572 c 1
 1104 497 l 1
 989 465 l 1
 968 299 l 17
 986 23 l 1
 983 6 l 1
 799.832 -32 l 1
EndSplineSet
Colour: ffff00
EndChar

StartChar: H
Encoding: 41 72 40
Width: 1591
VWidth: 1655
GlyphClass: 2
Flags: HMW
LayerCount: 2
Fore
SplineSet
1160 1113 m 1
 932 1122 l 1
 950 1197 l 1
 1107 1228 1264 1244 1419 1245 c 0
 1471 1245 1522 1243 1571 1239 c 1
 1553 1163 l 1
 1348 1109 l 1
 1232 129 l 1
 1443 81 l 1
 1422 0 l 1
 795 0 l 1
 814 78 l 1
 1036 113 l 1
 1097 600 l 1
 509 567 l 1
 452 106 l 1
 663 81 l 1
 639 0 l 1
 20 0 l 1
 38 78 l 1
 261 129 l 1
 384 1090 l 1
 158 1123 l 1
 177 1199 l 1
 285 1222 374 1235 440 1239 c 128
 506 1243 568 1245 625 1245 c 128
 682 1245 740 1243 798 1239 c 1
 778 1164 l 1
 579 1142 l 1
 524 680 l 1
 1109 701 l 1
 1160 1113 l 1
EndSplineSet
Colour: ffffff
EndChar

StartChar: I
Encoding: 42 73 41
Width: 818
VWidth: 1655
GlyphClass: 2
Flags: HMW
LayerCount: 2
Fore
SplineSet
646 0 m 5
 20 0 l 5
 38 78 l 5
 261 129 l 5
 384 1090 l 5
 158 1123 l 5
 177 1199 l 5
 325 1230 479 1246 641 1246 c 4
 684 1246 736 1244 798 1239 c 5
 778 1164 l 5
 579 1142 l 5
 452 106 l 5
 670 81 l 5
 646 0 l 5
EndSplineSet
Colour: ffffff
EndChar

StartChar: J
Encoding: 43 74 42
Width: 1022
VWidth: 1655
GlyphClass: 2
Flags: HMW
LayerCount: 2
Fore
SplineSet
212.446 -375 m 128
 86.2021 -375 20 -297.298 20 -208.19 c 0
 20 -163.189 36.8848 -115.28 71.4463 -73 c 1
 172.009 -147.868 260.088 -194 359.446 -194 c 0
 390.06 -194 413.819 -180.699 424.446 -148 c 0
 457.399 -28 500.446 302 533.446 589 c 2
 590.446 1087 l 1
 365.446 1117 l 1
 381.446 1194 l 1
 489.446 1220 602.446 1236 720.446 1243 c 1
 767.446 1247 815.446 1248 862.446 1248 c 128
 909.446 1248 956.446 1247 1002.45 1243 c 1
 983.446 1166 l 1
 788.446 1142 l 1
 693.446 385 l 2
 672.446 214 623.6 -38.5771 547.95 -175 c 0
 451.446 -328 336.253 -375 212.446 -375 c 128
EndSplineSet
Colour: ffffff
EndChar

StartChar: K
Encoding: 44 75 43
Width: 1189
VWidth: 1655
GlyphClass: 2
InSpiro: 1
Flags: HMW
LayerCount: 2
Fore
SplineSet
621 520 m 1
 551 587 l 1
 554 631 l 1
 627.602 657.495 697.451 694.831 759.301 742.724 c 0
 806.83 779.527 849.293 823.103 883.129 872.788 c 0
 915.475 920.286 939.794 972.858 959.579 1026.81 c 0
 988.607 1105.97 1009.59 1187.91 1026.26 1270.56 c 1
 1058.25 1272.57 1090.79 1264.81 1118.4 1248.54 c 0
 1151.8 1228.86 1177.5 1196.62 1189.57 1159.79 c 0
 1198 1134.07 1199.95 1106.41 1196.47 1079.57 c 0
 1193 1052.73 1184.26 1026.73 1172.3 1002.45 c 0
 1140.9 938.688 1089.58 886.868 1035.35 840.925 c 0
 944.282 763.776 842.919 699.655 740.23 638.826 c 1
 975.078 244.371 l 2
 1004.92 194.243 1033.78 143.067 1071.4 98.479 c 0
 1096.75 68.4336 1126.99 41.997 1162.27 24.6566 c 0
 1197.55 7.31618 1236.96 0.593788 1276 -3.9995 c 2
 1310 -7.9995 l 1
 1288 -88 l 1
 1238.04 -110.38 1183.13 -121.816 1128.4 -120.521 c 0
 1090.9 -119.634 1053.47 -112.673 1018.48 -99.15 c 0
 970.32 -80.5369 927.444 -49.0838 893.913 -9.82231 c 0
 860.382 29.4392 836.631 75.9257 814.078 122.371 c 2
 621 520 l 1
  Spiro
    621 520 v
    551 587 v
    554 631 v
    759.301 742.724 o
    883.129 872.788 o
    959.579 1026.81 o
    1026.26 1270.56 v
    1118.4 1248.54 o
    1189.57 1159.79 o
    1172.3 1002.45 o
    1035.35 840.925 o
    740.23 638.826 v
    975.078 244.371 ]
    1071.4 98.479 o
    1276 -3.9995 [
    1310 -7.9995 v
    1288 -88 v
    1128.4 -120.521 o
    1018.48 -99.15 o
    814.078 122.371 [
    0 0 z
  EndSpiro
606 0 m 1
 20 0 l 1
 38 78 l 1
 261 129 l 1
 384 1090 l 1
 158 1123 l 1
 177 1199 l 1
 234.161 1213.16 292.122 1224.08 350.504 1231.79 c 0
 409.949 1239.63 469.817 1244.17 529.754 1245.86 c 0
 605.882 1248.01 682.131 1245.64 758 1239 c 1
 738 1161 l 1
 579 1139 l 1
 452 110 l 1
 630 85 l 1
 606 0 l 1
  Spiro
    606 0 v
    20 0 v
    38 78 v
    261 129 v
    384 1090 v
    158 1123 v
    177 1199 v
    350.504 1231.79 o
    529.754 1245.86 o
    758 1239 v
    738 1161 v
    579 1139 v
    452 110 v
    630 85 v
    0 0 z
  EndSpiro
EndSplineSet
Colour: ffff00
EndChar

StartChar: L
Encoding: 45 76 44
Width: 1169
VWidth: 1655
GlyphClass: 2
Flags: HMW
LayerCount: 2
Fore
SplineSet
1070 0 m 1
 702 2 495 3 452 3 c 1
 20 -3 l 1
 43 80 l 1
 261 134 l 1
 386 1094 l 1
 159 1117 l 1
 179 1192 l 1
 297 1228 443 1246 617 1246 c 0
 655 1246 701 1245 756 1241 c 128
 811 1237 840 1236 846 1236 c 1
 832 1155 l 1
 585 1132 l 1
 452 106 l 1
 669 116 l 1
 767 122 846 129 905 139 c 1
 946 183 996 293 1055 470 c 1
 1147 456 l 1
 1147 448 1147 441 1149 434 c 1
 1149 408 l 2
 1149 335 1141 259 1126 179 c 128
 1111 99 1093 39 1070 0 c 1
EndSplineSet
Colour: ffffff
EndChar

StartChar: M
Encoding: 46 77 45
Width: 1723
VWidth: 1655
GlyphClass: 2
Flags: HMW
LayerCount: 2
Fore
SplineSet
1387 186 m 0
 1387 151 1398 134 1419 134 c 0
 1421 134 1427 136 1441 140 c 128
 1455 144 1471 157 1491 178 c 128
 1511 199 1538 232 1573 279 c 1
 1621 244 l 1
 1595 145 1538 68 1449 13 c 1
 1404 -14 1359 -28 1312 -29 c 128
 1265 -30 1232 -20 1212 0 c 128
 1192 20 1183 50 1183 89 c 0
 1183 95 1183 99 1185 103 c 1
 1185 114 l 1
 1187 159 1194 235 1208 343 c 2
 1290 999 l 1
 1214 814 1139 645 1065 492 c 128
 991 339 928 224 879 146 c 0
 873 137 852 106 816 52 c 1
 688 33 l 1
 447 999 l 1
 444 999 l 1
 425 486 l 2
 420 374 413 291 402 236 c 128
 391 181 370 129 337 78 c 0
 290 6 236 -30 175 -31 c 0
 148 -31 123 -25 100 -12 c 128
 77 1 59 19 45 41 c 128
 31 63 24 80 20 94 c 1
 96 128 155 174 198 233 c 0
 277 345 323 555 339 864 c 1
 341 925 342 994 343 1071 c 1
 116 1125 l 1
 139 1201 l 1
 298 1231 444 1246 580 1248 c 1
 635 1055 l 1
 819 343 l 1
 1212 1068 l 1
 1305 1231 l 1
 1318 1234 1347 1236 1394 1240 c 128
 1441 1244 1490 1246 1540 1246 c 128
 1590 1246 1644 1243 1703 1236 c 1
 1680 1158 l 1
 1463 1101 l 1
 1392 287 l 1
 1390 252 1389 233 1389 227 c 2
 1389 207 l 1
 1387 201 1387 195 1387 186 c 0
EndSplineSet
Colour: ffffff
EndChar

StartChar: N
Encoding: 47 78 46
Width: 1533
VWidth: 1655
GlyphClass: 2
Flags: HMW
LayerCount: 2
Fore
SplineSet
1023 -31 m 1
 468 999 l 1
 465 999 l 1
 446 486 l 1
 434.735 249.433 384.438 -31 163 -31 c 1
 104 -25 63 1 38 49 c 1
 29 69 24 87 20 103 c 1
 101 140 166.532 185.022 209 242 c 0
 329 403 353 791 365 1071 c 1
 139 1125 l 1
 161 1201 l 1
 328.528 1235.23 413 1244 570 1246 c 1
 658 1078 l 1
 1093 274 l 1
 1164 1106 l 1
 937 1122 l 1
 957 1197 l 1
 1125.21 1233.85 1210.04 1245 1370 1245 c 128
 1417 1245 1465 1243 1513 1239 c 1
 1492 1163 l 1
 1287 1109 l 1
 1183 2 l 1
 1023 -31 l 1
EndSplineSet
Colour: ffffff
EndChar

StartChar: O
Encoding: 48 79 47
Width: 1106
VWidth: 1655
GlyphClass: 2
Flags: HMW
LayerCount: 2
Fore
SplineSet
229 639 m 128
 229 395.097 324.526 120 572 120 c 0
 784.408 120 879 376.643 879 625 c 0
 879 875.887 773.023 1130 517 1130 c 128
 301.269 1130 229 879.592 229 639 c 128
1086 744 m 1
 1084 596 1049 457 981 325 c 1
 875.599 125.149 728.921 -28 464 -28 c 128
 186.373 -28 20 222.419 20 505 c 0
 20 906.486 247.087 1275 643 1275 c 0
 928.477 1275 1086 1029.2 1086 744 c 1
  Spiro
    1086 744 v
    1073.02 599.068 o
    1037.95 459.271 o
    981 325 v
    896.869 194.079 o
    798.451 92.6173 o
    687 21 o
    617.701 -6.34859 o
    543.294 -22.6404 o
    464 -28 o
    384.078 -19.9791 o
    307.926 4.32875 o
    236 45 o
    171.688 98.9779 o
    118.323 163.366 o
    76 238 o
    45.0619 321.136 o
    26.2837 410.536 o
    20 505 o
    39.5 703 o
    98 886 o
    157.23 995.49 o
    231.118 1090.16 o
    319 1169 o
    418.452 1227.99 o
    526.89 1263.32 o
    643 1275 o
    730.324 1266.31 o
    811.003 1240 o
    885 1196 o
    949.534 1138.73 o
    1001.12 1072.6 o
    1039 998 o
    1064.94 917.711 o
    1080.71 834.286 o
    1086 748 [
    0 0 z
  EndSpiro
EndSplineSet
Colour: ffffff
EndChar

StartChar: P
Encoding: 49 80 48
Width: 1130
VWidth: 1655
GlyphClass: 2
Flags: HMW
LayerCount: 2
Fore
SplineSet
552 534 m 1
 591 538 628 543 665 553 c 1
 764 576 841 615 895 670 c 128
 949 725 976 795 976 881 c 128
 976 967 946 1040 887 1100 c 128
 828 1160 746 1191 643 1191 c 0
 623 1191 604 1190 585 1186 c 1
 451 116 l 1
 679 84 l 1
 655 0 l 1
 20 0 l 1
 38 78 l 1
 254 132 l 1
 377 1066 l 1
 161 1089 l 1
 177 1158 l 1
 374 1227 562 1261 739 1262 c 0
 878 1262 985 1232 1059 1172 c 128
 1133 1112 1170 1025 1170 913 c 0
 1170 798 1118 697 1013 610 c 0
 962 569 898 534 820 506 c 128
 742 478 655 460 558 451 c 1
 552 534 l 1
EndSplineSet
Colour: ffffff
EndChar

StartChar: Q
Encoding: 50 81 49
Width: 1116
VWidth: 1655
GlyphClass: 2
Flags: HMW
LayerCount: 2
Fore
SplineSet
637.019 1275 m 2
 658.019 1275 l 1
 802.019 1267 909.019 1204 981.019 1085 c 1
 1042.02 984 1072.02 868 1072.02 736 c 0
 1072.02 681 1066.02 621 1052.02 555 c 0
 1026.02 427 980.019 317 914.019 223 c 128
 848.019 129 763.019 59 659.019 14 c 1
 668.019 -55 699.019 -111 752.019 -155 c 0
 790.019 -186 832.019 -202 879.019 -202 c 2
 884.019 -202 l 2
 910.019 -202 941.019 -196 976.019 -183 c 128
 1011.02 -170 1044.02 -154 1074.02 -134 c 1
 1096.02 -216 l 1
 1021.02 -317 925.019 -373 811.019 -385 c 1
 796.019 -385 l 1
 791.019 -387 787.019 -387 781.019 -386 c 0
 705.019 -386 644.019 -362 600.019 -314 c 128
 556.019 -266 531.019 -201 525.019 -120 c 1
 525.019 -103 l 1
 523.019 -98 523.019 -89 524.019 -74 c 128
 525.019 -59 525.019 -42 529.019 -21 c 1
 509.019 -25 485.019 -26 456.019 -26 c 128
 427.019 -26 399.019 -22 370.019 -14 c 1
 279.019 8 202.019 58 137.019 135 c 0
 58.0186 231 19.0186 364 20.0186 534 c 0
 20.0186 770 97.0186 962 250.019 1109 c 0
 316.019 1172 390.019 1217 473.019 1246 c 1
 525.019 1266 580.019 1275 637.019 1275 c 2
344.019 1052 m 0
 261.019 965 219.019 832 221.019 651 c 0
 221.019 498 242.019 378 285.019 293 c 1
 320.019 224 369.019 175 431.019 144 c 1
 466.019 125 498.019 116 524.019 116 c 128
 550.019 116 565.019 116 570.019 118 c 1
 620.019 124 664.019 140 703.019 168 c 0
 772.019 219 819.019 294 845.019 395 c 1
 863.019 454 871.019 523 871.019 602 c 0
 871.019 607 870.019 634 868.019 683 c 1
 854.019 872 797.019 1004 696.019 1078 c 1
 649.019 1115 595.019 1133 534.019 1132 c 0
 459.019 1133 396.019 1106 344.019 1052 c 0
EndSplineSet
Colour: ffffff
EndChar

StartChar: R
Encoding: 51 82 50
Width: 1263
VWidth: 1655
GlyphClass: 2
Flags: HMW
LayerCount: 2
Fore
SplineSet
436 106 m 5
 620 72 l 5
 601 0 l 5
 20 0 l 5
 38 75 l 5
 252 127 l 5
 377 1065 l 5
 156 1078 l 5
 170 1155 l 5
 237 1178 326 1201 436 1224 c 132
 546 1247 627 1259 679 1259 c 132
 731 1259 759 1259 767 1257 c 5
 947 1244 1062 1174 1113 1048 c 5
 1125 1019 1131 992 1130 967 c 4
 1130 891 1107 824 1062 765 c 4
 1029 724 986 687 930 654 c 132
 874 621 820 594 767 574 c 5
 767 571 l 5
 914 325 l 5
 945 270 970 231 991 206 c 132
 1012 181 1035 161 1061 144 c 132
 1087 127 1121 115 1164 106 c 5
 1243 91 l 5
 1236 31 l 5
 1181 -2 1123 -18 1064 -18 c 4
 962 -18 879 24 816 108 c 4
 796 134 775 171 750 218 c 6
 625 453 l 5
 609 478 599 494 595 500 c 6
 558 546 l 5
 541 567 l 5
 552 597 l 5
 630 615 l 5
 744 638 824 679 869 739 c 4
 889 765 903 793 913 821 c 132
 923 849 927 878 927 908 c 4
 927 981 903 1044 855 1098 c 132
 807 1152 746 1179 672 1179 c 4
 637 1179 607 1176 581 1168 c 5
 436 106 l 5
EndSplineSet
Colour: ffffff
EndChar

StartChar: S
Encoding: 52 83 51
Width: 927
VWidth: 1655
GlyphClass: 2
Flags: HMW
LayerCount: 2
Fore
SplineSet
242 415 m 5
 212.012 274.112 208 80 423 80 c 4
 532.542 80 623 163.816 623 262 c 132
 623 458 169 632 169 906 c 4
 169 1118.34 382.2 1278 593 1278 c 4
 713.328 1278 818.759 1245 907 1178 c 5
 802 832 l 5
 714 851 l 5
 707 1101 l 5
 682 1142 620.075 1184 548 1184 c 4
 447.547 1184 361 1109.54 361 1005 c 4
 361 791 825 602 825 348 c 4
 825 119.581 598.456 -24 381 -24 c 4
 211.461 -24 20 57.7939 20 232 c 132
 20 372.732 142 446 242 415 c 5
EndSplineSet
Colour: ffffff
EndChar

StartChar: T
Encoding: 53 84 52
Width: 1128
VWidth: 1655
GlyphClass: 2
Flags: HMW
LayerCount: 2
Fore
SplineSet
446 1123 m 1
 361 1135 304 1141 273 1140 c 128
 242 1139 221 1140 211 1138 c 1
 115 818 l 1
 20 832 l 1
 20 1224 l 1
 201 1240 405 1249 632 1252 c 1
 743 1252 l 1
 1108 1246 l 1
 1027 818 l 1
 932 832 l 1
 902 1117 l 1
 808 1133 723 1141 648 1143 c 1
 524 109 l 1
 774 80 l 1
 756 -2 l 1
 87 -2 l 1
 110 80 l 1
 327 134 l 1
 446 1123 l 1
EndSplineSet
Colour: ffffff
EndChar

StartChar: U
Encoding: 54 85 53
Width: 1453
VWidth: 1655
GlyphClass: 2
Flags: HMW
LayerCount: 2
Fore
SplineSet
242 1087 m 1
 20 1123 l 1
 42 1201 l 1
 203 1230 367 1245 534 1245 c 1
 658 1243 l 1
 640 1166 l 1
 441 1138 l 1
 393 745 l 2
 393 743 393 735 391 721 c 128
 389 707 387 682 382 647 c 128
 377 612 376 585 374 566 c 128
 372 547 372 520 372 487 c 128
 372 454 373 426 376 404 c 0
 379 382 383 357 390 329 c 0
 405 274 436 227 484 188 c 1
 534 145 594 123 663 123 c 128
 732 123 791 139 838 170 c 128
 885 201 920 241 945 291 c 128
 970 341 990 422 1006 534 c 1
 1080 1111 l 1
 855 1120 l 1
 873 1197 l 1
 1014 1228 1163 1243 1321 1243 c 0
 1329 1243 1366 1242 1433 1239 c 1
 1413 1163 l 1
 1206 1096 l 1
 1121 517 l 1
 1098 362 1063 249 1017 178 c 1
 992 140 966 109 937 85 c 128
 908 61 873 40 832 19 c 0
 758 -16 681 -34 601 -34 c 2
 591 -34 l 1
 463 -28 363 11 292 83 c 0
 211 164 171 277 170 425 c 0
 170 477 178 569 196 702 c 1
 242 1087 l 1
EndSplineSet
Colour: ffffff
EndChar

StartChar: V
Encoding: 55 86 54
Width: 1103
VWidth: 1655
GlyphClass: 2
Flags: HMW
LayerCount: 2
Fore
SplineSet
731 1201 m 5
 773 1243 822 1264 878 1264 c 4
 959 1264 1018 1226 1057 1150 c 4
 1075 1117 1083 1075 1083 1024 c 4
 1083 1019 1082 999 1080 962 c 5
 1067 836 1027 698 959 547 c 132
 891 396 811 261 718 142 c 5
 669 83 628 37 595 5 c 5
 451 -26 l 5
 242 1081 l 5
 20 1122 l 5
 40 1197 l 5
 175 1228 305 1244 430 1246 c 5
 617 188 l 5
 625 188 l 5
 662 227 698 273 733 327 c 5
 806 442 853 572 876 716 c 4
 881 743 883 777 883 817 c 4
 883 904 867 985 834 1058 c 5
 805 1118 771 1166 731 1201 c 5
EndSplineSet
Colour: ffffff
EndChar

StartChar: W
Encoding: 56 87 55
Width: 1570
VWidth: 1655
GlyphClass: 2
Flags: HMW
LayerCount: 2
Fore
SplineSet
847 -28 m 1
 818 621 l 1
 808 621 l 1
 749 455 679 301 597 158 c 0
 575 121 544 70 503 5 c 1
 329 -26 l 1
 237 1081 l 1
 20 1122 l 1
 47 1197 l 1
 187 1228 319 1244 444 1246 c 1
 511 237 l 1
 521 237 l 1
 621 382 701 553 762 752 c 0
 785 829 808 912 829 999 c 1
 978 1034 l 1
 1030 195 l 1
 1038 195 l 1
 1174 339 1262 510 1304 709 c 1
 1317 776 1323 835 1323 888 c 0
 1323 996 1300 1102 1255 1207 c 1
 1298 1238 1345 1253 1395 1252 c 2
 1401 1252 l 1
 1480 1246 1527 1206 1543 1130 c 0
 1548 1110 1550 1081 1550 1041 c 128
 1550 1001 1544 951 1530 892 c 1
 1506 773 1456 648 1379 517 c 1
 1310 395 1227 276 1130 162 c 1
 1107 131 1060 78 989 3 c 1
 847 -28 l 1
EndSplineSet
Colour: ffffff
EndChar

StartChar: X
Encoding: 57 88 56
Width: 1325
VWidth: 1655
GlyphClass: 2
Flags: HMW
LayerCount: 2
Fore
SplineSet
347.125 1071 m 1
 105.125 1122 l 1
 124.125 1197 l 1
 227.125 1220 304.125 1233 354.125 1237 c 128
 404.125 1241 453.125 1244 499.125 1246 c 1
 732.125 729 l 1
 747.125 770 761.125 803 775.125 829 c 1
 803.125 891 840.125 960 887.125 1036 c 128
 934.125 1112 975.125 1163 1010.12 1192 c 0
 1060.12 1232 1111.12 1252 1161.12 1252 c 128
 1229.98 1252 1291.12 1199.99 1303.12 1140 c 128
 1305.12 1130 1305.12 1114 1305.12 1092 c 128
 1305.12 1070 1298.12 1045 1282.12 1019 c 1
 1255.12 1026 1228.12 1029 1202.12 1029 c 1
 1156.12 1026 l 1
 1038.12 1010 935.125 934 849.125 797 c 1
 822.125 750 798.125 698 775.125 639 c 1
 903.125 357 l 2
 942.125 272 977.125 214 1006.12 184 c 0
 1022.12 168 1038.12 161 1057.12 162 c 128
 1076.12 163 1092.12 169 1108.12 184 c 1
 1139.12 207 1171.12 245 1205.12 298 c 1
 1254.12 264 l 1
 1242.12 219 1227.12 181 1208.12 151 c 0
 1160.12 75 1102.12 24 1033.12 -2 c 1
 1007.12 -11 983.125 -15 962.125 -14 c 0
 913.125 -14 871.125 4 836.125 39 c 0
 818.125 57 805.125 73 796.125 88 c 128
 787.125 103 765.125 147 732.125 220 c 1
 594.125 529 l 1
 559.125 435 508.125 329 441.125 211 c 1
 391.125 126 345.125 68 302.125 35 c 1
 263.125 4 221.125 -11 178.125 -10 c 1
 153.125 -8 l 1
 118.125 -2 89.125 13 66.125 39 c 0
 35.125 73 21.125 107 20.125 142 c 128
 19.125 177 24.125 205 35.125 228 c 1
 55.125 226 76.125 225 99.125 225 c 1
 161.125 228 l 1
 293.125 242 394.125 314 467.125 446 c 0
 490.125 487 517.125 546 549.125 623 c 1
 347.125 1071 l 1
EndSplineSet
Colour: ffffff
EndChar

StartChar: Y
Encoding: 58 89 57
Width: 1105
VWidth: 1655
GlyphClass: 2
Flags: HMW
LayerCount: 2
Fore
SplineSet
620 680 m 1
 591 583 569 476 555 359 c 2
 526 106 l 1
 739 81 l 1
 718 0 l 1
 92 0 l 1
 111 83 l 1
 332 129 l 1
 371 423 l 2
 378 470 381 519 381 569 c 0
 381 688 359 796 314 893 c 1
 253 1019 156 1092 20 1111 c 1
 30 1160 51 1197 85 1221 c 128
 119 1245 159 1259 203 1262 c 1
 214 1262 l 2
 322 1262 403 1203 458 1086 c 0
 495 1006 516 915 524 812 c 1
 526 749 527 713 526 702 c 2
 526 664 l 1
 542 664 l 1
 565 763 599 863 644 962 c 1
 727 1153 828 1249 945 1249 c 2
 963 1249 l 1
 1000 1245 1030 1231 1052 1204 c 128
 1074 1177 1085 1149 1085 1118 c 0
 1085 1105 1084 1095 1081 1087 c 1
 1042 1085 998 1078 948 1063 c 128
 898 1048 852 1026 811 995 c 1
 764 957 727 915 700 869 c 128
 673 823 647 760 620 680 c 1
EndSplineSet
Colour: ffffff
EndChar

StartChar: Z
Encoding: 59 90 58
Width: 1117
VWidth: 1655
GlyphClass: 2
Flags: HMW
LayerCount: 2
Fore
SplineSet
174 1248 m 5
 1097 1248 l 5
 1088 1171 l 5
 242 94 l 5
 452 103 l 5
 603 112 725 123 818 139 c 5
 868 257 902 362 920 453 c 5
 1011 440 l 5
 1011 428 1011 418 1013 409 c 5
 1013 378 l 5
 1011 241 1002 129 983 42 c 5
 973 0 l 5
 20 0 l 5
 25 103 l 5
 860 1152 l 5
 335 1135 l 5
 260 874 l 5
 158 900 l 5
 174 1248 l 5
EndSplineSet
Colour: ffffff
EndChar

StartChar: bracketleft
Encoding: 60 91 59
Width: 592
VWidth: 1655
GlyphClass: 2
Flags: HMW
LayerCount: 2
Fore
SplineSet
378 -378 m 1
 17 -380 l 1
 220 1266 l 1
 575 1266 l 1
 575 1175 l 1
 358 1154 l 1
 183 -263 l 1
 401 -282 l 1
 378 -378 l 1
EndSplineSet
Colour: ffffff
EndChar

StartChar: backslash
Encoding: 61 92 60
Width: 430
VWidth: 1655
GlyphClass: 2
Flags: HMW
LayerCount: 2
Fore
SplineSet
150 1275 m 1
 413 -380 l 1
 284 -372 l 1
 17 1283 l 1
 150 1275 l 1
EndSplineSet
Colour: ffffff
EndChar

StartChar: bracketright
Encoding: 62 93 61
Width: 595
VWidth: 1655
GlyphClass: 2
Flags: HMW
LayerCount: 2
Fore
SplineSet
17 -378 m 1
 19 -282 l 1
 239 -263 l 1
 413 1154 l 1
 200 1175 l 1
 223 1266 l 1
 578 1266 l 1
 378 -380 l 1
 17 -378 l 1
EndSplineSet
Colour: ffffff
EndChar

StartChar: asciicircum
Encoding: 63 94 62
Width: 668
VWidth: 1655
GlyphClass: 2
Flags: HMW
LayerCount: 2
Fore
SplineSet
406 1224 m 1
 648 808 l 1
 586 771 l 1
 353 1052 l 1
 344 1052 l 1
 66 776 l 1
 20 809 l 1
 353 1212 l 1
 406 1224 l 1
EndSplineSet
Colour: ffffff
EndChar

StartChar: underscore
Encoding: 64 95 63
Width: 916
VWidth: 1655
GlyphClass: 2
Flags: HMW
LayerCount: 2
Fore
SplineSet
53 -28 m 1
 887 -28 l 1
 863 -134 l 1
 28 -134 l 1
 53 -28 l 1
EndSplineSet
Colour: ffffff
EndChar

StartChar: grave
Encoding: 65 96 64
Width: 322
VWidth: 1655
GlyphClass: 2
Flags: HMW
LayerCount: 2
Fore
SplineSet
40 1626 m 1
 154 1663 l 1
 282 1336 l 1
 226 1303 l 1
 40 1626 l 1
EndSplineSet
Colour: ffffff
EndChar

StartChar: a
Encoding: 66 97 65
Width: 872
VWidth: 1655
GlyphClass: 2
Flags: HMW
LayerCount: 2
Back
SplineSet
496 528 m 1
 500 665 513 760 539 816 c 128
 565 872 607 900 666 900 c 0
 668 900 682 899 708 896 c 1
 722 869 l 1
 640 484 l 1
 618 252 l 2
 616 224 615 199 615 176 c 0
 615 127 627 103 652 104 c 0
 665 104 685 121 714 154 c 128
 743 187 768 222 789 259 c 1
 837 221 l 1
 810 148 767 85 711 31 c 128
 655 -23 597 -51 537 -51 c 0
 485 -51 459 -16 460 54 c 0
 460 84 464 119 473 159 c 0
 483 200 488 228 491 245 c 0
 499 280 502 298 501 299 c 1
 490 305 l 1
 460 214 415 135 356 71 c 128
 297 7 241 -25 188 -25 c 128
 135 -25 95 -11 69 16 c 128
 43 43 30 78 30 122 c 128
 30 166 33 210 39 257 c 1
 83 619 l 2
 87 648 88 672 88 691 c 0
 88 731 77 751 54 751 c 128
 31 751 4 739 -28 716 c 128
 -60 693 -86 663 -106 626 c 1
 -149 656 l 1
 -89 816 12 896 155 896 c 0
 220 896 253 854 253 771 c 0
 253 760 246 695 232 577 c 2
 209 384 l 2
 199 301 195 247 194 223 c 0
 194 174 213 150 250 151 c 0
 355 151 437 277 496 528 c 1
EndSplineSet
Fore
SplineSet
769 900 m 1
 793 881 l 1
 701 491 l 1
 671 253 l 2
 662.858 189.491 663 116 708 116 c 0
 760.835 116 835.578 231.893 861 275 c 1
 902 240 l 1
 844.118 94.5117 782.392 -31 610 -31 c 0
 470.95 -31 514.652 175.79 543 287 c 1
 530 287 l 1
 495 203 449 131 392 70 c 128
 335 9 279 -21 224 -21 c 128
 83.9482 -21 58 86.3643 58 225 c 128
 58 484 247.642 895 506 895 c 128
 560.25 895 601.583 873.333 630 830 c 1
 639 830 l 1
 670.2 876.667 710.067 900 769 900 c 1
229 288 m 0
 229 202.213 244.113 132 294 132 c 0
 343 132 398 183 461 285 c 128
 501.463 350.512 534.089 425.512 559.141 510 c 1
 574 670 l 1
 555.567 715.14 481.564 760 436 760 c 128
 276.989 760 229 449.577 229 288 c 0
EndSplineSet
Colour: ffffff
EndChar

StartChar: b
Encoding: 67 98 66
Width: 777
VWidth: 1655
GlyphClass: 2
Flags: HMW
LayerCount: 2
Back
SplineSet
442 762 m 4
 397 762 349 714 298 618 c 132
 247 522 214 400 196 249 c 5
 183 153 l 5
 214 108 269 86 346 88 c 4
 404 88 455 120 499 184 c 132
 543 248 565 355 565 505 c 4
 565 581 555 643 534 691 c 132
 513 739 483 762 442 762 c 4
318 1245 m 5
 269 845 l 5
 219 592 l 5
 228 592 l 5
 248 677 284 748 336 806 c 132
 388 864 447 893 511 893 c 132
 575 893 629 859 670 792 c 132
 711 725 732 639 732 535 c 132
 732 431 712 335 672 250 c 132
 632 165 574 99 500 50 c 132
 426 1 341 -24 244 -24 c 132
 147 -24 72 0 17 49 c 5
 149 1142 l 5
 13 1170 l 5
 24 1243 l 5
 303 1266 l 5
 318 1245 l 5
10 0 m 5
 21 79 l 5
 175 116 l 5
 175 1147 l 5
 15 1201 l 5
 27 1277 l 5
 316 1299 l 5
 341 1275 l 5
 341 850 l 5
 325 744 l 5
 335 744 l 5
 418 836 516 900 629 900 c 4
 767 900 872 842 872 599 c 6
 872 114 l 5
 1017 79 l 5
 1005 0 l 5
 556 0 l 5
 568 74 l 5
 703 114 l 5
 706 580 l 6
 706 722 613 764 534 764 c 4
 477 764 411 748 341 675 c 5
 341 116 l 5
 487 80 l 5
 475 0 l 5
 10 0 l 5
EndSplineSet
Fore
SplineSet
467 762 m 0
 323.638 762 241.822 423.675 221 249 c 1
 208 153 l 1
 239 108 294 86 371 88 c 1
 539.075 88 590 291.005 590 505 c 0
 590 619.589 566.735 762 467 762 c 0
345 1278 m 1
 294 845 l 1
 244 592 l 1
 253 592 l 1
 284.969 727.867 383.729 893 536 893 c 128
 688.672 893 757 703.961 757 535 c 128
 757 223.642 577.237 -24 269 -24 c 128
 172 -24 97 -1.78814e-07 42 49 c 1
 80 318 l 1
 176 1175 l 1
 40 1203 l 1
 51 1276 l 1
 330 1299 l 1
 345 1278 l 1
EndSplineSet
Colour: ffffff
EndChar

StartChar: c
Encoding: 68 99 67
Width: 635
VWidth: 1655
GlyphClass: 2
Flags: HMW
LayerCount: 2
Fore
SplineSet
526 652 m 1
 503.94 719.133 431.428 771.219 367.952 771.219 c 0
 241.974 771.219 208 541.031 208 392 c 0
 208 230.669 229.238 98 335 98 c 0
 440.622 98 542.979 210 580 267 c 1
 616 235 l 1
 578.674 129 409.11 -31 295 -31 c 0
 117.024 -31 48 135.991 48 332 c 0
 48 596.939 255 893 462 893 c 128
 555.274 893 625 839.258 625 759 c 128
 625 708 569 660 526 652 c 1
EndSplineSet
Colour: ffffff
EndChar

StartChar: d
Encoding: 69 100 68
Width: 832
VWidth: 1655
GlyphClass: 2
Flags: HMW
LayerCount: 2
Back
SplineSet
168 287 m 2
 168 224 171 179 178 151 c 128
 185 123 200 109 223 109 c 0
 264 109 304 136 346 188 c 128
 388 240 424 310 455 398 c 128
 486 486 507 579 517 678 c 1
 486 743 442 776 385 775 c 0
 344 775 306 752 271 705 c 128
 236 658 210 600 193 529 c 128
 176 458 168 384 168 305 c 2
 168 287 l 2
608 284 m 1
 601 242 597 209 598 185 c 128
 599 161 602 145 609 136 c 128
 616 127 627 123 643 123 c 128
 659 123 682 139 713 170 c 0
 745 201 770 234 790 270 c 1
 830 242 l 1
 778 64 680 -25 534 -24 c 0
 478 -24 450 17 450 98 c 0
 450 146 458 200 476 259 c 1
 463 263 l 1
 430 172 388 102 338 51 c 128
 288 0 234 -26 176 -26 c 128
 118 -26 75 -3 48 41 c 128
 21 85 8 146 8 225 c 128
 8 304 26 394 63 494 c 128
 100 594 151 684 217 763 c 128
 283 842 356 882 434 882 c 0
 486 882 517 872 527 851 c 1
 541 855 l 1
 561 1142 l 5
 427 1170 l 5
 437 1243 l 5
 712 1269 l 5
 731 1245 l 5
 608 284 l 1
EndSplineSet
Fore
SplineSet
763 1275 m 1
 640 284 l 2
 632 220 628.666 123 675 123 c 128
 723.709 123 800.204 230.768 822 270 c 1
 862 242 l 1
 810 64 712 -24 566 -24 c 0
 451.4 -24 478.133 161.103 508 259 c 1
 495 263 l 1
 447.105 130.926 358.374 -26 208 -26 c 128
 78.9785 -26 40 86.5264 40 225 c 128
 40 476.188 215.262 882 466 882 c 0
 518 882 549 872 559 851 c 1
 573 855 l 1
 593 1172 l 1
 459 1200 l 1
 469 1273 l 1
 744 1299 l 1
 763 1275 l 1
255 109 m 0
 370.676 109 447.888 286.972 487 398 c 128
 518 486 539 579 549 678 c 1
 518 743 471 775 417 775 c 0
 250.652 775 200 478 200 305 c 0
 200 193 201 109 255 109 c 0
EndSplineSet
Colour: ffffff
EndChar

StartChar: e
Encoding: 70 101 69
Width: 636
VWidth: 1655
GlyphClass: 2
Flags: HMW
LayerCount: 2
Fore
SplineSet
208.26 350 m 1
 212.26 184.987 265.26 103 370.26 103 c 0
 447.26 103 516.26 157.713 576.26 266 c 5
 613.26 234 l 5
 571.142 101.292 449.528 -31 289.26 -31 c 128
 122.071 -31 48.2598 115.553 48.2598 293 c 128
 48.2598 560.583 225.339 897 445.26 897 c 0
 543.101 897 616 803.649 616 700.432 c 0
 616 486 429.26 399 208.26 350 c 1
369.26 760 m 0
 288.76 760 221.677 644.053 208.26 414 c 1
 327.26 453 452.181 516 452.181 644.957 c 0
 452.181 707.597 425.927 760 369.26 760 c 0
EndSplineSet
Colour: ffffff
EndChar

StartChar: f
Encoding: 71 102 70
Width: 521
VWidth: 1655
GlyphClass: 2
Flags: HMW
LayerCount: 2
Back
SplineSet
409 1238 m 132
 426 1218 434 1193 434 1163 c 132
 434 1133 423 1104 401 1079 c 132
 379 1054 353 1041 325 1041 c 132
 297 1041 276 1049 259 1068 c 132
 242 1087 234 1111 234 1140 c 132
 234 1169 242.735 1198 261 1226 c 132
 286.176 1254 312.446 1268 342 1268 c 132
 369 1268 392 1258 409 1238 c 132
345 254 m 5
 341 225 340 201 340 181 c 4
 340 142 351 123 374 123 c 132
 397 123 424 134 456 157 c 132
 488 180 514 209 534 246 c 5
 576 217 l 5
 516 57 420 -23 288 -23 c 4
 247 -23 217 -10 200 15 c 132
 183 40 175 71 175 108 c 132
 175 145 179 208 188 296 c 5
 224 611 l 6
 250.259 840.77 152.561 747.619 53 599 c 5
 5 631 l 5
 48.0264 743.759 161.278 906 299 906 c 4
 425.723 906 389 745 373 569 c 6
 345 254 l 5
EndSplineSet
Fore
SplineSet
-211 -132 m 5
 -145 -196 -78 -228 -10 -228 c 4
 72.4355 -228 106.861 -194.812 120 -127 c 5
 136.574 38.7646 139.297 509.419 144 742 c 5
 29 753 l 5
 41 845 l 5
 149 849 l 5
 161.192 987.676 208.75 1110.08 297.468 1194 c 4
 365.395 1265.85 460.783 1309 587 1309 c 4
 693.624 1304.72 771 1241.2 771 1165 c 4
 771 1106.34 736.837 1066.35 697 1041 c 5
 640.628 1113.02 552 1160.39 465.389 1160.39 c 4
 391.971 1160.39 358.977 1145.48 341.642 1089 c 4
 318.773 1021.7 311.83 930.815 308 844 c 5
 542 845 l 5
 523 747 l 5
 306 738 l 5
 296.053 260.547 374.656 -377.701 -115 -381 c 4
 -210.013 -381.659 -270 -331.574 -270 -242 c 4
 -264.851 -200.811 -237.543 -156.982 -211 -132 c 5
EndSplineSet
Colour: ffffff
EndChar

StartChar: g
Encoding: 72 103 71
Width: 769
VWidth: 1655
GlyphClass: 2
Flags: HMW
LayerCount: 2
Back
SplineSet
58 360 m 132
 58 621.322 191.454 895 447 895 c 132
 623.977 895 732 716 732 526 c 132
 732 264.391 598.426 -26 327 -26 c 132
 146.702 -26 58 146 58 360 c 132
222 460 m 4
 222 272 277.811 90 397 90 c 132
 526.371 90 570 230 570 424 c 4
 570 581.558 505.667 784 377 784 c 132
 263.747 784 222 642 222 460 c 4
EndSplineSet
Fore
SplineSet
518 377 m 1
 536 685 l 1
 513.086 733.219 477.445 772 413 772 c 128
 241.241 772 210.595 470.453 209 305 c 0
 209 226.947 219.853 129 263 129 c 128
 344.223 129 434.472 241.307 536 494 c 1
 554.339 470.656 563.157 463.976 571 459 c 1
 508.396 219.952 361.069 -26 221 -26 c 128
 91.4258 -26 57 111.118 57 244 c 128
 57 485.736 232.782 897 442 897 c 0
 495.945 897 535.578 862.521 562 792 c 1
 572 792 l 1
 605.773 864.706 679.28 908.329 721 895 c 1
 739 880 l 1
 670 412 l 17
 818 -137 454.694 -378.023 248 -378.023 c 0
 89.8467 -378.023 -10 -341.39 -10 -275 c 0
 -10 -203.359 52 -155.121 112 -148 c 1
 137.096 -213 234.968 -247 309 -247 c 0
 495.735 -247 554.451 -83.709 554.451 99.8926 c 0
 554.451 193.278 539.261 291.919 518 377 c 1
EndSplineSet
Colour: ffffff
EndChar

StartChar: h
Encoding: 73 104 72
Width: 839
VWidth: 1655
GlyphClass: 2
Flags: HMW
LayerCount: 2
Back
SplineSet
336 364 m 5
 329.003 133.088 318.069 -47.7976 104 -24 c 5
 90 3 l 5
 192 388 l 5
 211 567 232 768 180 768 c 4
 138.314 768 63.4918 649.105 43 613 c 5
 -5 651 l 5
 36.9156 764.327 154.106 923 295 923 c 4
 415 923 358 651.314 331 553 c 5
 342 547 l 5
 384.914 659.424 537.205 897 666 897 c 132
 778.823 897 823.146 829.09 823.146 713.126 c 4
 823.146 571 706.721 286 706.721 156.993 c 4
 706.721 133.391 713.037 121 730 121 c 132
 806.745 121 861.84 195.437 889 246 c 5
 932 216 l 5
 873.382 56 774.707 -24 635 -24 c 4
 557.051 -24 532.279 3.25322 532.279 74.6055 c 4
 532.279 202 650.969 442 650.969 644.743 c 4
 650.969 695.722 632.334 721 594 721 c 4
 503.297 721 397.878 601.684 336 364 c 5
EndSplineSet
Fore
SplineSet
228 1180 m 1
 92 1208 l 1
 102 1281 l 1
 389 1304 l 1
 405 1283 l 1
 335 825 l 1
 272 564 l 1
 284 561 l 1
 357.14 731.036 490.7 898 602 898 c 128
 718.819 898 751.696 818.184 751.696 707.854 c 0
 751.696 520.505 636.542 265 636.542 168.56 c 0
 636.542 144.324 643.426 123 669 123 c 128
 733.568 123 800.924 195.91 828 246 c 1
 869 217 l 1
 816.209 80.7646 739.815 -23 568 -23 c 0
 491.116 -23 470.788 18.5566 470.788 74.8428 c 0
 470.788 186.991 581.819 455.082 581.819 636.39 c 0
 581.819 695.325 566.442 716 535 716 c 0
 413 716 319.746 541.983 279 386 c 1
 271.917 141.599 258.009 -42.1592 45 -19 c 1
 30 8 l 1
 130 434 l 1
 228 1180 l 1
EndSplineSet
Colour: ffffff
EndChar

StartChar: i
Encoding: 74 105 73
Width: 541
VWidth: 1655
GlyphClass: 2
Flags: HMW
LayerCount: 2
Fore
SplineSet
469 1163 m 132
 469 1104.39 417.939 1041 360 1041 c 132
 303.332 1041 269 1083.24 269 1140 c 132
 269 1203.43 317.23 1268 377 1268 c 132
 433.661 1268 469 1220.91 469 1163 c 132
317.717 187.354 m 0
 317.717 152.77 324.137 123 351 123 c 128
 415.468 123 482.02 189.565 509 236 c 1
 551 207 l 1
 491 53.6667 395 -23 263 -23 c 0
 170.765 -23 148.159 44.8193 148.159 129.938 c 0
 148.159 253 243.33 490.497 243.33 676.479 c 0
 243.33 728.158 231.93 749.552 213.188 749.552 c 0
 175.63 749.552 112.154 683.172 48 599 c 1
 0 631 l 1
 47.4166 743.759 172.225 906 324 906 c 0
 393.314 906 411.493 853.326 411.493 775.301 c 0
 411.493 588.647 317.717 379.456 317.717 187.354 c 0
EndSplineSet
Colour: ffffff
EndChar

StartChar: j
Encoding: 75 106 74
Width: 458
VWidth: 1655
GlyphClass: 2
Flags: HMW
LayerCount: 2
Back
SplineSet
429 1163 m 132
 429 1104.39 377.939 1041 320 1041 c 132
 263.332 1041 229 1083.24 229 1140 c 132
 229 1203.43 277.23 1268 337 1268 c 132
 393.661 1268 429 1220.91 429 1163 c 132
327.717 187.354 m 4
 327.717 152.77 334.137 123 361 123 c 132
 429.548 123 500.312 195.456 529 246 c 5
 571 217 l 5
 508.917 57 409.583 -23 273 -23 c 4
 180.765 -23 158.159 44.8193 158.159 129.938 c 4
 158.159 253 233.33 490.497 233.33 676.479 c 4
 233.33 728.158 221.93 749.552 203.188 749.552 c 4
 167.903 749.552 108.271 683.172 48 599 c 5
 0 631 l 5
 45.9531 743.759 166.909 906 314 906 c 4
 383.314 906 401.493 853.326 401.493 775.301 c 4
 401.493 588.647 327.717 379.456 327.717 187.354 c 4
EndSplineSet
Fore
SplineSet
430 1163 m 128
 430 1104.39 378.939 1041 321 1041 c 128
 264.332 1041 230 1083.24 230 1140 c 128
 230 1203.43 278.23 1268 338 1268 c 128
 394.661 1268 430 1220.91 430 1163 c 128
-170 -132 m 1
 -107.317 -196 -44.6332 -228 19 -228 c 0
 144 -228 128 -94 162.831 182 c 0
 179.497 314.064 240.111 609.483 240.111 681.359 c 0
 240.111 720.079 229.99 752 200 752 c 0
 153.068 752 76.8557 620.711 64 595 c 1
 13 631 l 1
 54.7352 743.685 167.683 909 310 909 c 128
 394.198 909 416.891 844.498 416.891 764.942 c 0
 416.891 705.503 364.415 457.78 324 210 c 0
 312.274 129.919 306.724 64.161 297.658 -14 c 0
 284.008 -116.081 238.252 -192.748 209 -230 c 128
 152.016 -317.345 33.2278 -381 -84 -381 c 1
 -171.902 -373.572 -229 -331.374 -229 -242 c 1
 -223.851 -200.811 -196.543 -156.982 -170 -132 c 1
EndSplineSet
Colour: ffffff
EndChar

StartChar: k
Encoding: 76 107 75
Width: 777
VWidth: 1655
GlyphClass: 2
Flags: HMW
LayerCount: 2
Back
SplineSet
194 885 m 5
 226 1175 l 5
 90 1203 l 5
 101 1276 l 5
 380 1299 l 5
 395 1278 l 5
 318 623 l 5
 278 253 l 6
 276 230 275 208 275 188 c 4
 275 143 286 121 309 121 c 132
 332 121 359 133 391 156 c 132
 423 179 449 209 470 246 c 5
 512 216 l 5
 452 56 351 -24 207 -24 c 4
 138 -24 104 24 104 120 c 4
 104 158 109 216 120 295 c 5
 194 885 l 5
EndSplineSet
Fore
SplineSet
358 401 m 1
 505.206 504.677 593.664 631.581 593.664 700.086 c 0
 593.664 729.681 582.343 748 558 748 c 0
 474 748 294 495 261 405 c 1
 255.292 153.973 239.119 -86.8315 46 -13 c 1
 40 0 l 1
 123 440 l 1
 210 1175 l 1
 75 1203 l 1
 85 1276 l 1
 372 1299 l 1
 388 1278 l 1
 330 832 l 1
 265 551 l 1
 278 546 l 1
 312.824 600.613 498 906 648 906 c 0
 688.981 906 742.1 851.235 742.1 765.239 c 0
 742.1 675.643 678.9 551.89 471 421 c 1
 499 317.072 581 123 631 123 c 0
 659 123 733 164 780 246 c 1
 822 216 l 1
 784 103 667 -13 564 -13 c 0
 407 -13 370 260.738 347 383 c 1
 358 401 l 1
EndSplineSet
Colour: ffffff
EndChar

StartChar: l
Encoding: 77 108 76
Width: 425
VWidth: 1655
GlyphClass: 2
Flags: HMW
LayerCount: 2
Back
SplineSet
409 1238 m 132
 426 1218 434 1193 434 1163 c 132
 434 1133 423 1104 401 1079 c 132
 379 1054 353 1041 325 1041 c 132
 297 1041 276 1049 259 1068 c 132
 242 1087 234 1111 234 1140 c 132
 234 1169 242.735 1198 261 1226 c 132
 286.176 1254 312.446 1268 342 1268 c 132
 369 1268 392 1258 409 1238 c 132
345 254 m 5
 341 225 340 201 340 181 c 4
 340 142 351 123 374 123 c 132
 397 123 424 134 456 157 c 132
 488 180 514 209 534 246 c 5
 576 217 l 5
 516 57 420 -23 288 -23 c 4
 247 -23 217 -10 200 15 c 132
 183 40 175 71 175 108 c 132
 175 145 179 208 188 296 c 5
 224 611 l 6
 250.259 840.77 152.561 747.619 53 599 c 5
 5 631 l 5
 48.0264 743.759 161.278 906 299 906 c 4
 425.723 906 389 745 373 569 c 6
 345 254 l 5
EndSplineSet
Fore
SplineSet
144 885 m 5
 176 1175 l 1
 40 1203 l 1
 51 1276 l 1
 338 1299 l 1
 353 1278 l 1
 268 623 l 1
 231 253 l 2
 226.647 202.942 220.641 121 262 121 c 128
 327.475 121 394.462 195.718 423 246 c 1
 465 216 l 1
 405 56 304 -24 160 -24 c 0
 28.0391 -24 56 154 73 295 c 2
 144 885 l 5
EndSplineSet
Colour: ffffff
EndChar

StartChar: m
Encoding: 78 109 77
Width: 1322
VWidth: 1655
GlyphClass: 2
Flags: HMW
LayerCount: 2
Back
SplineSet
756 364 m 1
 749.003 133.088 738.069 -47.7976 524 -24 c 1
 510 3 l 1
 612 388 l 1
 631 567 652 768 600 768 c 0
 558.314 768 483.492 649.105 463 613 c 1
 415 651 l 1
 456.916 764.327 574.106 923 715 923 c 0
 835 923 778 651.314 751 553 c 1
 762 547 l 1
 804.914 659.424 957.205 897 1086 897 c 132
 1198.82 897 1243.15 829.09 1243.15 713.126 c 4
 1243.15 571 1126.72 286 1126.72 156.993 c 4
 1126.72 133.391 1133.04 121 1150 121 c 132
 1226.75 121 1281.84 195.437 1309 246 c 5
 1352 216 l 5
 1293.38 56 1194.71 -24 1055 -24 c 4
 977.051 -24 952.279 3.25323 952.279 74.6055 c 0
 952.279 202 1070.97 442 1070.97 644.743 c 4
 1070.97 695.722 1052.33 721 1014 721 c 4
 923.297 721 817.878 601.684 756 364 c 1
EndSplineSet
Fore
SplineSet
1070.97 644.743 m 0
 1070.97 695.722 1052.33 721 1014 721 c 0
 880.821 723.038 794.38 520.72 751 343 c 1
 743.939 122.471 736.366 -44.8965 524 -30 c 1
 508 -2 l 1
 607 378 l 1
 625.212 500.929 674.405 712 572 712 c 0
 450 712 375.314 513.939 336 344 c 1
 328.931 122.744 318.275 -39.9785 104 -19 c 1
 90 8 l 1
 192 378 l 1
 197.812 441.204 246.47 761.319 180.941 761.319 c 0
 140.705 761.319 77.7833 670.417 43 605 c 1
 -5 641 l 1
 37.2021 759.297 152.797 923 295 923 c 0
 399 923 357 665.878 331 562 c 1
 342 560 l 1
 385.637 686.299 501.075 888 644 888 c 128
 794.015 888 801 762 773 618 c 1
 783 613 l 1
 863.433 802.675 964.8 897 1086 897 c 128
 1198.82 897 1243.15 829.09 1243.15 713.126 c 0
 1243.15 571 1126.72 286 1126.72 156.993 c 0
 1126.72 133.391 1133.04 121 1150 121 c 128
 1226.75 121 1281.84 195.437 1309 246 c 1
 1352 216 l 1
 1293.38 56 1194.71 -24 1055 -24 c 0
 966.155 -24 949 11.9867 949 61 c 0
 949 223 1070.97 427 1070.97 644.743 c 0
EndSplineSet
Colour: ffffff
EndChar

StartChar: n
Encoding: 79 110 78
Width: 902
VWidth: 1655
GlyphClass: 2
Flags: HMW
LayerCount: 2
Fore
SplineSet
336 364 m 5
 329.003 133.088 318.069 -47.7976 104 -24 c 5
 90 3 l 5
 192 388 l 5
 211 567 232 768 180 768 c 4
 138.314 768 63.4918 649.105 43 613 c 5
 -5 651 l 5
 36.9156 764.327 154.106 923 295 923 c 4
 415 923 358 651.314 331 553 c 5
 342 547 l 5
 384.914 659.424 537.205 897 666 897 c 132
 778.823 897 823.146 829.09 823.146 713.126 c 4
 823.146 571 706.721 286 706.721 156.993 c 4
 706.721 133.391 713.037 121 730 121 c 132
 806.745 121 861.84 195.437 889 246 c 5
 932 216 l 5
 873.382 56 774.707 -24 635 -24 c 4
 557.051 -24 532.279 3.25322 532.279 74.6055 c 4
 532.279 202 650.969 442 650.969 644.743 c 4
 650.969 695.722 632.334 721 594 721 c 4
 503.297 721 397.878 601.684 336 364 c 5
EndSplineSet
Colour: ffffff
EndChar

StartChar: o
Encoding: 80 111 79
Width: 742
VWidth: 1655
GlyphClass: 2
Flags: HMW
LayerCount: 2
Fore
SplineSet
48 360 m 132
 48 621.322 181.454 895 437 895 c 132
 613.977 895 722 716 722 526 c 132
 722 264.391 588.426 -26 317 -26 c 132
 136.702 -26 48 146 48 360 c 132
212 460 m 4
 212 272 267.811 90 387 90 c 132
 516.371 90 560 230 560 424 c 4
 560 581.558 495.667 784 367 784 c 132
 253.747 784 212 642 212 460 c 4
EndSplineSet
Colour: ffffff
EndChar

StartChar: p
Encoding: 81 112 80
Width: 829
VWidth: 1655
GlyphClass: 2
Flags: HMW
LayerCount: 2
Back
SplineSet
326 204 m 5
 316.698 -32.8959 286.465 -197.167 226 -294 c 132
 200 -350 158 -378 99 -378 c 4
 97 -378 83 -377 57 -374 c 5
 43 -347 l 5
 182 248 l 5
 214 620 l 2
 216 648 217 673 217 696 c 0
 217 745 205 769 180 768 c 0
 167 768 147 751 118 718 c 128
 89 685 64 650 43 613 c 1
 -5 651 l 1
 22 724 65 787 121 841 c 128
 177 895 235 923 295 923 c 0
 347 923 373 888 372 818 c 0
 372 788 368 753 359 713 c 0
 349 672 344 644 341 627 c 0
 333 592 330 574 331 573 c 1
 342 567 l 1
 372 658 417 737 476 801 c 128
 535 865 591 897 644 897 c 128
 697 897 737 883 763 856 c 128
 789 829 802 794 802 750 c 128
 802 706 799 662 793 615 c 1
 749 253 l 2
 745 224 744 200 744 181 c 0
 744 141 755 121 778 121 c 128
 801 121 828 133 860 156 c 128
 892 179 918 209 938 246 c 1
 981 216 l 1
 921 56 820 -24 677 -24 c 0
 612 -24 579 18 579 101 c 0
 579 112 586 177 600 295 c 2
 623 488 l 2
 633 571 637 625 638 649 c 0
 638 698 619 722 582 721 c 0
 472.732 721 387.398 548.21 326 204 c 5
EndSplineSet
Fore
SplineSet
262 112 m 1
 288.632 306.35 333.789 459.3 394 572 c 128
 446 670 498 719 550 719 c 0
 628.272 719 635 622.581 635 524 c 0
 635 243.536 566.367 91.6222 333 62 c 1
 340 -12 l 1
 637.766 -12 809 218.779 809 540 c 128
 809 697.034 752.227 877 614 877 c 128
 466.069 877 371.709 681.829 321 553 c 1
 311 555 l 1
 311 557 312 561 314 570 c 128
 333.597 658.185 411.059 915 272 915 c 0
 129.068 915 17.5575 748.977 -24 632 c 1
 22 595 l 1
 42.5065 632.107 117.021 754 159 754 c 0
 208.189 754 200.677 664.902 191 602 c 2
 124 131 l 17
 3 -347 l 1
 17 -374 l 1
 219.787 -402.78 262 -258.205 262 112 c 1
EndSplineSet
Colour: ffffff
EndChar

StartChar: q
Encoding: 82 113 81
Width: 789
VWidth: 1655
GlyphClass: 2
Flags: HMW
LayerCount: 2
Fore
SplineSet
609 -108 m 2
 600 -214 606 -239 647 -239 c 0
 712 -239 780 -178 807 -136 c 1
 839 -185 l 1
 775 -318 672 -385 531 -385 c 0
 460 -385 418 -320 418 -254 c 0
 418 -122.223 468.617 95.362 518 268 c 1
 505 268 l 1
 390 54 314 -26 212 -26 c 0
 89.9268 -26 58 111 58 244 c 0
 58 486 234 897 443 897 c 0
 501 897 543 863 571 792 c 1
 581 792 l 1
 617 865 697 908 742 895 c 1
 760 880 l 1
 626 103 l 1
 609 -108 l 2
549 505 m 1
 545 685 l 1
 521 733 483 772 414 772 c 0
 242 772 212 470 210 305 c 0
 210 227 221 129 264 129 c 0
 330 129 443.604 245.277 549 505 c 1
EndSplineSet
Colour: ffffff
EndChar

StartChar: r
Encoding: 83 114 82
Width: 687
VWidth: 1655
GlyphClass: 2
Flags: HMW
LayerCount: 2
Back
SplineSet
293 1180 m 5
 157 1208 l 5
 167 1281 l 5
 454 1304 l 5
 470 1283 l 5
 400 825 l 5
 337 564 l 5
 349 561 l 5
 418 727 544 890 649 890 c 132
 780.646 890 817.696 813.542 817.696 707.854 c 4
 817.696 520.505 701.542 265 701.542 168.56 c 4
 701.542 144.325 708.426 123 734 123 c 132
 798.568 123 865.924 195.91 893 246 c 5
 934 217 l 5
 881.209 80.7647 804.815 -23 633 -23 c 4
 556.116 -23 535.788 18.5564 535.788 74.8428 c 4
 535.788 186.991 646.819 455.082 646.819 636.39 c 4
 646.819 695.326 631.443 716 600 716 c 4
 438.756 716 384.746 520.89 344 346 c 5
 336.917 125.737 323.009 -39.8721 110 -19 c 5
 95 8 l 5
 195 434 l 5
 293 1180 l 5
EndSplineSet
Fore
SplineSet
352 345 m 129
 364 154 370.253 -42 143 -14 c 1
 129 13 l 1
 202 388 l 1
 203.136 431.034 208.611 551.448 208.611 640.982 c 0
 208.611 700.778 198.782 746.801 167.356 746.801 c 0
 129.958 746.801 53.8399 642.712 43 619 c 1
 -5 655 l 1
 35.764 757.682 130.946 899 264 899 c 0
 368.144 899 367 793 355 693 c 2
 322 430 l 1
 336 427 l 1
 394.649 607 438.162 866 581 866 c 0
 651.879 866 701 820.178 701 755 c 0
 701 695.247 676.049 649.978 655 641 c 1
 655 641 628.525 669 538 669 c 128
 482.959 669 424.122 557.694 352 345 c 129
EndSplineSet
Colour: ffffff
EndChar

StartChar: s
Encoding: 84 115 83
Width: 617
VWidth: 1655
GlyphClass: 2
Flags: HMW
LayerCount: 2
Fore
SplineSet
62 610 m 0
 62 768.838 229.039 897 410 897 c 0
 501.649 897 597 858.933 597 775 c 0
 597 717 565 675 501 648 c 1
 466.252 717.919 418.98 798 337 798 c 128
 253.72 798 189 749.205 189 686 c 0
 189 514 584.261 425.857 580 239 c 128
 576.301 66.6192 409.439 -35 232 -35 c 128
 137.204 -35 20 13.8529 20 99 c 128
 20 169.578 71.4909 225.302 135 233 c 1
 160.981 149.491 219.45 67 325 67 c 128
 388.708 67 433 99 433 171 c 1
 425.041 334.406 62 358 62 610 c 0
EndSplineSet
Colour: ffffff
EndChar

StartChar: t
Encoding: 85 116 84
Width: 591
VWidth: 1655
GlyphClass: 2
Flags: HMW
LayerCount: 2
Fore
SplineSet
295 151 m 0
 376 151 433.721 272.015 502 393 c 1
 551 355 l 1
 504.432 179.243 407.119 -23 217 -23 c 0
 46.5335 -23 96 168 123 354 c 2
 179 745 l 1
 67 758 l 1
 92 843 l 1
 189 854 l 1
 227 1032 l 1
 364 1051 l 1
 375 1038 l 1
 354 854 l 1
 571 850 l 1
 545 753 l 1
 338 745 l 1
 287 392 l 2
 270 274 246.144 151 295 151 c 0
EndSplineSet
Colour: ffffff
EndChar

StartChar: u
Encoding: 86 117 85
Width: 926
VWidth: 1655
GlyphClass: 2
Flags: HMW
LayerCount: 2
Fore
SplineSet
607 507 m 1
 610.372 724.675 640 923.467 835 895 c 1
 851 867 l 1
 751 484 l 1
 734 284 l 2
 726.963 212.225 705.128 123 769 123 c 128
 817.767 123 892.961 230.329 915 270 c 1
 956 242 l 1
 904 64 793 -24 661 -24 c 0
 538.691 -24 569.723 165.384 600 283 c 1
 589 285 l 1
 530.57 147.44 379.981 -26 241 -26 c 128
 142.746 -26 111.719 35.1223 111.719 116.13 c 0
 111.719 247 220.456 508 220.456 672.951 c 0
 220.456 707.846 212.942 736.828 186 738 c 0
 155 738 107 689 43 592 c 1
 -5 623 l 1
 37.8895 735.4 151.993 899 289 899 c 0
 378.539 899 404.093 844.69 404.093 770.309 c 0
 404.093 646 292.979 364 292.979 216.477 c 0
 292.979 180.227 305.95 150 352 150 c 0
 460 150 564.929 347.114 607 507 c 1
EndSplineSet
Colour: ffffff
EndChar

StartChar: v
Encoding: 87 118 86
Width: 828
VWidth: 1655
GlyphClass: 2
Flags: HMW
LayerCount: 2
Fore
SplineSet
336 400 m 2
 314.265 239.952 326.132 91 447 91 c 128
 601.117 91 656 378.888 656 545 c 0
 656 667 614 768 530 845 c 1
 561 879 597.988 896 641 896 c 128
 724 896 778 790.931 778 688 c 0
 778 389.45 649.118 -21 360 -21 c 0
 199.932 -21 147.358 123.904 177 349 c 2
 209 592 l 2
 221.147 684.244 224.819 735 182 735 c 128
 173.137 735 124 705 38 579 c 1
 -10 611 l 1
 35.957 722.188 153.26 887 292 887 c 1
 347 887 374 840 374 744 c 0
 374 719 365 631 347 481 c 2
 336 400 l 2
EndSplineSet
Colour: ffffff
EndChar

StartChar: w
Encoding: 88 119 87
Width: 1174
VWidth: 1655
GlyphClass: 2
Flags: HMW
LayerCount: 2
Fore
SplineSet
208 618 m 2
 221 675 245.424 760 204 760 c 0
 181 760 125 709 36 607 c 1
 -5 637 l 1
 51.0205 744.686 180.616 913 316 913 c 0
 378.558 913 398.64 876.628 398.64 822.849 c 0
 398.64 678 287 442 287 249 c 0
 287 161 321 117 388 116 c 1
 517 116 565.921 296.592 586 484 c 1
 576.629 676.097 569.806 859.024 762 835 c 1
 773 817 l 1
 714 456 l 1
 707 300 700.482 106 819 106 c 0
 962.105 106 1007 370.832 1007 534 c 0
 1007 654.286 955.216 781.213 907 858 c 1
 944 886 979 900 1014 900 c 128
 1099.3 900 1129 774.214 1129 676 c 128
 1129 384.688 989 -24 718 -24 c 0
 609.033 -24 579 56.9082 579 193 c 1
 566 195 l 1
 526.322 75.9668 432.335 -26 285 -26 c 0
 177 -26 123 42 123 178 c 0
 123 225 128.085 268.209 147 351 c 2
 208 618 l 2
EndSplineSet
Colour: ffffff
EndChar

StartChar: x
Encoding: 89 120 88
Width: 896
VWidth: 1655
GlyphClass: 2
Flags: HMW
LayerCount: 2
Fore
SplineSet
412 312 m 1
 311 83.3929 214 -31.9405 121 -34 c 0
 88 -34 63 -24 46 -4 c 128
 29 16 20 41 20 70 c 0
 20 127 36 170 68 197 c 1
 97 171 131 158 170 158 c 0
 243 158 312 239 377 401 c 1
 352.286 502 283.801 731 204 731 c 0
 182 731 146 685 97 592 c 1
 50 629 l 1
 112 798 195 882 300 882 c 0
 424.39 882 479.122 674 504 542 c 1
 548 641.161 594 721.798 643 785 c 128
 692 843 733 871 768 871 c 128
 803 871 829 863 848 846 c 128
 867 829 876 810 876 786 c 0
 876 733 861 690 830 657 c 1
 810 675 778 683 731 683 c 0
 660 683 593 614 532 474 c 1
 546 394 616.445 113 673 113 c 128
 691 113 711 124 735 146 c 128
 759 168 782 198 804 237 c 1
 847 207 l 1
 790 54 703 -23 586 -23 c 0
 475.921 -23 432 190 412 312 c 1
EndSplineSet
Colour: ffffff
EndChar

StartChar: y
Encoding: 90 121 89
Width: 852
VWidth: 1655
GlyphClass: 2
Flags: HMW
LayerCount: 2
Fore
SplineSet
49 662 m 1
 0 699 l 1
 35.5059 779.862 134.636 902 255 902 c 128
 461.952 902 453 318 435 154 c 1
 444 154 l 1
 575.27 278.186 638 419.07 638 585 c 128
 638 714 558 813 503 848 c 1
 525.986 876.29 579.283 906 629 906 c 0
 723.412 906 794 822 794 677 c 0
 794 435 637.027 231.521 431 56 c 1
 409.395 -138.09 296.003 -381 98 -381 c 128
 8.2675 -381 -68 -339.494 -68 -254 c 0
 -60.0814 -193.545 -42.7372 -173.45 7 -141 c 1
 54.6225 -189 102.236 -212 148 -212 c 128
 266.389 -212 295.569 -168.925 295.569 -42.8711 c 0
 295.569 171 259.881 748 175 748 c 128
 123.776 748 72.4083 689.956 49 662 c 1
EndSplineSet
Colour: ffffff
EndChar

StartChar: z
Encoding: 91 122 90
Width: 778
VWidth: 1655
GlyphClass: 2
Flags: HMW
LayerCount: 2
Fore
SplineSet
594 858 m 0
 666.92 858 728.216 866 780 883 c 1
 798 855 l 1
 454 414 l 5
 250 113 l 1
 344.399 143.251 431.205 56 509 56 c 0
 554.819 56 576.738 86.0223 579 129 c 128
 581.253 171.803 557.609 269.623 546 303 c 1
 578 319 607 327 633 327 c 0
 693.706 327 734 289.897 734 227 c 0
 734 102.251 612.667 -13 474 -13 c 0
 403.741 -13 285.953 16 163 16 c 128
 120 16 75 10 29 -2 c 1
 10 26 l 1
 294 395 l 5
 558 765 l 1
 458.285 749.048 387.127 815 300 815 c 0
 257 815 234 776 230 699 c 0
 230 657.05 231.776 621.528 239 583 c 1
 158.193 552.697 62 595.498 62 681 c 128
 62 792.397 187 877 323 877 c 0
 407.377 877 493.903 859.43 594 858 c 0
EndSplineSet
Colour: ffffff
EndChar

StartChar: braceleft
Encoding: 92 123 91
Width: 667
VWidth: 1655
GlyphClass: 2
Flags: HMW
LayerCount: 2
Fore
SplineSet
457 -280 m 1
 453 -381 l 1
 348 -381 l 2
 277 -381 226 -361 196 -321 c 128
 166 -281 151 -220 151 -139 c 0
 151 -108 155 -53 164 25 c 128
 173 103 176 160 176 199 c 0
 176 311 140 373 69 385 c 2
 17 393 l 1
 30 492 l 1
 81 500 l 2
 126 508 162 531 190 572 c 128
 218 613 236 662 246 721 c 0
 269 874 291 993 312 1080 c 0
 327 1136 355 1181 395 1215 c 128
 435 1249 486 1266 549 1266 c 2
 650 1266 l 1
 629 1164 l 1
 547 1158 l 2
 494 1153 460 1076 446 925 c 0
 441 880 439 853 437 843 c 128
 435 833 434 818 431 797 c 128
 428 776 426 762 424 752 c 128
 422 742 420 729 416 711 c 128
 412 693 409 680 405 669 c 128
 401 658 396 646 390 630 c 0
 355 532 297 471 216 448 c 1
 214 442 l 1
 302 415 346 331 347 191 c 0
 347 155 343 95 333 11 c 128
 323 -73 319 -129 319 -158 c 0
 319 -232 340 -271 383 -275 c 2
 457 -280 l 1
EndSplineSet
Colour: ffffff
EndChar

StartChar: bar
Encoding: 93 124 92
Width: 338
VWidth: 1655
GlyphClass: 2
Flags: HMW
LayerCount: 2
Fore
SplineSet
130 -355 m 1
 17 -343 l 1
 209 1229 l 1
 321 1218 l 1
 130 -355 l 1
EndSplineSet
Colour: ffffff
EndChar

StartChar: braceright
Encoding: 94 125 93
Width: 673
VWidth: 1655
GlyphClass: 2
Flags: HMW
LayerCount: 2
Fore
SplineSet
326 686 m 2
 326 706 l 2
 326 753 330 816 341 894 c 128
 352 972 357 1024 357 1053 c 0
 357 1120 339 1155 302 1158 c 2
 220 1164 l 1
 225 1266 l 1
 326 1266 l 2
 396 1266 446 1246 477 1205 c 128
 508 1164 523 1104 523 1026 c 0
 523 985 519 926 510 850 c 128
 501 774 498 722 498 693 c 0
 498 578 535 514 608 500 c 2
 655 492 l 1
 643 393 l 1
 590 385 l 2
 547 377 511 354 484 314 c 128
 457 274 440 224 432 165 c 0
 409 11 386 -109 363 -195 c 0
 347 -252 320 -296 278 -330 c 128
 236 -364 183 -381 120 -381 c 2
 17 -381 l 1
 39 -280 l 1
 113 -275 l 1
 172 -270 209 -192 227 -40 c 1
 245 107 260 200 276 239 c 128
 292 278 306 311 322 336 c 0
 357 390 402 425 459 442 c 1
 459 448 l 1
 370 473 326 552 326 686 c 2
EndSplineSet
Colour: ffffff
EndChar

StartChar: asciitilde
Encoding: 95 126 94
Width: 860
VWidth: 1655
GlyphClass: 2
Flags: HMW
LayerCount: 2
Fore
SplineSet
21 416 m 1
 23 423 26 430 31 440 c 0
 63 514 104 566 154 595 c 0
 177 609 200 616 224 616 c 2
 230 616 l 1
 232 614 234 614 238 615 c 2
 680 571 l 1
 685 571 l 2
 706 571 731 586 760 616 c 2
 775 631 l 1
 840 631 l 1
 833 611 822 589 806 562 c 128
 790 535 774 513 758 495 c 128
 742 477 724 462 701 448 c 128
 678 434 654 427 631 427 c 2
 615 427 l 1
 171 472 l 1
 166 472 l 2
 142 472 116 455 88 421 c 1
 74 402 l 1
 21 416 l 1
EndSplineSet
Colour: ffffff
EndChar

StartChar: exclamdown
Encoding: 97 161 96
Width: 341
VWidth: 1655
GlyphClass: 2
Flags: HMW
LayerCount: 2
Fore
SplineSet
281.767 -296 m 1
 250.767 -318 214.767 -329 173.767 -328 c 128
 132.767 -327 99.7666 -316 73.7666 -293 c 128
 47.7666 -270 30.7666 -236 22.7666 -191 c 1
 17.7666 -171 15.7666 -149 17.7666 -123 c 0
 17.7666 -48 35.7666 81 70.7666 263 c 1
 146.767 623 l 1
 217.767 636 l 1
 206.767 467 l 2
 200.767 381 198.767 275 198.767 150 c 2
 198.767 88 l 1
 203.767 -61 230.767 -189 281.767 -296 c 1
152.767 755 m 128
 141.767 761 131.767 770 120.767 783 c 128
 109.767 796 105.767 807 102.767 818 c 128
 99.7666 829 98.7666 836 98.7666 841 c 128
 98.7666 846 100.767 861 106.767 888 c 128
 112.767 915 126.767 939 149.767 962 c 128
 172.767 985 199.767 996 229.767 996 c 1
 256.767 994 276.767 985 292.767 969 c 128
 308.767 953 316.767 937 319.767 919 c 128
 322.767 901 323.767 892 323.767 890 c 128
 323.767 888 322.767 876 317.767 853 c 128
 312.767 830 299.767 808 276.767 785 c 128
 253.767 762 230.767 749 206.767 748 c 128
 182.767 747 163.767 749 152.767 755 c 128
EndSplineSet
Colour: ffffff
EndChar

StartChar: cent
Encoding: 98 162 97
Width: 652
VWidth: 0
GlyphClass: 2
Flags: HMW
LayerCount: 2
Fore
SplineSet
341 92 m 3
 424 92 474 122 524 157 c 1
 548 106 l 1
 487 30 377 -30 280 -30 c 3
 118 -30 17 92 17 307 c 0
 17 674 295 900 467 900 c 3
 574 900 635 842 635 756 c 27
 635 687 570 649 496 642 c 1
 491 710 473 806 417 806 c 3
 320 806 189 621 189 330 c 0
 189 191 234 92 341 92 c 3
422.595 1114 m 1
 571.275 1131 l 1
 505.011 863 l 1
 414.011 863 l 1
 422.595 1114 l 1
150.05 -266 m 1
 218 0 l 1
 307 0 l 1
 300.573 -250 l 1
 150.05 -266 l 1
EndSplineSet
Colour: ffffff
EndChar

StartChar: sterling
Encoding: 99 163 98
Width: 1080
VWidth: 1655
GlyphClass: 2
Flags: HMW
LayerCount: 2
Fore
SplineSet
939 877 m 1
 859 890 l 1
 841 1099 l 1
 814 1115 788 1122 761 1122 c 0
 682 1122 626 1092 595 1032 c 1
 561 971 532 857 507 690 c 1
 500 643 l 1
 719 655 l 1
 696 557 l 1
 489 543 l 1
 482 505 l 1
 455 309 417 173 370 98 c 1
 823 94 l 1
 981 341 l 1
 1063 323 l 1
 986 0 l 1
 17 0 l 1
 36 73 l 1
 201 118 l 1
 230 183 258 294 283 451 c 1
 293 537 l 1
 117 527 l 1
 143 627 l 1
 310 636 l 1
 329 770 l 1
 352 918 403 1031 484 1108 c 128
 565 1185 666 1224 784 1224 c 0
 874 1224 949 1211 1009 1186 c 1
 939 877 l 1
EndSplineSet
Colour: ffffff
EndChar

StartChar: currency
Encoding: 100 164 99
Width: 695
VWidth: 1655
GlyphClass: 2
Flags: HMW
LayerCount: 2
Fore
SplineSet
500 512 m 0
 500 557 488 592 463 618 c 128
 438 644 404 657 360 657 c 128
 316 657 278 641 247 609 c 0
 208 570 189 523 189 468 c 128
 189 413 200 373 224 347 c 128
 248 321 282 308 325 308 c 0
 368 307 406 323 439 354 c 0
 480 393 500 445 500 512 c 0
605 514 m 0
 605 442 584 382 542 334 c 1
 625 251 l 1
 528 170 l 1
 462 259 l 1
 406 228 356 212 310 212 c 128
 264 212 220 226 178 253 c 1
 91 165 l 1
 19 249 l 1
 110 325 l 1
 92 358 84 403 84 460 c 128
 84 517 103 568 140 615 c 1
 64 699 l 1
 157 780 l 1
 219 695 l 1
 272 734 327 753 382 752 c 0
 437 752 484 736 525 704 c 1
 614 781 l 1
 676 696 l 1
 584 623 l 1
 598 593 605 557 605 514 c 0
EndSplineSet
Colour: ffffff
EndChar

StartChar: yen
Encoding: 101 165 100
Width: 1078
VWidth: 1655
GlyphClass: 2
Flags: HMW
LayerCount: 2
Fore
SplineSet
358 484 m 1
 51 484 l 1
 74 583 l 1
 341 583 l 1
 160 1133 l 1
 32 1176 l 1
 53 1252 l 1
 518 1252 l 1
 495 1176 l 1
 357 1137 l 1
 514 641 l 1
 795 1133 l 1
 641 1176 l 1
 662 1252 l 1
 1061 1252 l 1
 1041 1176 l 1
 913 1137 l 1
 588 583 l 1
 890 583 l 1
 867 484 l 1
 549 484 l 1
 529 339 l 1
 857 339 l 1
 834 242 l 1
 519 242 l 1
 502 113 l 1
 662 78 l 1
 643 0 l 1
 138 0 l 1
 158 72 l 1
 316 120 l 1
 329 242 l 1
 17 242 l 1
 42 339 l 1
 341 339 l 1
 358 484 l 1
EndSplineSet
Colour: ffffff
EndChar

StartChar: brokenbar
Encoding: 102 166 101
Width: 333
VWidth: 1655
GlyphClass: 2
Flags: HMW
LayerCount: 2
Fore
SplineSet
17 -343 m 1
 111 423 l 1
 218 411 l 1
 124 -355 l 1
 17 -343 l 1
123 529 m 1
 209 1229 l 1
 316 1218 l 1
 224 517 l 1
 123 529 l 1
EndSplineSet
Colour: ffffff
EndChar

StartChar: section
Encoding: 103 167 102
Width: 948
VWidth: 1655
GlyphClass: 2
Flags: HMW
LayerCount: 2
Fore
SplineSet
866.393 832 m 1
 778.393 851 l 1
 771.393 1101 l 1
 739.393 1144 699.393 1170 652.393 1179 c 1
 639.393 1183 626.393 1184 612.393 1184 c 0
 566.393 1184 525.393 1169 487.393 1139 c 128
 449.393 1109 429.393 1068 425.393 1016 c 1
 425.393 1005 l 2
 425.393 956 438.393 914 463.393 878 c 128
 488.393 842 532.393 799 594.393 749 c 128
 656.393 699 705.393 658 742.393 623 c 128
 779.393 588 810.393 552 837.393 513 c 128
 864.393 474 881.393 429 888.393 376 c 1
 890.393 371 891.393 353 890.393 322 c 128
 889.393 291 881.393 258 864.393 225 c 1
 544.393 493 l 1
 439.393 577 361.393 650 310.393 712 c 128
 259.393 774 233.393 839 233.393 906 c 0
 233.393 911 233.393 914 234.393 918 c 1
 234.393 928 l 1
 238.393 969 249.393 1007 269.393 1043 c 0
 304.393 1109 354.393 1163 421.393 1206 c 128
 488.393 1249 558.393 1272 633.393 1278 c 1
 657.393 1278 l 2
 762.393 1278 854.393 1245 931.393 1178 c 1
 866.393 832 l 1
275.393 46 m 1
 255.393 -7 245.393 -56 246.393 -99 c 0
 246.393 -166 268.393 -214 313.393 -241 c 1
 342.393 -264 378.393 -276 421.393 -277 c 128
 464.393 -278 503.393 -266 538.393 -244 c 128
 573.393 -222 597.393 -191 612.393 -150 c 1
 620.393 -131 624.393 -110 622.393 -86 c 0
 622.393 -29 601.393 22 559.393 67 c 1
 547.393 81 506.393 117 433.393 176 c 128
 360.393 235 301.393 291 254.393 346 c 1
 222.393 386 200.393 421 187.393 452 c 128
 174.393 483 169.393 508 169.393 528 c 128
 169.393 548 169.393 558 170.393 561 c 1
 170.393 574 l 1
 174.393 607 182.393 641 197.393 676 c 1
 506.393 414 662.393 281 666.393 277 c 0
 715.393 232 752.393 191 777.393 152 c 128
 802.393 113 816.393 68 821.393 19 c 1
 823.393 14 823.393 4 823.393 -12 c 0
 823.393 -95 792.393 -170 729.393 -237 c 0
 683.393 -286 628.393 -322 564.393 -345 c 128
 500.393 -368 439.393 -380 381.393 -380 c 0
 277.393 -380 192.393 -356 125.393 -307 c 1
 96.3926 -288 72.3926 -263 52.3926 -231 c 128
 32.3926 -199 22.3926 -172 19.3926 -149 c 1
 17.3926 -145 16.3926 -137 17.3926 -123 c 128
 18.3926 -109 20.3926 -92 25.3926 -72 c 1
 42.3926 -20 77.3926 17 130.393 39 c 1
 153.393 50 178.393 55 204.393 56 c 128
 230.393 57 254.393 53 275.393 46 c 1
EndSplineSet
Colour: ffffff
EndChar

StartChar: dieresis
Encoding: 104 168 103
Width: 512
VWidth: 1655
GlyphClass: 2
Flags: HMW
LayerCount: 2
Fore
SplineSet
446 1490 m 128
 463 1475 471 1457 471 1435 c 128
 471 1413 463 1393 446 1378 c 128
 429 1363 409 1356 386 1356 c 128
 363 1356 345 1363 328 1378 c 128
 311 1393 303 1412 303 1435 c 128
 303 1458 311 1475 328 1490 c 128
 345 1505 363 1512 386 1512 c 128
 409 1512 429 1505 446 1490 c 128
184 1490 m 128
 201 1475 208 1457 208 1434 c 128
 208 1411 201 1393 184 1378 c 128
 167 1363 147 1356 124 1356 c 128
 101 1356 83 1363 66 1378 c 128
 49 1393 41 1412 41 1435 c 128
 41 1458 49 1475 66 1490 c 128
 83 1505 101 1512 124 1512 c 128
 147 1512 167 1505 184 1490 c 128
EndSplineSet
Colour: ffffff
EndChar

StartChar: copyright
Encoding: 105 169 104
Width: 1289
VWidth: 1655
GlyphClass: 2
Flags: HMW
LayerCount: 2
Fore
SplineSet
500 421 m 128
 549 366 615 338 697 338 c 128
 779 338 849 361 907 408 c 1
 916 399 925 383 935 360 c 1
 858 286 763 249 651 249 c 0
 583 249 521 264 466 294 c 128
 411 324 366 367 332 425 c 128
 298 483 282 548 282 623 c 0
 282 771 340 886 456 971 c 1
 520 1016 596 1039 684 1038 c 128
 772 1037 843 1016 897 975 c 1
 881 780 l 1
 828 786 l 1
 806 916 l 1
 778 951 728 968 655 967 c 128
 582 966 525 940 485 886 c 128
 445 832 426 756 426 655 c 128
 426 554 451 476 500 421 c 128
630 -28 m 128
 542 -28 459 -11 383 22 c 128
 307 55 242 101 189 158 c 128
 136 215 94 284 64 364 c 128
 34 444 18 531 18 622 c 128
 18 713 35 800 69 882 c 128
 103 964 147 1035 204 1093 c 128
 261 1151 328 1198 404 1233 c 128
 480 1268 562 1285 652 1285 c 128
 742 1285 828 1267 909 1232 c 128
 990 1197 1057 1149 1111 1087 c 1
 1219 958 1273 804 1272 625 c 0
 1272 539 1256 455 1222 375 c 128
 1188 295 1143 226 1087 167 c 128
 1031 108 962 62 882 26 c 128
 802 -10 718 -28 630 -28 c 128
204 908 m 128
 160 824 139 730 139 627 c 128
 139 524 160 430 203 346 c 128
 246 262 304 196 380 149 c 128
 456 102 535 78 618 78 c 128
 701 78 775 91 838 118 c 128
 901 145 956 182 1002 230 c 128
 1048 278 1084 335 1111 402 c 128
 1138 469 1152 540 1152 615 c 0
 1152 767 1111 898 1030 1008 c 0
 989 1063 934 1106 866 1137 c 128
 798 1168 720 1184 633 1184 c 128
 546 1184 463 1159 386 1109 c 128
 309 1059 248 992 204 908 c 128
EndSplineSet
Colour: ffffff
EndChar

StartChar: ordfeminine
Encoding: 106 170 105
Width: 701
VWidth: 0
GlyphClass: 2
Flags: HMW
LayerCount: 2
Fore
SplineSet
435.787 932 m 1
 441.172 966 l 2
 457.777 1074 464.919 1169.6 362.97 1169.6 c 0
 292.919 1169.6 272.113 1114 238.21 977.6 c 1
 157.306 970 115.673 1004 115.673 1066 c 0
 115.673 1168 317.237 1254 434.537 1254 c 0
 585.837 1254 632.091 1177 605.588 1008.4 c 2
 564.345 748 l 2
 552.688 674.4 568.306 648 641.615 634.8 c 2
 682.975 627.6 l 1
 662.137 565.8 l 1
 615.458 529 589.369 519.6 539.22 519.6 c 0
 431.19 519.6 397.447 582.606 406.349 638.8 c 1
 396.999 638.8 l 1
 367.333 596.4 303.86 514.8 164.459 514.8 c 0
 83.7344 514.8 20 573.613 20 654.585 c 0
 20 796.262 148.046 932 435.787 932 c 1
197.12 700.979 m 0
 197.12 665.387 215.447 631.2 269.611 631.2 c 0
 329.111 631.2 367.417 679.8 400.155 709.4 c 1
 425.506 874.4 l 1
 266.878 846.688 197.12 793.795 197.12 700.979 c 0
EndSplineSet
Colour: ffffff
EndChar

StartChar: guillemotleft
Encoding: 107 171 106
Width: 645
VWidth: 0
GlyphClass: 2
Flags: HMW
LayerCount: 2
Fore
SplineSet
268 469 m 5
 592 821 l 5
 627 761 l 5
 414 461 l 5
 531 140 l 5
 468 78 l 5
 267 449 l 5
 268 469 l 5
21 469 m 5
 344 821 l 5
 379 761 l 5
 166 461 l 5
 283 140 l 5
 220 78 l 5
 19 449 l 5
 21 469 l 5
EndSplineSet
Colour: ffffff
EndChar

StartChar: logicalnot
Encoding: 108 172 107
Width: 816
VWidth: 0
GlyphClass: 2
Flags: HMW
LayerCount: 2
Fore
SplineSet
50 664 m 1
 795 664 l 1
 747 350 l 1
 638 332 l 1
 674 558 l 1
 22 558 l 1
 50 664 l 1
EndSplineSet
Colour: ffffff
EndChar

StartChar: softhyphen
Encoding: 109 173 108
Width: 489
VWidth: 0
GlyphClass: 2
Flags: HMW
LayerCount: 2
Fore
SplineSet
48 522 m 1
 466 581 l 1
 440 466 l 1
 22 406 l 1
 48 522 l 1
EndSplineSet
Colour: ffffff
EndChar

StartChar: registered
Encoding: 110 174 109
Width: 1010
VWidth: 0
GlyphClass: 2
Flags: HMW
LayerCount: 2
Fore
SplineSet
218.15 776.9 m 1
 224.9 824.601 l 1
 305 852.95 l 1
 305 1248.5 l 1
 223.55 1265.6 l 1
 228.5 1319.15 l 1
 294.2 1329.5 407.6 1341.2 474.2 1341.2 c 0
 626.75 1341.2 719 1304.3 719 1193.6 c 0
 719 1123.4 660.15 1051.3 593.55 1027.9 c 1
 592.9 1026 l 5
 670.5 935.2 l 2
 720.9 877 739.979 862.651 790.2 839.4 c 2
 806.4 831.9 l 1
 796.05 776.9 l 1
 776.7 770.601 745.5 766.101 714 766.101 c 0
 623.1 766.101 581.404 822.362 531.5 917.5 c 2
 487.7 1001 l 1
 431.9 1001 l 1
 431.9 857 l 1
 506.15 830.45 l 1
 501.2 776.9 l 1
 218.15 776.9 l 1
431.9 1068.5 m 1
 510.65 1068.5 l 1
 550.25 1085.6 582.2 1117.1 582.2 1170.2 c 0
 582.2 1232.75 539 1271.8 466.1 1271.8 c 0
 448.1 1271.8 434.6 1270.45 431.9 1270.45 c 1
 431.9 1068.5 l 1
18 1022.5 m 0
 18 1344 229 1522.5 497 1522.5 c 0
 773 1522.5 992 1352 992 1026.5 c 0
 992 716 769 540.5 487 540.5 c 0
 225 540.5 18 724 18 1022.5 c 0
106 1036.5 m 0
 106 776 277 616.5 495 616.5 c 0
 723 616.5 904 784 904 1016.5 c 0
 904 1280 723 1446.5 497 1446.5 c 0
 275 1446.5 106 1300 106 1036.5 c 0
EndSplineSet
Colour: ffffff
EndChar

StartChar: macron
Encoding: 111 175 110
Width: 527
VWidth: 1655
GlyphClass: 2
Flags: HMW
LayerCount: 2
Fore
SplineSet
54 1450 m 1
 486 1450 l 1
 473 1351 l 1
 41 1351 l 1
 54 1450 l 1
EndSplineSet
Colour: ffffff
EndChar

StartChar: degree
Encoding: 112 176 111
Width: 374
VWidth: 1655
GlyphClass: 2
Flags: HMW
LayerCount: 2
Fore
SplineSet
309 1243 m 128
 337 1213 350 1173 350 1125 c 128
 350 1077 334 1036 303 1002 c 128
 272 968 232 951 184 951 c 128
 136 951 98 966 69 996 c 128
 40 1026 26 1065 26 1114 c 128
 26 1163 43 1203 76 1237 c 128
 109 1271 150 1288 197 1288 c 128
 244 1288 281 1273 309 1243 c 128
120 1210 m 128
 105 1189 98 1160 98 1126 c 128
 98 1092 106 1062 123 1037 c 128
 140 1012 163 999 192 999 c 0
 251 999 280 1037 281 1113 c 0
 281 1150 272 1181 254 1205 c 128
 236 1229 213 1241 185 1241 c 128
 157 1241 135 1231 120 1210 c 128
EndSplineSet
Colour: ffffff
EndChar

StartChar: plusminus
Encoding: 113 177 112
Width: 699
VWidth: 0
GlyphClass: 2
Flags: HMW
LayerCount: 2
Fore
SplineSet
34.5273 117 m 1
 646.419 124 l 1
 629.891 20 l 1
 18 13 l 1
 34.5273 117 l 1
EndSplineSet
Refer: 11 43 S 1 0 -4.47035e-07 1 93.2296 81 2
Colour: ffffff
EndChar

StartChar: two.superior
Encoding: 114 178 113
Width: 670
VWidth: 0
GlyphClass: 2
Flags: HMW
LayerCount: 2
Fore
SplineSet
44.9463 638 m 1
 219.427 761 l 1
 356.842 860.438 445.742 928.414 445.742 1056.71 c 0
 445.742 1109.26 426.824 1153 355.514 1153 c 0
 306.514 1153 262.396 1127 242.328 1095 c 1
 199.896 966 l 1
 132.688 971 l 1
 144.614 1141 l 1
 197.809 1218 334.986 1257 435.986 1257 c 0
 573.925 1257 650.277 1201.73 650.277 1104.38 c 0
 650.277 922.489 460.202 804.898 277.132 696 c 2
 203.164 652 l 1
 473.164 652 l 1
 576.396 805 l 1
 630.071 784 l 1
 571 531 l 1
 20 531 l 1
 44.9463 638 l 1
EndSplineSet
Colour: ffffff
EndChar

StartChar: three.superior
Encoding: 115 179 114
Width: 642
VWidth: 0
GlyphClass: 2
Flags: HMW
LayerCount: 2
Fore
SplineSet
19 563 m 1
 80.5166 762 l 1
 154.251 754 l 1
 140.869 619 l 1
 155.543 598 190.534 579 233.534 579 c 0
 327.181 579 407.836 639.22 407.836 733.142 c 0
 407.836 797.666 336.164 849 223.298 849 c 1
 216.642 908 l 1
 271.352 924.291 428.06 975.102 428.06 1092.15 c 0
 428.06 1141.95 400.868 1189 338.148 1189 c 0
 307.148 1189 275.673 1186 251.664 1167 c 1
 202.798 1010 l 1
 127.748 1016 l 1
 142.831 1187 l 1
 180.801 1231 303.402 1279 406.402 1279 c 0
 531.11 1279 622.648 1231.21 622.648 1140.37 c 0
 622.648 1018.9 514.814 955.477 411.651 927 c 1
 410.543 920 l 1
 538.426 906.55 601.93 852.098 601.93 766.735 c 0
 601.93 604.157 409.867 495 216.229 495 c 0
 121.229 495 32.3477 521 19 563 c 1
EndSplineSet
Colour: ffffff
EndChar

StartChar: acute
Encoding: 116 180 115
Width: 310
VWidth: 1655
GlyphClass: 2
Flags: HMW
LayerCount: 2
Fore
SplineSet
270 1633 m 1
 90 1322 l 1
 40 1352 l 1
 159 1671 l 1
 270 1633 l 1
EndSplineSet
Colour: ffffff
EndChar

StartChar: micro
Encoding: 117 181 116
Width: 946
VWidth: 1655
GlyphClass: 2
Flags: HMW
LayerCount: 2
Fore
SplineSet
179 738 m 1
 48 792 l 1
 71 874 l 1
 343 895 l 1
 363 871 l 1
 295 317 l 2
 293 299 292 282 291 264 c 0
 291 159 336 107 426 106 c 0
 453 106 474 108 489 114 c 128
 504 120 514 123 521 125 c 128
 528 127 538 132 550 140 c 128
 562 148 569 152 573 154 c 0
 600 170 616 180 623 188 c 1
 689 734 l 1
 534 775 l 1
 555 867 l 1
 855 895 l 1
 871 871 l 1
 793 214 l 1
 790 178 l 1
 790 144 798 122 817 111 c 128
 836 100 858 94 885 88 c 1
 929 78 l 1
 909 -7 l 1
 852 -20 802 -26 758 -26 c 128
 714 -26 680 -15 658 7 c 128
 636 29 625 59 625 98 c 0
 625 103 625 106 627 108 c 1
 627 121 l 2
 627 123 627 123 628 125 c 1
 628 129 l 1
 616 129 l 1
 509 26 406 -26 307 -26 c 0
 245 -26 201 -4 175 39 c 1
 169 39 l 1
 169 -16 l 2
 169 -51 169 -74 167 -86 c 2
 147 -390 l 1
 17 -364 l 1
 80 -2 124 284 149 495 c 2
 179 738 l 1
EndSplineSet
Colour: ffffff
EndChar

StartChar: paragraph
Encoding: 118 182 117
Width: 1295
VWidth: 0
GlyphClass: 2
Flags: HMW
LayerCount: 2
Fore
SplineSet
533.112 1245 m 2
 879.114 1245 l 1
 681.924 0 l 1
 275.924 0 l 1
 294.645 74 l 1
 543.088 121 l 1
 706.383 1152 l 1
 666.541 1153 609.699 1154 599.699 1154 c 0
 367.019 1154 229.166 1039.23 229.166 816.553 c 0
 229.166 675.835 308.32 546 497.402 546 c 9
 463.88 448 l 1
 226.015 448 18 551.091 18 785.08 c 0
 18 1071.96 273.218 1245 533.112 1245 c 2
760.924 0 m 1
 958.114 1245 l 1
 1278.11 1245 l 1
 1256.91 1168 l 1
 1080.89 1130 l 1
 919.984 114 l 1
 1095.59 80 l 1
 1072.92 0 l 1
 760.924 0 l 1
EndSplineSet
Colour: ffffff
EndChar

StartChar: periodcentered
Encoding: 119 183 118
Width: 287
VWidth: 1655
GlyphClass: 2
Flags: HMW
LayerCount: 2
Fore
SplineSet
59 419 m 128
 35 444 23 473 23 507 c 128
 23 541 35 568 58 589 c 128
 81 610 110 620 143 620 c 128
 176 620 204 608 228 586 c 128
 252 564 264 537 264 504 c 128
 264 471 252 443 228 418 c 128
 204 393 176 381 143 381 c 128
 110 381 83 394 59 419 c 128
EndSplineSet
Colour: ffffff
EndChar

StartChar: cedilla
Encoding: 120 184 119
Width: 266
VWidth: 1655
GlyphClass: 2
Flags: HMW
LayerCount: 2
Fore
SplineSet
153 -75 m 1
 212 -126 241 -174 240 -221 c 0
 240 -290 175 -343 45 -381 c 1
 25 -323 l 1
 81 -303 109 -276 109 -242 c 0
 109 -215 85 -179 38 -134 c 1
 133 3 l 1
 207 3 l 1
 153 -75 l 1
EndSplineSet
Colour: ffffff
EndChar

StartChar: one.superior
Encoding: 121 185 120
Width: 541
VWidth: 0
GlyphClass: 2
Flags: HMW
LayerCount: 2
Fore
SplineSet
20 531 m 5
 35.7188 605 l 5
 192.679 630 l 5
 270.604 1122 l 5
 125.604 1122 l 5
 141.8 1199 l 5
 451.085 1245 l 5
 470.085 1245 l 5
 372.204 627 l 5
 522.145 614 l 5
 503 531 l 5
 20 531 l 5
EndSplineSet
Colour: ffffff
EndChar

StartChar: ordmasculine
Encoding: 122 186 121
Width: 759
VWidth: 0
GlyphClass: 2
Flags: HMW
LayerCount: 2
Fore
SplineSet
456.199 1258 m 0
 638.466 1258 740.084 1144.33 740.084 969.448 c 0
 740.084 697.528 536.487 514 317.961 514 c 0
 121.206 514 20 634.545 20 802.837 c 0
 20 1090.28 251.548 1258 456.199 1258 c 0
195.628 810.639 m 0
 195.628 691.238 223.446 593.6 349.152 593.6 c 0
 506.234 593.6 562.444 784.34 562.444 948.204 c 0
 562.444 1067.75 527.084 1175 407.195 1175 c 0
 244.511 1175 195.628 984.086 195.628 810.639 c 0
EndSplineSet
Colour: ffffff
EndChar

StartChar: onequarter
Encoding: 124 188 123
Width: 1344
VWidth: 0
GlyphClass: 2
Flags: HMW
LayerCount: 2
Fore
SplineSet
721 270 m 1
 1205 737 l 1
 1260 726 l 1
 1240 641 1222 542 1204 430 c 2
 1179 272 l 1
 1327 272 l 1
 1303 175 l 1
 1164 175 l 1
 1149 83 l 1
 1268 65 l 1
 1251 0 l 1
 837 0 l 1
 850 58 l 1
 991 85 l 1
 1006 178 l 1
 719 178 l 1
 721 270 l 1
828 272 m 1
 1018 272 l 1
 1056 508 l 1
 828 272 l 1
17 531 m 1
 33 605 l 1
 190 630 l 1
 268 1122 l 1
 123 1122 l 1
 139 1199 l 1
 448 1245 l 1
 467 1245 l 1
 370 627 l 1
 519 614 l 1
 500 531 l 1
 17 531 l 1
143 -10 m 1
 644 588 l 1
 1134 1210 l 1
 1309 1207 l 1
 1303 1178 l 1
 809 591 l 1
 339 -32 l 1
 143 -10 l 1
EndSplineSet
Colour: ffffff
EndChar

StartChar: onehalf
Encoding: 125 189 124
Width: 1417
VWidth: 0
GlyphClass: 2
Flags: HMW
LayerCount: 2
Fore
SplineSet
794 109 m 1
 969 232 l 2
 1003 256 1028 276 1046 290 c 128
 1064 304 1085 320 1107 341 c 128
 1129 362 1145 381 1156 398 c 128
 1167 415 1176 433 1184 456 c 128
 1192 479 1195 503 1195 528 c 0
 1195 592 1165 624 1105 624 c 0
 1081 624 1059 618 1038 607 c 128
 1017 596 1002 583 991 566 c 1
 949 437 l 1
 882 442 l 1
 894 612 l 1
 919 648 960 676 1017 697 c 128
 1074 718 1130 728 1185 728 c 0
 1254 728 1307 715 1344 688 c 128
 1381 661 1400 624 1400 575 c 0
 1400 550 1396 526 1388 501 c 128
 1380 476 1370 454 1358 434 c 128
 1346 414 1331 394 1310 372 c 128
 1289 350 1269 333 1251 317 c 128
 1233 301 1209 284 1180 264 c 128
 1151 244 1125 228 1105 215 c 128
 1085 202 1060 187 1027 167 c 2
 952 123 l 1
 1222 123 l 1
 1326 276 l 1
 1379 255 l 1
 1320 2 l 1
 770 2 l 1
 794 109 l 1
17 531 m 1
 33 605 l 1
 190 630 l 1
 268 1122 l 1
 123 1122 l 1
 139 1199 l 1
 448 1245 l 1
 467 1245 l 1
 370 627 l 1
 519 614 l 1
 500 531 l 1
 17 531 l 1
123 -10 m 1
 624 588 l 1
 1114 1210 l 1
 1289 1207 l 1
 1283 1178 l 1
 789 591 l 1
 319 -32 l 1
 123 -10 l 1
EndSplineSet
Colour: ffffff
EndChar

StartChar: threequarters
Encoding: 126 190 125
Width: 1320
VWidth: 0
GlyphClass: 2
Flags: HMW
LayerCount: 2
Fore
SplineSet
17 546 m 5
 78 745 l 5
 152 737 l 5
 138 602 l 5
 146 591 158 582 175 574 c 132
 192 566 210 562 231 562 c 4
 279 562 321 576 355 605 c 132
 389 634 405 670 405 716 c 4
 405 749 389 777 355 799 c 132
 321 821 276 832 221 832 c 5
 214 891 l 5
 230 896 244 900 258 905 c 132
 272 910 289 918 311 929 c 132
 333 940 353 951 368 964 c 132
 383 977 396 992 408 1012 c 132
 420 1032 425 1053 425 1075 c 4
 425 1102 418 1125 403 1144 c 132
 388 1163 365 1172 335 1172 c 4
 296 1172 268 1165 249 1150 c 5
 200 993 l 5
 125 999 l 5
 140 1170 l 5
 160 1193 197 1214 250 1233 c 132
 303 1252 354 1262 404 1262 c 4
 468 1262 520 1250 560 1226 c 132
 600 1202 620 1167 620 1123 c 4
 620 1094 614 1067 602 1043 c 132
 590 1019 574 998 553 981 c 132
 532 964 510 951 486 939 c 132
 462 927 437 918 409 910 c 5
 408 903 l 5
 471 896 519 880 551 854 c 132
 583 828 600 793 600 750 c 4
 600 698 581 650 543 608 c 132
 505 566 457 534 399 512 c 132
 341 490 278 478 213 478 c 4
 164 478 121 484 83 497 c 132
 45 510 24 525 17 546 c 5
132 -10 m 5
 634 588 l 5
 1124 1210 l 5
 1299 1207 l 5
 1293 1178 l 5
 799 591 l 5
 329 -32 l 5
 132 -10 l 5
697 270 m 5
 1181 737 l 5
 1236 726 l 5
 1216 641 1198 542 1180 430 c 6
 1155 272 l 5
 1303 272 l 5
 1279 175 l 5
 1140 175 l 5
 1125 83 l 5
 1244 65 l 5
 1227 0 l 5
 813 0 l 5
 826 58 l 5
 967 85 l 5
 982 178 l 5
 695 178 l 5
 697 270 l 5
804 272 m 5
 994 272 l 5
 1032 508 l 5
 804 272 l 5
EndSplineSet
Colour: ffffff
EndChar

StartChar: questiondown
Encoding: 127 191 126
Width: 585
VWidth: 1655
GlyphClass: 2
Flags: HMW
LayerCount: 2
Fore
SplineSet
364 778 m 1
 354 791 350 802 347 813 c 128
 344 824 343 831 343 836 c 128
 343 841 345 857 351 884 c 128
 357 911 371 937 394 959 c 128
 417 981 443 992 474 992 c 1
 501 990 521 981 536 964 c 128
 551 947 560 932 563 914 c 128
 566 896 568 887 568 885 c 128
 568 883 566 871 561 848 c 128
 556 825 543 803 520 780 c 128
 497 757 474 745 450 744 c 128
 426 743 410 745 399 750 c 128
 388 755 377 764 364 778 c 1
488 453 m 1
 493 401 l 1
 493 361 481 326 458 295 c 128
 435 264 413 241 389 225 c 128
 365 209 334 195 297 180 c 128
 260 165 232 152 214 141 c 128
 196 130 177 113 158 91 c 128
 139 69 128 43 124 14 c 1
 124 7 l 1
 122 3 122 1 123 -3 c 0
 123 -56 147 -101 195 -136 c 1
 215 -149 237 -156 260 -160 c 1
 270 -160 l 1
 272 -162 277 -162 285 -162 c 128
 293 -162 310 -159 336 -151 c 0
 395 -135 438 -114 464 -89 c 1
 475 -94 485 -101 495 -113 c 1
 513 -133 521 -151 521 -169 c 128
 521 -187 521 -196 519 -200 c 1
 511 -248 480 -285 425 -311 c 0
 393 -327 359 -334 324 -334 c 2
 302 -334 l 1
 243 -330 192 -312 148 -278 c 128
 104 -244 71 -199 49 -146 c 128
 27 -93 17 -44 17 -1 c 128
 17 42 19 73 24 93 c 0
 37 156 70 211 124 258 c 1
 155 283 177 299 192 305 c 0
 215 315 229 319 234 321 c 128
 239 323 244 325 251 328 c 128
 258 331 261 331 263 332 c 128
 265 333 268 334 274 337 c 128
 280 340 282 341 285 343 c 128
 289 345 289 345 296 349 c 128
 301 352 304 353 307 355 c 128
 310 357 313 359 317 362 c 0
 327 370 336 380 347 392 c 0
 365 412 374 443 374 484 c 2
 374 505 l 1
 372 512 372 517 372 521 c 128
 372 525 371 542 368 571 c 1
 444 587 l 1
 468 528 482 484 488 453 c 1
EndSplineSet
Colour: ffffff
EndChar

StartChar: Agrave
Encoding: 128 192 127
Width: 1273
VWidth: 1655
GlyphClass: 2
Flags: HMW
LayerCount: 2
Fore
SplineSet
812 505 m 1
 724 1062 l 1
 720 1062 l 1
 623 724 l 1
 594 627 574 564 564 536 c 1
 812 505 l 1
866 1271 m 1
 1076 132 l 1
 1254 81 l 1
 1231 0 l 1
 655 0 l 1
 678 72 l 1
 876 108 l 1
 825 430 l 1
 533 446 l 1
 484 310 443 215 410 157 c 128
 377 99 347 56 319 29 c 128
 291 2 256 -16 217 -24 c 1
 199 -26 190 -27 186 -28 c 0
 148 -28 113 -16 81 8 c 128
 49 32 26 62 13 101 c 1
 63 120 108 142 147 168 c 1
 216 213 280 274 339 349 c 0
 416 450 489 596 558 786 c 1
 613 947 657 1098 688 1241 c 1
 866 1271 l 1
587 1655 m 1
 701 1693 l 1
 830 1365 l 1
 773 1332 l 1
 587 1655 l 1
EndSplineSet
Colour: ffffff
EndChar

StartChar: Aacute
Encoding: 129 193 128
Width: 1273
VWidth: 1655
GlyphClass: 2
Flags: HMW
LayerCount: 2
Fore
SplineSet
812 505 m 1
 724 1062 l 1
 720 1062 l 1
 623 724 l 1
 594 627 574 564 564 536 c 1
 812 505 l 1
866 1271 m 1
 1076 132 l 1
 1254 81 l 1
 1231 0 l 1
 655 0 l 1
 678 72 l 1
 876 108 l 1
 825 430 l 1
 533 446 l 1
 484 310 443 215 410 157 c 128
 377 99 347 56 319 29 c 128
 291 2 256 -16 217 -24 c 1
 199 -26 190 -27 186 -28 c 0
 148 -28 113 -16 81 8 c 128
 49 32 26 62 13 101 c 1
 63 120 108 142 147 168 c 1
 216 213 280 274 339 349 c 0
 416 450 489 596 558 786 c 1
 613 947 657 1098 688 1241 c 1
 866 1271 l 1
1008 1661 m 1
 829 1351 l 1
 778 1382 l 1
 899 1701 l 1
 1008 1661 l 1
EndSplineSet
Colour: ffffff
EndChar

StartChar: Acircumflex
Encoding: 130 194 129
Width: 1273
VWidth: 1655
GlyphClass: 2
Flags: HMW
LayerCount: 2
Fore
SplineSet
812 505 m 1
 724 1062 l 1
 720 1062 l 1
 623 724 l 1
 594 627 574 564 564 536 c 1
 812 505 l 1
866 1271 m 1
 1076 132 l 1
 1254 81 l 1
 1231 0 l 1
 655 0 l 1
 678 72 l 1
 876 108 l 1
 825 430 l 1
 533 446 l 1
 484 310 443 215 410 157 c 128
 377 99 347 56 319 29 c 128
 291 2 256 -16 217 -24 c 1
 199 -26 190 -27 186 -28 c 0
 148 -28 113 -16 81 8 c 128
 49 32 26 62 13 101 c 1
 63 120 108 142 147 168 c 1
 216 213 280 274 339 349 c 0
 416 450 489 596 558 786 c 1
 613 947 657 1098 688 1241 c 1
 866 1271 l 1
809 1577 m 1
 984 1396 l 1
 936 1361 l 1
 775 1468 l 1
 765 1468 l 1
 627 1359 l 1
 590 1388 l 1
 756 1564 l 1
 809 1577 l 1
EndSplineSet
Colour: ffffff
EndChar

StartChar: Atilde
Encoding: 131 195 130
Width: 1273
VWidth: 1655
GlyphClass: 2
Flags: HMW
LayerCount: 2
Fore
SplineSet
812 505 m 1
 724 1062 l 1
 720 1062 l 1
 623 724 l 1
 594 627 574 564 564 536 c 1
 812 505 l 1
866 1271 m 1
 1076 132 l 1
 1254 81 l 1
 1231 0 l 1
 655 0 l 1
 678 72 l 1
 876 108 l 1
 825 430 l 1
 533 446 l 1
 484 310 443 215 410 157 c 128
 377 99 347 56 319 29 c 128
 291 2 256 -16 217 -24 c 1
 199 -26 190 -27 186 -28 c 0
 148 -28 113 -16 81 8 c 128
 49 32 26 62 13 101 c 1
 63 120 108 142 147 168 c 1
 216 213 280 274 339 349 c 0
 416 450 489 596 558 786 c 1
 613 947 657 1098 688 1241 c 1
 866 1271 l 1
655 1419 m 2
 638 1419 619 1403 597 1372 c 1
 559 1380 l 1
 561 1387 564 1397 568 1411 c 128
 572 1425 580 1441 594 1462 c 0
 619 1501 647 1521 680 1522 c 2
 687 1522 l 1
 689 1520 691 1520 693 1520 c 2
 911 1490 l 1
 915 1490 l 2
 929 1490 947 1504 969 1531 c 1
 1017 1529 l 1
 986 1435 943 1388 889 1388 c 2
 878 1388 l 1
 659 1419 l 1
 655 1419 l 2
EndSplineSet
Colour: ffffff
EndChar

StartChar: Adieresis
Encoding: 132 196 131
Width: 1273
VWidth: 1655
GlyphClass: 2
Flags: HMW
LayerCount: 2
Fore
SplineSet
812 505 m 1
 724 1062 l 1
 720 1062 l 1
 623 724 l 1
 594 627 574 564 564 536 c 1
 812 505 l 1
866 1271 m 1
 1076 132 l 1
 1254 81 l 1
 1231 0 l 1
 655 0 l 1
 678 72 l 1
 876 108 l 1
 825 430 l 1
 533 446 l 1
 484 310 443 215 410 157 c 128
 377 99 347 56 319 29 c 128
 291 2 256 -16 217 -24 c 1
 199 -26 190 -27 186 -28 c 0
 148 -28 113 -16 81 8 c 128
 49 32 26 62 13 101 c 1
 63 120 108 142 147 168 c 1
 216 213 280 274 339 349 c 0
 416 450 489 596 558 786 c 1
 613 947 657 1098 688 1241 c 1
 866 1271 l 1
978 1519 m 128
 995 1504 1003 1486 1003 1464 c 128
 1003 1442 995 1424 978 1408 c 128
 961 1392 941 1385 918 1385 c 128
 895 1385 875 1392 859 1408 c 128
 843 1424 835 1443 835 1465 c 128
 835 1488 843 1504 859 1519 c 128
 875 1534 895 1541 918 1541 c 128
 941 1541 961 1534 978 1519 c 128
716 1519 m 128
 733 1504 740 1486 740 1464 c 128
 740 1442 733 1423 716 1408 c 128
 699 1393 679 1385 656 1385 c 128
 633 1385 615 1392 598 1408 c 128
 581 1424 573 1443 573 1465 c 128
 573 1488 581 1504 598 1519 c 128
 615 1534 633 1541 656 1541 c 128
 679 1541 699 1534 716 1519 c 128
EndSplineSet
Colour: ffffff
EndChar

StartChar: Aring
Encoding: 133 197 132
Width: 1273
VWidth: 1655
GlyphClass: 2
Flags: HMW
LayerCount: 2
Fore
SplineSet
812 505 m 1
 724 1062 l 1
 720 1062 l 1
 623 724 l 1
 594 627 574 564 564 536 c 1
 812 505 l 1
866 1271 m 1
 1076 132 l 1
 1254 81 l 1
 1231 0 l 1
 655 0 l 1
 678 72 l 1
 876 108 l 1
 825 430 l 1
 533 446 l 1
 484 310 443 215 410 157 c 128
 377 99 347 56 319 29 c 128
 291 2 256 -16 217 -24 c 1
 199 -26 190 -27 186 -28 c 0
 148 -28 113 -16 81 8 c 128
 49 32 26 62 13 101 c 1
 63 120 108 142 147 168 c 1
 216 213 280 274 339 349 c 0
 416 450 489 596 558 786 c 1
 613 947 657 1098 688 1241 c 1
 866 1271 l 1
722 1615 m 128
 706 1594 699 1568 699 1535 c 128
 699 1502 707 1473 725 1448 c 128
 743 1423 765 1410 792 1410 c 0
 848 1411 876 1448 878 1523 c 0
 878 1558 870 1587 852 1611 c 128
 834 1635 812 1647 785 1647 c 128
 758 1647 738 1636 722 1615 c 128
905 1649 m 128
 933 1619 948 1582 948 1535 c 128
 948 1488 932 1448 900 1414 c 128
 868 1380 829 1363 783 1363 c 128
 737 1363 699 1378 671 1408 c 128
 643 1438 629 1476 629 1523 c 128
 629 1570 645 1609 678 1643 c 128
 711 1677 750 1694 795 1694 c 128
 840 1694 877 1679 905 1649 c 128
EndSplineSet
Colour: ffffff
EndChar

StartChar: AE
Encoding: 134 198 133
Width: 1468
VWidth: 1655
GlyphClass: 2
Flags: HMW
LayerCount: 2
Fore
SplineSet
744 507 m 1
 724 1064 l 1
 718 1064 l 1
 624 726 l 1
 608 671 588 607 563 534 c 1
 744 507 l 1
1439 430 m 1
 1444 412 1446 375 1446 317 c 0
 1446 187 1426 81 1386 0 c 1
 1359 0 l 2
 1328 0 1303 0 1282 2 c 1
 1057 2 l 2
 1004 2 965 2 941 3 c 1
 769 3 l 1
 516 -3 l 1
 539 80 l 1
 756 134 l 1
 746 432 l 1
 534 444 l 1
 483 307 440 208 405 146 c 1
 372 91 342 52 316 26 c 128
 290 0 262 -16 234 -21 c 128
 206 -26 191 -28 187 -28 c 0
 150 -28 115 -16 82 8 c 128
 49 32 27 63 13 101 c 1
 63 120 108 142 148 168 c 1
 214 210 277 270 338 349 c 1
 447 495 550 733 645 1066 c 1
 661 1119 675 1178 687 1241 c 1
 1430 1280 l 1
 1390 862 l 1
 1303 869 l 1
 1247 1125 l 1
 1217 1128 l 1
 1144 1135 1048 1139 929 1142 c 1
 897 1143 l 1
 917 681 l 1
 1284 698 l 1
 1245 557 l 1
 922 578 l 1
 950 101 l 1
 1035 108 l 2
 1149 120 1216 127 1237 132 c 1
 1257 157 1280 203 1305 270 c 128
 1330 337 1345 391 1352 434 c 1
 1439 430 l 1
EndSplineSet
Colour: ffffff
EndChar

StartChar: Ccedilla
Encoding: 135 199 134
Width: 971
VWidth: 1655
GlyphClass: 2
Flags: HMW
LayerCount: 2
Fore
SplineSet
535 -75 m 1
 594 -126 623 -174 622 -221 c 0
 622 -290 557 -343 427 -381 c 1
 407 -323 l 1
 463 -303 491 -276 492 -242 c 0
 492 -215 468 -179 420 -134 c 1
 494 -30 l 1
 471 -30 l 2
 432 -30 390 -24 345 -12 c 1
 252 17 176 71 115 151 c 128
 54 231 22 332 16 455 c 1
 16 471 l 1
 14 477 14 482 14 488 c 0
 14 707 85 899 227 1064 c 1
 337 1192 467 1255 617 1254 c 0
 765 1254 868 1197 927 1085 c 1
 945 1055 953 1021 952 982 c 2
 952 971 l 1
 951 932 939 897 915 865 c 128
 891 833 864 814 835 806 c 128
 806 798 784 794 767 794 c 128
 750 794 734 796 718 802 c 1
 727 847 731 885 731 917 c 128
 731 949 729 978 724 1005 c 0
 714 1058 680 1097 621 1123 c 1
 598 1132 569 1136 532 1134 c 128
 495 1132 456 1117 414 1087 c 128
 372 1057 338 1018 313 971 c 0
 270 894 245 785 236 641 c 0
 234 604 233 583 233 578 c 0
 233 405 277 278 365 196 c 0
 417 148 478 124 547 125 c 0
 589 125 629 133 668 149 c 128
 707 165 742 190 775 223 c 128
 808 256 831 285 847 310 c 1
 889 248 l 1
 875 213 855 177 826 142 c 0
 765 69 689 19 600 -10 c 0
 589 -14 581 -15 575 -16 c 1
 535 -75 l 1
EndSplineSet
Colour: ffffff
EndChar

StartChar: Egrave
Encoding: 136 200 135
Width: 1221
VWidth: 1655
GlyphClass: 2
Flags: HMW
LayerCount: 2
Fore
SplineSet
1063 0 m 1
 695 2 488 3 445 3 c 1
 13 -3 l 1
 36 80 l 1
 254 134 l 1
 379 1094 l 1
 152 1117 l 1
 172 1194 l 1
 245 1209 353 1221 498 1233 c 128
 643 1245 779 1250 905 1250 c 2
 978 1250 l 1
 1202 1246 l 1
 1122 835 l 1
 1036 848 l 1
 1004 1111 l 1
 976 1117 l 1
 875 1136 752 1145 607 1143 c 2
 574 1143 l 1
 519 680 l 1
 974 712 l 1
 940 569 l 1
 507 578 l 1
 445 99 l 1
 662 108 l 1
 784 115 868 122 913 132 c 1
 936 169 962 222 993 292 c 128
 1024 362 1043 415 1053 451 c 1
 1140 440 l 1
 1140 434 l 2
 1140 345 1133 262 1119 182 c 128
 1105 102 1087 41 1063 0 c 1
604 1655 m 1
 717 1693 l 1
 846 1365 l 1
 790 1332 l 1
 604 1655 l 1
EndSplineSet
Colour: ffffff
EndChar

StartChar: Eacute
Encoding: 137 201 136
Width: 1221
VWidth: 1655
GlyphClass: 2
Flags: HMW
LayerCount: 2
Fore
SplineSet
1063 0 m 1
 695 2 488 3 445 3 c 1
 13 -3 l 1
 36 80 l 1
 254 134 l 1
 379 1094 l 1
 152 1117 l 1
 172 1194 l 1
 245 1209 353 1221 498 1233 c 128
 643 1245 779 1250 905 1250 c 2
 978 1250 l 1
 1202 1246 l 1
 1122 835 l 1
 1036 848 l 1
 1004 1111 l 1
 976 1117 l 1
 875 1136 752 1145 607 1143 c 2
 574 1143 l 1
 519 680 l 1
 974 712 l 1
 940 569 l 1
 507 578 l 1
 445 99 l 1
 662 108 l 1
 784 115 868 122 913 132 c 1
 936 169 962 222 993 292 c 128
 1024 362 1043 415 1053 451 c 1
 1140 440 l 1
 1140 434 l 2
 1140 345 1133 262 1119 182 c 128
 1105 102 1087 41 1063 0 c 1
1024 1661 m 1
 844 1351 l 1
 795 1382 l 1
 914 1701 l 1
 1024 1661 l 1
EndSplineSet
Colour: ffffff
EndChar

StartChar: Ecircumflex
Encoding: 138 202 137
Width: 1221
VWidth: 1655
GlyphClass: 2
Flags: HMW
LayerCount: 2
Fore
SplineSet
1063 0 m 1
 695 2 488 3 445 3 c 1
 13 -3 l 1
 36 80 l 1
 254 134 l 1
 379 1094 l 1
 152 1117 l 1
 172 1194 l 1
 245 1209 353 1221 498 1233 c 128
 643 1245 779 1250 905 1250 c 2
 978 1250 l 1
 1202 1246 l 1
 1122 835 l 1
 1036 848 l 1
 1004 1111 l 1
 976 1117 l 1
 875 1136 752 1145 607 1143 c 2
 574 1143 l 1
 519 680 l 1
 974 712 l 1
 940 569 l 1
 507 578 l 1
 445 99 l 1
 662 108 l 1
 784 115 868 122 913 132 c 1
 936 169 962 222 993 292 c 128
 1024 362 1043 415 1053 451 c 1
 1140 440 l 1
 1140 434 l 2
 1140 345 1133 262 1119 182 c 128
 1105 102 1087 41 1063 0 c 1
825 1577 m 1
 1000 1396 l 1
 951 1361 l 1
 791 1468 l 1
 781 1468 l 1
 644 1359 l 1
 607 1388 l 1
 771 1564 l 1
 825 1577 l 1
EndSplineSet
Colour: ffffff
EndChar

StartChar: Edieresis
Encoding: 139 203 138
Width: 1221
VWidth: 1655
GlyphClass: 2
Flags: HMW
LayerCount: 2
Fore
SplineSet
1063 0 m 1
 695 2 488 3 445 3 c 1
 13 -3 l 1
 36 80 l 1
 254 134 l 1
 379 1094 l 1
 152 1117 l 1
 172 1194 l 1
 245 1209 353 1221 498 1233 c 128
 643 1245 779 1250 905 1250 c 2
 978 1250 l 1
 1202 1246 l 1
 1122 835 l 1
 1036 848 l 1
 1004 1111 l 1
 976 1117 l 1
 875 1136 752 1145 607 1143 c 2
 574 1143 l 1
 519 680 l 1
 974 712 l 1
 940 569 l 1
 507 578 l 1
 445 99 l 1
 662 108 l 1
 784 115 868 122 913 132 c 1
 936 169 962 222 993 292 c 128
 1024 362 1043 415 1053 451 c 1
 1140 440 l 1
 1140 434 l 2
 1140 345 1133 262 1119 182 c 128
 1105 102 1087 41 1063 0 c 1
994 1519 m 128
 1012 1504 1020 1486 1020 1464 c 128
 1020 1442 1012 1424 994 1408 c 128
 976 1392 957 1385 934 1385 c 128
 911 1385 892 1392 875 1408 c 128
 858 1424 851 1443 851 1465 c 128
 851 1488 858 1504 875 1519 c 128
 892 1534 911 1541 934 1541 c 128
 957 1541 976 1534 994 1519 c 128
730 1519 m 128
 747 1504 755 1486 755 1464 c 128
 755 1442 747 1423 730 1408 c 128
 713 1393 695 1385 672 1385 c 128
 649 1385 629 1392 612 1408 c 128
 595 1424 588 1443 588 1465 c 128
 588 1488 595 1504 612 1519 c 128
 629 1534 649 1541 672 1541 c 128
 695 1541 713 1534 730 1519 c 128
EndSplineSet
Colour: ffffff
EndChar

StartChar: Igrave
Encoding: 140 204 139
Width: 809
VWidth: 1655
GlyphClass: 2
Flags: HMW
LayerCount: 2
Fore
SplineSet
639 0 m 1
 13 0 l 1
 31 78 l 1
 254 129 l 1
 377 1090 l 1
 151 1123 l 1
 170 1199 l 1
 318 1230 472 1246 634 1246 c 0
 675 1246 727 1244 790 1239 c 1
 771 1164 l 1
 572 1142 l 1
 445 106 l 1
 663 81 l 1
 639 0 l 1
315 1650 m 1
 429 1687 l 1
 558 1361 l 1
 502 1327 l 1
 315 1650 l 1
EndSplineSet
Colour: ffffff
EndChar

StartChar: Iacute
Encoding: 141 205 140
Width: 809
VWidth: 1655
GlyphClass: 2
Flags: HMW
LayerCount: 2
Fore
SplineSet
639 0 m 1
 13 0 l 1
 31 78 l 1
 254 129 l 1
 377 1090 l 1
 151 1123 l 1
 170 1199 l 1
 318 1230 472 1246 634 1246 c 0
 675 1246 727 1244 790 1239 c 1
 771 1164 l 1
 572 1142 l 1
 445 106 l 1
 663 81 l 1
 639 0 l 1
736 1657 m 1
 556 1345 l 1
 507 1377 l 1
 626 1696 l 1
 736 1657 l 1
EndSplineSet
Colour: ffffff
EndChar

StartChar: Icircumflex
Encoding: 142 206 141
Width: 809
VWidth: 1655
GlyphClass: 2
Flags: HMW
LayerCount: 2
Fore
SplineSet
639 0 m 1
 13 0 l 1
 31 78 l 1
 254 129 l 1
 377 1090 l 1
 151 1123 l 1
 170 1199 l 1
 318 1230 472 1246 634 1246 c 0
 675 1246 727 1244 790 1239 c 1
 771 1164 l 1
 572 1142 l 1
 445 106 l 1
 663 81 l 1
 639 0 l 1
537 1572 m 1
 712 1391 l 1
 663 1356 l 1
 504 1463 l 1
 494 1463 l 1
 356 1354 l 1
 318 1383 l 1
 484 1559 l 1
 537 1572 l 1
EndSplineSet
Colour: ffffff
EndChar

StartChar: Idieresis
Encoding: 143 207 142
Width: 810
VWidth: 1655
GlyphClass: 2
Flags: HMW
LayerCount: 2
Fore
SplineSet
639 0 m 1
 13 0 l 1
 31 78 l 1
 254 129 l 1
 377 1090 l 1
 151 1123 l 1
 170 1199 l 1
 318 1230 472 1246 634 1246 c 0
 677 1246 729 1244 791 1239 c 1
 771 1164 l 1
 572 1142 l 1
 445 106 l 1
 663 81 l 1
 639 0 l 1
706 1514 m 128
 723 1499 731 1481 731 1459 c 128
 731 1437 723 1419 706 1403 c 128
 689 1387 669 1380 646 1380 c 128
 623 1380 604 1387 587 1403 c 128
 570 1419 563 1438 563 1460 c 128
 563 1483 570 1499 587 1514 c 128
 604 1529 623 1536 646 1536 c 128
 669 1536 689 1529 706 1514 c 128
443 1514 m 128
 460 1499 468 1481 468 1459 c 128
 468 1437 460 1418 443 1403 c 128
 426 1388 406 1380 383 1380 c 128
 360 1380 341 1387 325 1403 c 128
 309 1419 301 1438 301 1460 c 128
 301 1483 309 1499 325 1514 c 128
 341 1529 360 1536 383 1536 c 128
 406 1536 426 1529 443 1514 c 128
EndSplineSet
Colour: ffffff
EndChar

StartChar: Eth
Encoding: 144 208 143
Width: 1407
VWidth: 1655
GlyphClass: 2
Flags: HMW
LayerCount: 2
Fore
SplineSet
493 551 m 1
 439 106 l 1
 449 106 l 1
 453 104 463 104 484 104 c 128
 505 104 543 107 600 113 c 0
 740 126 857 160 951 218 c 128
 1045 276 1111 353 1148 450 c 1
 1173 515 1185 589 1185 672 c 0
 1185 755 1167 832 1132 904 c 1
 1107 957 1073 1001 1031 1037 c 128
 989 1073 930 1104 854 1132 c 128
 778 1160 718 1174 673 1175 c 128
 628 1176 592 1175 566 1171 c 1
 504 649 l 1
 755 660 l 1
 727 561 l 1
 493 551 l 1
13 0 m 1
 33 77 l 1
 242 129 l 1
 298 541 l 1
 132 536 l 1
 158 634 l 1
 312 641 l 1
 369 1068 l 1
 152 1085 l 1
 173 1158 l 1
 338 1220 529 1251 746 1250 c 0
 786 1250 811 1250 822 1249 c 1
 1002 1240 1136 1200 1225 1127 c 1
 1265 1094 1298 1055 1324 1009 c 0
 1367 932 1389 846 1388 752 c 0
 1388 727 1387 704 1383 681 c 1
 1365 507 1289 358 1155 234 c 0
 1030 119 873 47 685 18 c 0
 606 6 492 0 341 0 c 2
 13 0 l 1
EndSplineSet
Colour: ffffff
EndChar

StartChar: Ntilde
Encoding: 145 209 144
Width: 1525
VWidth: 1655
GlyphClass: 2
Flags: HMW
LayerCount: 2
Fore
SplineSet
1016 -31 m 1
 461 999 l 1
 458 999 l 1
 439 486 l 2
 434 381 426 298 412 239 c 128
 398 180 371 124 332 70 c 1
 279 3 223 -31 163 -31 c 2
 156 -31 l 1
 97 -25 56 1 31 49 c 1
 22 69 17 87 13 103 c 1
 92 140 155 186 202 242 c 1
 296 359 346 567 354 864 c 1
 356 984 357 1053 358 1071 c 1
 132 1125 l 1
 154 1201 l 1
 247 1220 321 1230 378 1235 c 128
 435 1240 496 1243 563 1246 c 1
 651 1078 l 1
 1086 274 l 1
 1157 1106 l 1
 930 1122 l 1
 950 1197 l 1
 1053 1220 1137 1233 1199 1238 c 128
 1261 1243 1316 1245 1363 1245 c 128
 1410 1245 1458 1243 1506 1239 c 1
 1485 1163 l 1
 1280 1109 l 1
 1176 2 l 1
 1016 -31 l 1
703 1419 m 2
 686 1419 667 1403 644 1372 c 1
 607 1380 l 1
 609 1387 611 1397 615 1411 c 128
 619 1425 627 1441 641 1462 c 0
 666 1501 694 1521 726 1522 c 2
 732 1522 l 1
 734 1520 735 1520 739 1520 c 2
 957 1490 l 1
 961 1490 l 2
 975 1490 993 1504 1016 1531 c 1
 1063 1529 l 1
 1032 1435 989 1388 934 1388 c 2
 925 1388 l 1
 706 1419 l 1
 703 1419 l 2
EndSplineSet
Colour: ffffff
EndChar

StartChar: Ograve
Encoding: 146 210 145
Width: 1099
VWidth: 1655
GlyphClass: 2
Flags: HMW
LayerCount: 2
Fore
SplineSet
222 651 m 0
 222 495 252 368 312 269 c 128
 372 170 451 120 547 120 c 128
 643 120 721 167 782 260 c 128
 843 353 873 475 873 625 c 0
 873 720 860 805 833 881 c 128
 806 957 765 1018 712 1063 c 128
 659 1108 598 1130 531 1130 c 128
 464 1130 407 1108 360 1064 c 1
 267 975 221 838 222 651 c 0
1080 744 m 1
 1078 596 1043 457 975 325 c 1
 898 179 799 78 681 21 c 0
 614 -12 540 -28 458 -28 c 128
 376 -28 300 -4 230 45 c 128
 160 94 107 158 70 238 c 128
 33 318 14 408 14 505 c 0
 14 642 40 769 92 886 c 128
 144 1003 218 1098 313 1169 c 128
 408 1240 517 1275 637 1275 c 0
 728 1275 808 1249 879 1196 c 128
 950 1143 1002 1077 1033 998 c 128
 1064 919 1080 836 1080 748 c 2
 1080 744 l 1
420 1655 m 1
 533 1693 l 1
 663 1365 l 1
 606 1332 l 1
 420 1655 l 1
EndSplineSet
Colour: ffffff
EndChar

StartChar: Oacute
Encoding: 147 211 146
Width: 1099
VWidth: 1655
GlyphClass: 2
Flags: HMW
LayerCount: 2
Fore
SplineSet
222 651 m 0
 222 495 252 368 312 269 c 128
 372 170 451 120 547 120 c 128
 643 120 721 167 782 260 c 128
 843 353 873 475 873 625 c 0
 873 720 860 805 833 881 c 128
 806 957 765 1018 712 1063 c 128
 659 1108 598 1130 531 1130 c 128
 464 1130 407 1108 360 1064 c 1
 267 975 221 838 222 651 c 0
1080 744 m 1
 1078 596 1043 457 975 325 c 1
 898 179 799 78 681 21 c 0
 614 -12 540 -28 458 -28 c 128
 376 -28 300 -4 230 45 c 128
 160 94 107 158 70 238 c 128
 33 318 14 408 14 505 c 0
 14 642 40 769 92 886 c 128
 144 1003 218 1098 313 1169 c 128
 408 1240 517 1275 637 1275 c 0
 728 1275 808 1249 879 1196 c 128
 950 1143 1002 1077 1033 998 c 128
 1064 919 1080 836 1080 748 c 2
 1080 744 l 1
841 1661 m 1
 661 1351 l 1
 611 1382 l 1
 730 1701 l 1
 841 1661 l 1
EndSplineSet
Colour: ffffff
EndChar

StartChar: Ocircumflex
Encoding: 148 212 147
Width: 1099
VWidth: 1655
GlyphClass: 2
Flags: HMW
LayerCount: 2
Fore
SplineSet
222 651 m 0
 222 495 252 368 312 269 c 128
 372 170 451 120 547 120 c 128
 643 120 721 167 782 260 c 128
 843 353 873 475 873 625 c 0
 873 720 860 805 833 881 c 128
 806 957 765 1018 712 1063 c 128
 659 1108 598 1130 531 1130 c 128
 464 1130 407 1108 360 1064 c 1
 267 975 221 838 222 651 c 0
1080 744 m 1
 1078 596 1043 457 975 325 c 1
 898 179 799 78 681 21 c 0
 614 -12 540 -28 458 -28 c 128
 376 -28 300 -4 230 45 c 128
 160 94 107 158 70 238 c 128
 33 318 14 408 14 505 c 0
 14 642 40 769 92 886 c 128
 144 1003 218 1098 313 1169 c 128
 408 1240 517 1275 637 1275 c 0
 728 1275 808 1249 879 1196 c 128
 950 1143 1002 1077 1033 998 c 128
 1064 919 1080 836 1080 748 c 2
 1080 744 l 1
642 1577 m 1
 817 1396 l 1
 768 1361 l 1
 608 1468 l 1
 598 1468 l 1
 461 1359 l 1
 424 1388 l 1
 589 1564 l 1
 642 1577 l 1
EndSplineSet
Colour: ffffff
EndChar

StartChar: Otilde
Encoding: 149 213 148
Width: 1099
VWidth: 1655
GlyphClass: 2
Flags: HMW
LayerCount: 2
Fore
SplineSet
222 651 m 0
 222 495 252 368 312 269 c 128
 372 170 451 120 547 120 c 128
 643 120 721 167 782 260 c 128
 843 353 873 475 873 625 c 0
 873 720 860 805 833 881 c 128
 806 957 765 1018 712 1063 c 128
 659 1108 598 1130 531 1130 c 128
 464 1130 407 1108 360 1064 c 1
 267 975 221 838 222 651 c 0
1080 744 m 1
 1078 596 1043 457 975 325 c 1
 898 179 799 78 681 21 c 0
 614 -12 540 -28 458 -28 c 128
 376 -28 300 -4 230 45 c 128
 160 94 107 158 70 238 c 128
 33 318 14 408 14 505 c 0
 14 642 40 769 92 886 c 128
 144 1003 218 1098 313 1169 c 128
 408 1240 517 1275 637 1275 c 0
 728 1275 808 1249 879 1196 c 128
 950 1143 1002 1077 1033 998 c 128
 1064 919 1080 836 1080 748 c 2
 1080 744 l 1
489 1419 m 2
 472 1419 453 1403 430 1372 c 1
 392 1380 l 1
 394 1387 397 1397 401 1411 c 128
 405 1425 413 1441 427 1462 c 0
 452 1501 480 1521 513 1522 c 2
 520 1522 l 1
 522 1520 523 1520 525 1520 c 2
 744 1490 l 1
 747 1490 l 2
 761 1490 779 1504 802 1531 c 1
 849 1529 l 1
 818 1435 775 1388 722 1388 c 2
 710 1388 l 1
 492 1419 l 1
 489 1419 l 2
EndSplineSet
Colour: ffffff
EndChar

StartChar: Odieresis
Encoding: 150 214 149
Width: 1099
VWidth: 1655
GlyphClass: 2
Flags: HMW
LayerCount: 2
Fore
SplineSet
222 651 m 0
 222 495 252 368 312 269 c 128
 372 170 451 120 547 120 c 128
 643 120 721 167 782 260 c 128
 843 353 873 475 873 625 c 0
 873 720 860 805 833 881 c 128
 806 957 765 1018 712 1063 c 128
 659 1108 598 1130 531 1130 c 128
 464 1130 407 1108 360 1064 c 1
 267 975 221 838 222 651 c 0
1080 744 m 1
 1078 596 1043 457 975 325 c 1
 898 179 799 78 681 21 c 0
 614 -12 540 -28 458 -28 c 128
 376 -28 300 -4 230 45 c 128
 160 94 107 158 70 238 c 128
 33 318 14 408 14 505 c 0
 14 642 40 769 92 886 c 128
 144 1003 218 1098 313 1169 c 128
 408 1240 517 1275 637 1275 c 0
 728 1275 808 1249 879 1196 c 128
 950 1143 1002 1077 1033 998 c 128
 1064 919 1080 836 1080 748 c 2
 1080 744 l 1
811 1519 m 128
 828 1504 836 1486 836 1464 c 128
 836 1442 828 1424 811 1408 c 128
 794 1392 774 1385 751 1385 c 128
 728 1385 710 1392 693 1408 c 128
 676 1424 668 1443 668 1465 c 128
 668 1488 676 1504 693 1519 c 128
 710 1534 728 1541 751 1541 c 128
 774 1541 794 1534 811 1519 c 128
547 1519 m 128
 564 1504 572 1486 572 1464 c 128
 572 1442 564 1423 547 1408 c 128
 530 1393 511 1385 488 1385 c 128
 465 1385 446 1392 430 1408 c 128
 414 1424 406 1443 406 1465 c 128
 406 1488 414 1504 430 1519 c 128
 446 1534 465 1541 488 1541 c 128
 511 1541 530 1534 547 1519 c 128
EndSplineSet
Colour: ffffff
EndChar

StartChar: multiply
Encoding: 151 215 150
Width: 526
VWidth: 1655
GlyphClass: 2
Flags: HMW
LayerCount: 2
Fore
SplineSet
250 380 m 1
 68 223 l 1
 13 305 l 1
 184 453 l 1
 51 607 l 1
 140 672 l 1
 272 520 l 1
 454 678 l 1
 507 595 l 1
 335 448 l 1
 471 291 l 1
 382 227 l 1
 250 380 l 1
EndSplineSet
Colour: ffffff
EndChar

StartChar: Oslash
Encoding: 152 216 151
Width: 1100
VWidth: 1655
GlyphClass: 2
Flags: HMW
LayerCount: 2
Fore
SplineSet
360 205 m 5
 414 148 476 119 547 120 c 0
 644 120 722 167 783 260 c 128
 844 353 874 474 874 623 c 128
 874 772 842 895 778 992 c 5
 642.478 730.513 517.563 471.382 360 205 c 5
223 651 m 0
 223 496 253 370 312 272 c 1
 725 1053 l 1
 668 1104 604 1130 535 1130 c 128
 466 1130 408 1108 361 1064 c 1
 268 975 222 838 223 651 c 0
831 1296 m 1
 973 1304 l 1
 906 1176 l 1
 962 1128 1006 1066 1036 989 c 128
 1066 912 1081 832 1081 748 c 2
 1081 744 l 1
 1079 596 1044 457 976 325 c 1
 899 179 800 78 682 21 c 0
 615 -12 547 -28 476 -28 c 128
 405 -28 341 -14 284 14 c 1
 234 -73 l 1
 91 -81 l 1
 183 84 l 1
 66.2807 211.753 15 327 15 521 c 128
 15 648 41 769 93 886 c 128
 145 1003 219 1098 314 1169 c 128
 409 1240 518 1275 638 1275 c 0
 696 1275 750 1264 801 1243 c 1
 831 1296 l 1
EndSplineSet
Colour: ffffff
EndChar

StartChar: Ugrave
Encoding: 153 217 152
Width: 1445
VWidth: 1655
GlyphClass: 2
Flags: HMW
LayerCount: 2
Fore
SplineSet
235 1087 m 1
 13 1123 l 1
 35 1199 l 1
 145 1219 241 1231 323 1237 c 128
 405 1243 475 1245 535 1245 c 128
 595 1245 633 1245 651 1243 c 1
 633 1166 l 1
 434 1138 l 1
 386 745 l 2
 386 743 386 735 384 721 c 128
 382 707 380 682 375 647 c 128
 370 612 369 585 367 566 c 128
 365 547 365 521 365 488 c 128
 365 455 366 428 369 405 c 0
 372 382 376 357 383 330 c 0
 398 274 429 227 477 188 c 1
 527 145 586 123 655 123 c 0
 785 123 879 179 936 290 c 1
 963 343 983 425 999 534 c 2
 1073 1111 l 1
 848 1120 l 1
 866 1197 l 1
 1007 1228 1153 1243 1306 1243 c 0
 1317 1243 1357 1242 1426 1239 c 1
 1406 1163 l 1
 1199 1096 l 1
 1114 517 l 2
 1085 325 1034 191 959 114 c 0
 924 77 875 43 813 12 c 128
 751 -19 677 -34 592 -34 c 2
 584 -34 l 1
 456 -28 356 11 285 83 c 0
 204 164 164 277 163 425 c 0
 163 460 171 552 189 702 c 2
 235 1087 l 1
556 1655 m 1
 670 1693 l 1
 799 1365 l 1
 743 1332 l 1
 556 1655 l 1
EndSplineSet
Colour: ffffff
EndChar

StartChar: Uacute
Encoding: 154 218 153
Width: 1445
VWidth: 1655
GlyphClass: 2
Flags: HMW
LayerCount: 2
Fore
SplineSet
235 1087 m 1
 13 1123 l 1
 35 1199 l 1
 145 1219 241 1231 323 1237 c 128
 405 1243 475 1245 535 1245 c 128
 595 1245 633 1245 651 1243 c 1
 633 1166 l 1
 434 1138 l 1
 386 745 l 2
 386 743 386 735 384 721 c 128
 382 707 380 682 375 647 c 128
 370 612 369 585 367 566 c 128
 365 547 365 521 365 488 c 128
 365 455 366 428 369 405 c 0
 372 382 376 357 383 330 c 0
 398 274 429 227 477 188 c 1
 527 145 586 123 655 123 c 0
 785 123 879 179 936 290 c 1
 963 343 983 425 999 534 c 2
 1073 1111 l 1
 848 1120 l 1
 866 1197 l 1
 1007 1228 1153 1243 1306 1243 c 0
 1317 1243 1357 1242 1426 1239 c 1
 1406 1163 l 1
 1199 1096 l 1
 1114 517 l 2
 1085 325 1034 191 959 114 c 0
 924 77 875 43 813 12 c 128
 751 -19 677 -34 592 -34 c 2
 584 -34 l 1
 456 -28 356 11 285 83 c 0
 204 164 164 277 163 425 c 0
 163 460 171 552 189 702 c 2
 235 1087 l 1
978 1661 m 1
 797 1351 l 1
 748 1382 l 1
 867 1701 l 1
 978 1661 l 1
EndSplineSet
Colour: ffffff
EndChar

StartChar: Ucircumflex
Encoding: 155 219 154
Width: 1445
VWidth: 1655
GlyphClass: 2
Flags: HMW
LayerCount: 2
Fore
SplineSet
235 1087 m 1
 13 1123 l 1
 35 1199 l 1
 145 1219 241 1231 323 1237 c 128
 405 1243 475 1245 535 1245 c 128
 595 1245 633 1245 651 1243 c 1
 633 1166 l 1
 434 1138 l 1
 386 745 l 2
 386 743 386 735 384 721 c 128
 382 707 380 682 375 647 c 128
 370 612 369 585 367 566 c 128
 365 547 365 521 365 488 c 128
 365 455 366 428 369 405 c 0
 372 382 376 357 383 330 c 0
 398 274 429 227 477 188 c 1
 527 145 586 123 655 123 c 0
 785 123 879 179 936 290 c 1
 963 343 983 425 999 534 c 2
 1073 1111 l 1
 848 1120 l 1
 866 1197 l 1
 1007 1228 1153 1243 1306 1243 c 0
 1317 1243 1357 1242 1426 1239 c 1
 1406 1163 l 1
 1199 1096 l 1
 1114 517 l 2
 1085 325 1034 191 959 114 c 0
 924 77 875 43 813 12 c 128
 751 -19 677 -34 592 -34 c 2
 584 -34 l 1
 456 -28 356 11 285 83 c 0
 204 164 164 277 163 425 c 0
 163 460 171 552 189 702 c 2
 235 1087 l 1
778 1577 m 1
 953 1396 l 1
 905 1361 l 1
 744 1468 l 1
 734 1468 l 1
 597 1359 l 1
 560 1388 l 1
 725 1564 l 1
 778 1577 l 1
EndSplineSet
Colour: ffffff
EndChar

StartChar: Udieresis
Encoding: 156 220 155
Width: 1445
VWidth: 1655
GlyphClass: 2
Flags: HMW
LayerCount: 2
Fore
SplineSet
235 1087 m 1
 13 1123 l 1
 35 1199 l 1
 145 1219 241 1231 323 1237 c 128
 405 1243 475 1245 535 1245 c 128
 595 1245 633 1245 651 1243 c 1
 633 1166 l 1
 434 1138 l 1
 386 745 l 2
 386 743 386 735 384 721 c 128
 382 707 380 682 375 647 c 128
 370 612 369 585 367 566 c 128
 365 547 365 521 365 488 c 128
 365 455 366 428 369 405 c 0
 372 382 376 357 383 330 c 0
 398 274 429 227 477 188 c 1
 527 145 586 123 655 123 c 0
 785 123 879 179 936 290 c 1
 963 343 983 425 999 534 c 2
 1073 1111 l 1
 848 1120 l 1
 866 1197 l 1
 1007 1228 1153 1243 1306 1243 c 0
 1317 1243 1357 1242 1426 1239 c 1
 1406 1163 l 1
 1199 1096 l 1
 1114 517 l 2
 1085 325 1034 191 959 114 c 0
 924 77 875 43 813 12 c 128
 751 -19 677 -34 592 -34 c 2
 584 -34 l 1
 456 -28 356 11 285 83 c 0
 204 164 164 277 163 425 c 0
 163 460 171 552 189 702 c 2
 235 1087 l 1
947 1519 m 128
 964 1504 972 1486 972 1464 c 128
 972 1442 964 1424 947 1408 c 128
 930 1392 910 1385 887 1385 c 128
 864 1385 846 1392 829 1408 c 128
 812 1424 804 1443 804 1465 c 128
 804 1488 812 1504 829 1519 c 128
 846 1534 864 1541 887 1541 c 128
 910 1541 930 1534 947 1519 c 128
684 1519 m 128
 701 1504 709 1486 709 1464 c 128
 709 1442 701 1423 684 1408 c 128
 667 1393 647 1385 624 1385 c 128
 601 1385 582 1392 566 1408 c 128
 550 1424 542 1443 542 1465 c 128
 542 1488 550 1504 566 1519 c 128
 582 1534 601 1541 624 1541 c 128
 647 1541 667 1534 684 1519 c 128
EndSplineSet
Colour: ffffff
EndChar

StartChar: Yacute
Encoding: 157 221 156
Width: 1097
VWidth: 1655
GlyphClass: 2
Flags: HMW
LayerCount: 2
Fore
SplineSet
613 680 m 1
 584 583 562 476 548 359 c 2
 519 106 l 1
 732 81 l 1
 711 0 l 1
 85 0 l 1
 104 83 l 1
 325 129 l 1
 364 423 l 2
 371 470 374 519 374 569 c 0
 374 688 352 796 307 893 c 1
 246 1019 149 1092 13 1111 c 1
 23 1160 44 1197 78 1221 c 128
 112 1245 152 1259 196 1262 c 0
 198 1262 200 1262 202 1264 c 1
 207 1264 l 2
 314 1264 396 1204 451 1086 c 0
 498 985 521 857 519 702 c 2
 519 664 l 1
 535 664 l 1
 558 763 589 855 627 940 c 128
 665 1025 701 1088 734 1132 c 128
 767 1176 801 1206 838 1224 c 128
 875 1242 907 1250 936 1250 c 2
 946 1250 l 1
 950 1248 952 1248 956 1249 c 0
 993 1245 1023 1231 1045 1205 c 128
 1067 1179 1078 1150 1078 1120 c 0
 1078 1107 1077 1097 1074 1087 c 1
 1035 1085 991 1078 941 1063 c 128
 891 1048 845 1026 804 995 c 1
 757 957 720 915 693 869 c 128
 666 823 640 760 613 680 c 1
813 1661 m 1
 633 1351 l 1
 583 1382 l 1
 703 1701 l 1
 813 1661 l 1
EndSplineSet
Colour: ffffff
EndChar

StartChar: Thorn
Encoding: 158 222 157
Width: 1158
VWidth: 1655
GlyphClass: 2
Flags: HMW
LayerCount: 2
Fore
SplineSet
643 0 m 1
 13 0 l 1
 30 78 l 1
 252 130 l 1
 378 1099 l 1
 152 1131 l 1
 169 1205 l 1
 354 1239 509 1256 634 1255 c 0
 679 1255 733 1253 796 1249 c 1
 777 1171 l 1
 573 1150 l 1
 561 1039 l 1
 624 1045 672 1047 705 1047 c 0
 846 1047 954 1017 1028 957 c 128
 1102 897 1139 809 1139 696 c 0
 1139 581 1087 480 982 393 c 1
 874 304 721 250 523 232 c 1
 516 315 l 1
 675 333 791 379 864 453 c 0
 918 508 946 579 945 665 c 128
 944 751 913 824 853 885 c 128
 793 946 712 977 610 977 c 0
 590 977 572 975 552 971 c 1
 450 108 l 1
 668 80 l 1
 643 0 l 1
EndSplineSet
Colour: ffffff
EndChar

StartChar: germandbls
Encoding: 159 223 158
Width: 1271
VWidth: 1655
GlyphClass: 2
Flags: HMW
LayerCount: 2
Fore
SplineSet
761 233 m 1
 798 125 852 66 924 57 c 1
 932 57 l 1
 934 55 939 55 948 56 c 128
 957 57 972 60 994 70 c 128
 1016 80 1033 92 1045 106 c 1
 1056 123 1061 140 1061 158 c 2
 1061 165 l 1
 1059 167 1059 173 1057 185 c 0
 1035.82 338.532 758 407.263 758 575 c 128
 758 772.84 1036 856.53 1036 1058 c 0
 1036 1159.93 981.28 1224.91 910 1222 c 1
 792.503 1222 692.35 1169.15 652 1074 c 0
 627 1023 612 949 605 851 c 1
 600 806 l 1
 579 468 565 251 557 155 c 128
 549 59 537 -21 520 -84 c 128
 503 -147 476 -200 441 -242 c 0
 394 -301 335 -342 264 -365 c 1
 227 -375 192 -378 161 -379 c 128
 130 -380 101 -373 76 -359 c 0
 34 -334 13 -297 13 -248 c 0
 13 -201 31 -163 68 -132 c 1
 132 -196 198 -228 265 -228 c 0
 287 -228 305 -224 321 -217 c 128
 337 -210 346 -200 352 -185 c 128
 397.356 -71.6112 380.426 -3.03046 403 313 c 2
 436 775 l 1
 325 766 l 1
 340 871 l 1
 445 855 l 1
 451 882 456 907 462 931 c 0
 483 1007 514 1070 556 1119 c 128
 651.212 1242.64 808.635 1299 1009 1299 c 128
 1095.52 1299 1201 1236 1201 1110 c 0
 1201 879.253 882 778 882 656 c 128
 882 629 891 601 911 573 c 1
 940 538 965 512 987 494 c 128
 1009 476 1033 456 1059 435 c 128
 1085 414 1102 399 1113 389 c 0
 1144 362 1166 335 1181 306 c 128
 1196 277 1203 252 1205 230 c 1
 1205 218 l 2
 1205 179 1190 139 1159 98 c 1
 1127 59 1084 27 1030 2 c 128
 976 -23 924 -35 875 -35 c 0
 780 -36 714 -13 675 34 c 0
 656 56 647 83 647 116 c 128
 647 149 664 179 699 207 c 1
 718 221 738 229 761 233 c 1
EndSplineSet
Colour: ffffff
EndChar

StartChar: agrave
Encoding: 160 224 159
Width: 859
VWidth: 1655
GlyphClass: 2
Flags: HMW
LayerCount: 2
Fore
SplineSet
592 918 m 1
 711 881 l 1
 639 491 l 1
 609 253 l 1
 604 214 602 186 602 168 c 0
 602 133 617 116 646 116 c 0
 664 116 688 133 718 166 c 128
 748 199 776 236 799 275 c 1
 840 240 l 1
 803 147 763 79 719 35 c 128
 675 -9 618 -31 548 -31 c 0
 515 -31 489 -18 471 6 c 128
 453 30 445 66 445 113 c 0
 445 161 457 219 481 287 c 1
 468 287 l 1
 433 203 387 131 330 70 c 128
 273 9 217 -21 162 -21 c 128
 107 -21 68 0 46 41 c 128
 24 82 13 143 13 225 c 128
 13 307 32 401 70 505 c 128
 108 609 159 701 223 779 c 128
 287 857 351 895 414 895 c 128
 477 895 525 870 558 820 c 1
 567 820 l 1
 581 909 l 1
 592 918 l 1
219 595 m 0
 185 490 168 398 168 317 c 128
 168 236 172 186 180 165 c 128
 188 144 205 134 232 134 c 0
 280 134 335 185 398 286 c 1
 461 387 505 512 532 660 c 1
 522 688 503 713 473 736 c 128
 443 759 413 770 381 770 c 128
 349 770 319 754 289 722 c 128
 259 690 236 648 219 595 c 0
291 1303 m 1
 403 1339 l 1
 532 1013 l 1
 476 978 l 1
 291 1303 l 1
EndSplineSet
Colour: ffffff
EndChar

StartChar: aacute
Encoding: 161 225 160
Width: 859
VWidth: 1655
GlyphClass: 2
Flags: HMW
LayerCount: 2
Fore
SplineSet
592 918 m 1
 711 881 l 1
 639 491 l 1
 609 253 l 1
 604 214 602 186 602 168 c 0
 602 133 617 116 646 116 c 0
 664 116 688 133 718 166 c 128
 748 199 776 236 799 275 c 1
 840 240 l 1
 803 147 763 79 719 35 c 128
 675 -9 618 -31 548 -31 c 0
 515 -31 489 -18 471 6 c 128
 453 30 445 66 445 113 c 0
 445 161 457 219 481 287 c 1
 468 287 l 1
 433 203 387 131 330 70 c 128
 273 9 217 -21 162 -21 c 128
 107 -21 68 0 46 41 c 128
 24 82 13 143 13 225 c 128
 13 307 32 401 70 505 c 128
 108 609 159 701 223 779 c 128
 287 857 351 895 414 895 c 128
 477 895 525 870 558 820 c 1
 567 820 l 1
 581 909 l 1
 592 918 l 1
219 595 m 0
 185 490 168 398 168 317 c 128
 168 236 172 186 180 165 c 128
 188 144 205 134 232 134 c 0
 280 134 335 185 398 286 c 1
 461 387 505 512 532 660 c 1
 522 688 503 713 473 736 c 128
 443 759 413 770 381 770 c 128
 349 770 319 754 289 722 c 128
 259 690 236 648 219 595 c 0
711 1309 m 1
 530 998 l 1
 481 1029 l 1
 600 1347 l 1
 711 1309 l 1
EndSplineSet
Colour: ffffff
EndChar

StartChar: acircumflex
Encoding: 162 226 161
Width: 859
VWidth: 1655
GlyphClass: 2
Flags: HMW
LayerCount: 2
Fore
SplineSet
592 918 m 1
 711 881 l 1
 639 491 l 1
 609 253 l 1
 604 214 602 186 602 168 c 0
 602 133 617 116 646 116 c 0
 664 116 688 133 718 166 c 128
 748 199 776 236 799 275 c 1
 840 240 l 1
 803 147 763 79 719 35 c 128
 675 -9 618 -31 548 -31 c 0
 515 -31 489 -18 471 6 c 128
 453 30 445 66 445 113 c 0
 445 161 457 219 481 287 c 1
 468 287 l 1
 433 203 387 131 330 70 c 128
 273 9 217 -21 162 -21 c 128
 107 -21 68 0 46 41 c 128
 24 82 13 143 13 225 c 128
 13 307 32 401 70 505 c 128
 108 609 159 701 223 779 c 128
 287 857 351 895 414 895 c 128
 477 895 525 870 558 820 c 1
 567 820 l 1
 581 909 l 1
 592 918 l 1
219 595 m 0
 185 490 168 398 168 317 c 128
 168 236 172 186 180 165 c 128
 188 144 205 134 232 134 c 0
 280 134 335 185 398 286 c 1
 461 387 505 512 532 660 c 1
 522 688 503 713 473 736 c 128
 443 759 413 770 381 770 c 128
 349 770 319 754 289 722 c 128
 259 690 236 648 219 595 c 0
512 1224 m 1
 686 1043 l 1
 637 1008 l 1
 477 1115 l 1
 468 1115 l 1
 330 1006 l 1
 293 1036 l 1
 458 1212 l 1
 512 1224 l 1
EndSplineSet
Colour: ffffff
EndChar

StartChar: atilde
Encoding: 163 227 162
Width: 859
VWidth: 1655
GlyphClass: 2
Flags: HMW
LayerCount: 2
Fore
SplineSet
592 918 m 1
 711 881 l 1
 639 491 l 1
 609 253 l 1
 604 214 602 186 602 168 c 0
 602 133 617 116 646 116 c 0
 664 116 688 133 718 166 c 128
 748 199 776 236 799 275 c 1
 840 240 l 1
 803 147 763 79 719 35 c 128
 675 -9 618 -31 548 -31 c 0
 515 -31 489 -18 471 6 c 128
 453 30 445 66 445 113 c 0
 445 161 457 219 481 287 c 1
 468 287 l 1
 433 203 387 131 330 70 c 128
 273 9 217 -21 162 -21 c 128
 107 -21 68 0 46 41 c 128
 24 82 13 143 13 225 c 128
 13 307 32 401 70 505 c 128
 108 609 159 701 223 779 c 128
 287 857 351 895 414 895 c 128
 477 895 525 870 558 820 c 1
 567 820 l 1
 581 909 l 1
 592 918 l 1
219 595 m 0
 185 490 168 398 168 317 c 128
 168 236 172 186 180 165 c 128
 188 144 205 134 232 134 c 0
 280 134 335 185 398 286 c 1
 461 387 505 512 532 660 c 1
 522 688 503 713 473 736 c 128
 443 759 413 770 381 770 c 128
 349 770 319 754 289 722 c 128
 259 690 236 648 219 595 c 0
358 1066 m 2
 341 1066 322 1050 300 1019 c 1
 263 1027 l 1
 265 1034 268 1044 272 1058 c 128
 276 1072 283 1089 296 1110 c 0
 321 1149 349 1169 382 1168 c 2
 388 1168 l 1
 390 1166 392 1166 395 1166 c 2
 613 1137 l 1
 616 1137 l 2
 630 1137 649 1151 672 1178 c 1
 719 1176 l 1
 688 1082 645 1035 590 1036 c 2
 579 1036 l 1
 360 1066 l 1
 358 1066 l 2
EndSplineSet
Colour: ffffff
EndChar

StartChar: adieresis
Encoding: 164 228 163
Width: 859
VWidth: 1655
GlyphClass: 2
Flags: HMW
LayerCount: 2
Fore
SplineSet
592 918 m 1
 711 881 l 1
 639 491 l 1
 609 253 l 1
 604 214 602 186 602 168 c 0
 602 133 617 116 646 116 c 0
 664 116 688 133 718 166 c 128
 748 199 776 236 799 275 c 1
 840 240 l 1
 803 147 763 79 719 35 c 128
 675 -9 618 -31 548 -31 c 0
 515 -31 489 -18 471 6 c 128
 453 30 445 66 445 113 c 0
 445 161 457 219 481 287 c 1
 468 287 l 1
 433 203 387 131 330 70 c 128
 273 9 217 -21 162 -21 c 128
 107 -21 68 0 46 41 c 128
 24 82 13 143 13 225 c 128
 13 307 32 401 70 505 c 128
 108 609 159 701 223 779 c 128
 287 857 351 895 414 895 c 128
 477 895 525 870 558 820 c 1
 567 820 l 1
 581 909 l 1
 592 918 l 1
219 595 m 0
 185 490 168 398 168 317 c 128
 168 236 172 186 180 165 c 128
 188 144 205 134 232 134 c 0
 280 134 335 185 398 286 c 1
 461 387 505 512 532 660 c 1
 522 688 503 713 473 736 c 128
 443 759 413 770 381 770 c 128
 349 770 319 754 289 722 c 128
 259 690 236 648 219 595 c 0
681 1165 m 128
 698 1150 706 1132 706 1110 c 128
 706 1088 698 1071 681 1055 c 128
 664 1039 643 1032 620 1032 c 128
 597 1032 579 1039 562 1055 c 128
 545 1071 537 1089 537 1111 c 128
 537 1133 545 1151 562 1166 c 128
 579 1181 597 1187 620 1187 c 128
 643 1187 664 1180 681 1165 c 128
417 1165 m 128
 434 1150 442 1132 442 1110 c 128
 442 1088 434 1070 417 1055 c 128
 400 1040 380 1032 357 1032 c 128
 334 1032 315 1039 299 1055 c 128
 283 1071 275 1089 275 1111 c 128
 275 1133 283 1151 299 1166 c 128
 315 1181 334 1187 357 1187 c 128
 380 1187 400 1180 417 1165 c 128
EndSplineSet
Colour: ffffff
EndChar

StartChar: aring
Encoding: 165 229 164
Width: 859
VWidth: 1655
GlyphClass: 2
Flags: HMW
LayerCount: 2
Fore
SplineSet
592 918 m 1
 711 881 l 1
 639 491 l 1
 609 253 l 1
 604 214 602 186 602 168 c 0
 602 133 617 116 646 116 c 0
 664 116 688 133 718 166 c 128
 748 199 776 236 799 275 c 1
 840 240 l 1
 803 147 763 79 719 35 c 128
 675 -9 618 -31 548 -31 c 0
 515 -31 489 -18 471 6 c 128
 453 30 445 66 445 113 c 0
 445 161 457 219 481 287 c 1
 468 287 l 1
 433 203 387 131 330 70 c 128
 273 9 217 -21 162 -21 c 128
 107 -21 68 0 46 41 c 128
 24 82 13 143 13 225 c 128
 13 307 32 401 70 505 c 128
 108 609 159 701 223 779 c 128
 287 857 351 895 414 895 c 128
 477 895 525 870 558 820 c 1
 567 820 l 1
 581 909 l 1
 592 918 l 1
219 595 m 0
 185 490 168 398 168 317 c 128
 168 236 172 186 180 165 c 128
 188 144 205 134 232 134 c 0
 280 134 335 185 398 286 c 1
 461 387 505 512 532 660 c 1
 522 688 503 713 473 736 c 128
 443 759 413 770 381 770 c 128
 349 770 319 754 289 722 c 128
 259 690 236 648 219 595 c 0
425 1262 m 128
 410 1241 402 1215 402 1182 c 128
 402 1149 411 1120 428 1095 c 128
 445 1070 467 1058 496 1058 c 0
 552 1058 580 1095 579 1170 c 0
 579 1205 571 1234 553 1258 c 128
 535 1282 514 1294 487 1294 c 128
 460 1294 440 1283 425 1262 c 128
607 1296 m 128
 635 1267 649 1229 649 1182 c 128
 649 1135 633 1096 602 1062 c 128
 571 1028 531 1011 485 1011 c 128
 439 1011 402 1026 374 1056 c 128
 346 1086 332 1124 332 1171 c 128
 332 1218 348 1258 380 1291 c 128
 412 1324 451 1340 497 1340 c 128
 543 1340 579 1325 607 1296 c 128
EndSplineSet
Colour: ffffff
EndChar

StartChar: ae
Encoding: 166 230 165
Width: 1043
VWidth: 1655
GlyphClass: 2
Flags: HMW
LayerCount: 2
Fore
SplineSet
858 897 m 0
 910 897 951 881 980 850 c 128
 1009 819 1024 775 1024 718 c 128
 1024 661 1001 604 955 544 c 128
 909 484 854 434 788 393 c 128
 722 352 659 323 598 305 c 1
 599 235 612 184 638 152 c 128
 664 120 700 104 747 104 c 0
 834 104 907 151 967 246 c 1
 1003 214 l 1
 981 148 941 91 882 42 c 128
 823 -7 757 -31 686 -31 c 128
 615 -31 558 -8 515 39 c 128
 472 86 448 151 442 235 c 1
 400 159 354 97 305 50 c 128
 256 3 206 -21 157 -21 c 0
 61 -21 13 59 13 218 c 0
 13 305 32 400 70 505 c 128
 108 610 161 701 225 779 c 128
 289 857 355 895 424 895 c 0
 459 895 492 879 521 847 c 128
 550 815 570 775 582 726 c 1
 665 840 757 897 858 897 c 0
231 628 m 128
 213 587 198 537 186 479 c 128
 174 421 168 360 168 294 c 128
 168 228 172 186 180 165 c 128
 188 144 205 134 231 134 c 0
 279 134 335 185 398 286 c 1
 461 387 505 512 532 660 c 1
 522 688 503 713 473 736 c 128
 443 759 415 770 386 770 c 128
 357 770 327 757 299 730 c 128
 271 703 249 669 231 628 c 128
799 512 m 128
 848 571 872 632 872 696 c 128
 872 760 846 791 793 791 c 0
 683 791 618 653 600 377 c 1
 683 408 750 453 799 512 c 128
EndSplineSet
Colour: ffffff
EndChar

StartChar: ccedilla
Encoding: 167 231 166
Width: 620
VWidth: 1655
GlyphClass: 2
Flags: HMW
LayerCount: 2
Fore
SplineSet
296 -75 m 1
 355 -126 384 -174 383 -221 c 0
 383 -290 318 -343 187 -381 c 1
 168 -323 l 1
 224 -303 252 -276 252 -242 c 0
 252 -215 228 -179 180 -134 c 1
 254 -31 l 1
 111 0 14 68.4362 14 322 c 128
 14 410.227 26 485.587 50 549 c 128
 74 618 106 677 144 727 c 128
 182 777 226 817 275 847 c 128
 324 877 376 893 428 893 c 128
 480 893 522 878 554 847 c 128
 586 816 601 778 601 732 c 128
 601 686 590 653 568 632 c 128
 546 611 511 598 462 592 c 1
 462 602 459 625 452 663 c 0
 439 732 419 774 392 790 c 0
 382 795 372 797 360 796 c 0
 300 796 254 760 223 687 c 128
 192 614 176 521 176 411 c 128
 176 301 189 221 217 172 c 128
 245 123 292 98 359 98 c 2
 361 98 l 2
 393 98 424 110 456 133 c 128
 488 156 515 188 536 227 c 1
 572 195 l 1
 559 146 529 101 483 59 c 128
 437 17 386 -11 329 -24 c 1
 296 -75 l 1
EndSplineSet
Colour: ffffff
EndChar

StartChar: egrave
Encoding: 168 232 167
Width: 616
VWidth: 1655
GlyphClass: 2
Flags: HMW
LayerCount: 2
Fore
SplineSet
553 849 m 128
 583 817 597 777 597 726 c 0
 597 630 548 547 449 477 c 1
 366 418 273 373 172 341 c 1
 176 183 230 104 335 104 c 0
 373 104 410 118 446 144 c 128
 482 170 513 204 541 246 c 1
 578 214 l 1
 555 147 513 89 455 41 c 128
 397 -7 330 -31 254 -31 c 128
 178 -31 120 -2 77 56 c 128
 34 114 13 193 13 293 c 128
 13 393 32 488 71 580 c 128
 110 672 162 749 227 808 c 128
 292 867 359 897 430 897 c 0
 482 897 523 881 553 849 c 128
445 698 m 0
 445 760 418 791 365 790 c 0
 253 790 189 664 173 414 c 1
 354 481 445 576 445 698 c 0
246 1315 m 1
 359 1351 l 1
 489 1024 l 1
 432 990 l 1
 246 1315 l 1
EndSplineSet
Colour: ffffff
EndChar

StartChar: eacute
Encoding: 169 233 168
Width: 686
VWidth: 1655
GlyphClass: 2
Flags: HMW
LayerCount: 2
Fore
SplineSet
553 849 m 128
 583 817 597 777 597 726 c 0
 597 630 548 547 449 477 c 1
 366 418 273 373 172 341 c 1
 176 183 230 104 335 104 c 0
 373 104 410 118 446 144 c 128
 482 170 513 204 541 246 c 1
 578 214 l 1
 555 147 513 89 455 41 c 128
 397 -7 330 -31 254 -31 c 128
 178 -31 120 -2 77 56 c 128
 34 114 13 193 13 293 c 128
 13 393 32 488 71 580 c 128
 110 672 162 749 227 808 c 128
 292 867 359 897 430 897 c 0
 482 897 523 881 553 849 c 128
445 698 m 0
 445 760 418 791 365 790 c 0
 253 790 189 664 173 414 c 1
 354 481 445 576 445 698 c 0
567 1320 m 5
 388 1010 l 5
 337 1041 l 5
 456 1359 l 5
 567 1320 l 5
EndSplineSet
Colour: ffffff
EndChar

StartChar: ecircumflex
Encoding: 170 234 169
Width: 661
VWidth: 1655
GlyphClass: 2
Flags: HMW
LayerCount: 2
Fore
SplineSet
553 849 m 128
 583 817 597 777 597 726 c 0
 597 630 548 547 449 477 c 1
 366 418 273 373 172 341 c 1
 176 183 230 104 335 104 c 0
 373 104 410 118 446 144 c 128
 482 170 513 204 541 246 c 1
 578 214 l 1
 555 147 513 89 455 41 c 128
 397 -7 330 -31 254 -31 c 128
 178 -31 120 -2 77 56 c 128
 34 114 13 193 13 293 c 128
 13 393 32 488 71 580 c 128
 110 672 162 749 227 808 c 128
 292 867 359 897 430 897 c 0
 482 897 523 881 553 849 c 128
445 698 m 0
 445 760 418 791 365 790 c 0
 253 790 189 664 173 414 c 1
 354 481 445 576 445 698 c 0
428 1236 m 1
 602 1055 l 1
 554 1019 l 1
 394 1127 l 1
 384 1127 l 1
 247 1018 l 1
 209 1047 l 1
 374 1224 l 1
 428 1236 l 1
EndSplineSet
Colour: ffffff
EndChar

StartChar: edieresis
Encoding: 171 235 170
Width: 681
VWidth: 1655
GlyphClass: 2
Flags: HMW
LayerCount: 2
Fore
SplineSet
553 849 m 128
 583 817 597 777 597 726 c 0
 597 630 548 547 449 477 c 1
 366 418 273 373 172 341 c 1
 176 183 230 104 335 104 c 0
 373 104 410 118 446 144 c 128
 482 170 513 204 541 246 c 1
 578 214 l 1
 555 147 513 89 455 41 c 128
 397 -7 330 -31 254 -31 c 128
 178 -31 120 -2 77 56 c 128
 34 114 13 193 13 293 c 128
 13 393 32 488 71 580 c 128
 110 672 162 749 227 808 c 128
 292 867 359 897 430 897 c 0
 482 897 523 881 553 849 c 128
445 698 m 0
 445 760 418 791 365 790 c 0
 253 790 189 664 173 414 c 1
 354 481 445 576 445 698 c 0
636 1177 m 128
 653 1162 662 1144 662 1122 c 128
 662 1100 653 1082 636 1066 c 128
 619 1050 600 1043 577 1043 c 128
 554 1043 534 1050 518 1066 c 128
 502 1082 494 1100 494 1122 c 128
 494 1145 502 1163 518 1178 c 128
 534 1193 554 1199 577 1199 c 128
 600 1199 619 1192 636 1177 c 128
373 1177 m 128
 390 1162 398 1143 398 1121 c 128
 398 1099 390 1081 373 1066 c 128
 356 1051 338 1043 315 1043 c 128
 292 1043 272 1050 256 1066 c 128
 240 1082 232 1100 232 1122 c 128
 232 1145 240 1163 256 1178 c 128
 272 1193 292 1199 315 1199 c 128
 338 1199 356 1192 373 1177 c 128
EndSplineSet
Colour: ffffff
EndChar

StartChar: igrave
Encoding: 172 236 171
Width: 603
VWidth: 1655
GlyphClass: 2
Flags: HMW
LayerCount: 2
Fore
SplineSet
353 254 m 1
 349 225 348 201 348 181 c 0
 348 142 359 123 382 123 c 128
 405 123 432 134 464 157 c 128
 496 180 522 209 542 246 c 1
 584 217 l 1
 524 57 428 -23 296 -23 c 0
 255 -23 225 -10 208 15 c 128
 191 40 183 71 183 108 c 128
 183 145 187 208 196 296 c 1
 232 611 l 2
 234 634 235 656 235 676 c 0
 235 728 223 754 199 754 c 128
 175 754 130 702 61 599 c 1
 13 631 l 1
 42 707 85 772 141 826 c 128
 197 880 252 906 307 906 c 0
 369 906 400 859 398 766 c 0
 398 758 393 692 381 569 c 1
 353 254 l 1
98 1331 m 1
 210 1367 l 1
 339 1041 l 1
 284 1006 l 1
 98 1331 l 1
EndSplineSet
Colour: ffffff
EndChar

StartChar: iacute
Encoding: 173 237 172
Width: 603
VWidth: 1655
GlyphClass: 2
Flags: HMW
LayerCount: 2
Fore
SplineSet
353 254 m 1
 349 225 348 201 348 181 c 0
 348 142 359 123 382 123 c 128
 405 123 432 134 464 157 c 128
 496 180 522 209 542 246 c 1
 584 217 l 1
 524 57 428 -23 296 -23 c 0
 255 -23 225 -10 208 15 c 128
 191 40 183 71 183 108 c 128
 183 145 187 208 196 296 c 1
 232 611 l 2
 234 634 235 656 235 676 c 0
 235 728 223 754 199 754 c 128
 175 754 130 702 61 599 c 1
 13 631 l 1
 42 707 85 772 141 826 c 128
 197 880 252 906 307 906 c 0
 369 906 400 859 398 766 c 0
 398 758 393 692 381 569 c 1
 353 254 l 1
519 1336 m 1
 337 1026 l 1
 289 1057 l 1
 407 1375 l 1
 519 1336 l 1
EndSplineSet
Colour: ffffff
EndChar

StartChar: icircumflex
Encoding: 174 238 173
Width: 603
VWidth: 1655
GlyphClass: 2
Flags: HMW
LayerCount: 2
Fore
SplineSet
353 254 m 1
 349 225 348 201 348 181 c 0
 348 142 359 123 382 123 c 128
 405 123 432 134 464 157 c 128
 496 180 522 209 542 246 c 1
 584 217 l 1
 524 57 428 -23 296 -23 c 0
 255 -23 225 -10 208 15 c 128
 191 40 183 71 183 108 c 128
 183 145 187 208 196 296 c 1
 232 611 l 2
 234 634 235 656 235 676 c 0
 235 728 223 754 199 754 c 128
 175 754 130 702 61 599 c 1
 13 631 l 1
 42 707 85 772 141 826 c 128
 197 880 252 906 307 906 c 0
 369 906 400 859 398 766 c 0
 398 758 393 692 381 569 c 1
 353 254 l 1
318 1252 m 1
 494 1071 l 1
 445 1036 l 1
 285 1142 l 1
 275 1142 l 1
 137 1034 l 1
 101 1064 l 1
 266 1239 l 1
 318 1252 l 1
EndSplineSet
Colour: ffffff
EndChar

StartChar: idieresis
Encoding: 175 239 174
Width: 603
VWidth: 1655
GlyphClass: 2
Flags: HMW
LayerCount: 2
Fore
SplineSet
353 254 m 1
 349 225 348 201 348 181 c 0
 348 142 359 123 382 123 c 128
 405 123 432 134 464 157 c 128
 496 180 522 209 542 246 c 1
 584 217 l 1
 524 57 428 -23 296 -23 c 0
 255 -23 225 -10 208 15 c 128
 191 40 183 71 183 108 c 128
 183 145 187 208 196 296 c 1
 232 611 l 2
 234 634 235 656 235 676 c 0
 235 728 223 754 199 754 c 128
 175 754 130 702 61 599 c 1
 13 631 l 1
 42 707 85 772 141 826 c 128
 197 880 252 906 307 906 c 0
 369 906 400 859 398 766 c 0
 398 758 393 692 381 569 c 1
 353 254 l 1
488 1193 m 128
 506 1178 514 1160 514 1138 c 128
 514 1116 506 1099 488 1083 c 128
 470 1067 451 1060 428 1060 c 128
 405 1060 385 1067 368 1083 c 128
 351 1099 344 1117 344 1139 c 128
 344 1161 351 1179 368 1194 c 128
 385 1209 405 1215 428 1215 c 128
 451 1215 470 1208 488 1193 c 128
224 1193 m 128
 241 1178 249 1160 249 1138 c 128
 249 1116 241 1098 224 1083 c 128
 207 1068 188 1060 165 1060 c 128
 142 1060 122 1067 106 1083 c 128
 90 1099 83 1117 83 1139 c 128
 83 1161 90 1179 106 1194 c 128
 122 1209 142 1215 165 1215 c 128
 188 1215 207 1208 224 1193 c 128
EndSplineSet
Colour: ffffff
EndChar

StartChar: eth
Encoding: 176 240 175
Width: 782
VWidth: 1655
GlyphClass: 2
Flags: HMW
LayerCount: 2
Fore
SplineSet
640 1085 m 1
 721 951 761 792 762 608 c 0
 762 389 709 221 603 105 c 0
 523 18 431 -26 327 -26 c 0
 258 -26 200 -9 153 24 c 0
 60 89 14 198 13 353 c 0
 13 382 14 411 18 442 c 1
 35 577 83 683 164 762 c 128
 245 841 339 881 447 881 c 0
 478 881 507 873 533 858 c 128
 559 843 575 821 582 791 c 1
 588 791 l 1
 576 853 549 939 506 1048 c 1
 299 1008 l 1
 318 1085 l 1
 478 1117 l 1
 455 1164 419 1218 370 1277 c 1
 478 1277 l 1
 529 1234 570 1190 602 1145 c 1
 743 1176 l 1
 724 1101 l 1
 640 1085 l 1
419 790 m 2
 353 790 302 766 265 717 c 128
 228 668 203 592 189 489 c 0
 184 457 182 420 184 377 c 0
 184 280 199 205 230 151 c 128
 261 97 307 70 368 70 c 0
 486 70 559 185 587 416 c 0
 591 445 592 474 592 502 c 0
 592 587 577 656 546 708 c 128
 515 760 475 787 426 790 c 1
 419 790 l 2
EndSplineSet
Colour: ffffff
EndChar

StartChar: ntilde
Encoding: 177 241 176
Width: 1018
VWidth: 1655
GlyphClass: 2
Flags: HMW
LayerCount: 2
Fore
SplineSet
354 344 m 1
 350 207 337 112 311 56 c 128
 285 0 243 -28 184 -28 c 0
 182 -28 168 -27 142 -24 c 1
 128 3 l 1
 210 388 l 1
 232 620 l 2
 234 648 235 673 235 696 c 0
 235 745 223 769 198 768 c 0
 185 768 165 751 136 718 c 128
 107 685 82 650 61 613 c 1
 13 651 l 1
 40 724 82 786 138 840 c 128
 194 894 252 921 313 921 c 0
 365 921 391 887 390 818 c 0
 390 788 386 753 377 713 c 0
 367 672 362 644 359 627 c 0
 351 592 348 574 349 573 c 1
 360 567 l 1
 390 658 435 737 494 801 c 128
 553 865 609 897 662 897 c 128
 715 897 755 883 781 856 c 128
 807 829 820 794 820 750 c 128
 820 706 817 662 811 615 c 1
 767 253 l 2
 762 218 760 195 760 181 c 0
 760 141 772 121 795 121 c 128
 818 121 846 133 878 156 c 128
 910 179 936 209 956 246 c 1
 999 216 l 1
 939 56 838 -24 695 -24 c 0
 630 -24 597 18 597 101 c 0
 597 112 604 177 618 295 c 2
 641 488 l 2
 651 571 655 625 656 649 c 0
 656 698 637 722 600 721 c 0
 495 721 413 595 354 344 c 1
827 1203 m 1
 796 1109 753 1062 700 1064 c 2
 688 1064 l 1
 470 1094 l 1
 466 1094 l 2
 446 1094 430 1082 416 1058 c 1
 407 1047 l 1
 370 1055 l 1
 372 1062 375 1072 379 1086 c 128
 383 1100 391 1116 405 1136 c 0
 430 1175 458 1195 491 1196 c 2
 497 1196 l 1
 499 1194 500 1194 504 1194 c 2
 723 1164 l 1
 725 1164 l 2
 743 1164 760 1178 780 1205 c 1
 827 1203 l 1
EndSplineSet
Colour: ffffff
EndChar

StartChar: ograve
Encoding: 178 242 177
Width: 694
VWidth: 1655
GlyphClass: 2
Flags: HMW
LayerCount: 2
Fore
SplineSet
84 79 m 128
 36 149 13 236 13 340 c 128
 13 444 31 537 66 620 c 128
 101 703 148 770 209 821 c 128
 270 872 337 897 410 897 c 128
 483 897 546 863 597 795 c 128
 648 727 674 644 674 546 c 128
 674 448 659 358 628 274 c 128
 597 190 551 119 490 61 c 128
 429 3 358 -26 277 -26 c 128
 196 -26 132 9 84 79 c 128
235 733 m 0
 181 672 154 581 154 460 c 0
 154 325 185 221 246 146 c 0
 276 109 309 89 346 90 c 128
 383 91 416 107 445 139 c 0
 501 204 529 300 529 424 c 0
 529 558 499 659 440 730 c 0
 410 765 376 783 338 784 c 128
 300 785 266 767 235 733 c 0
204 1298 m 1
 316 1336 l 1
 447 1008 l 1
 390 973 l 1
 204 1298 l 1
EndSplineSet
Colour: ffffff
EndChar

StartChar: oacute
Encoding: 179 243 178
Width: 694
VWidth: 1655
GlyphClass: 2
Flags: HMW
LayerCount: 2
Fore
SplineSet
84 79 m 128
 36 149 13 236 13 340 c 128
 13 444 31 537 66 620 c 128
 101 703 148 770 209 821 c 128
 270 872 337 897 410 897 c 128
 483 897 546 863 597 795 c 128
 648 727 674 644 674 546 c 128
 674 448 659 358 628 274 c 128
 597 190 551 119 490 61 c 128
 429 3 358 -26 277 -26 c 128
 196 -26 132 9 84 79 c 128
235 733 m 0
 181 672 154 581 154 460 c 0
 154 325 185 221 246 146 c 0
 276 109 309 89 346 90 c 128
 383 91 416 107 445 139 c 0
 501 204 529 300 529 424 c 0
 529 558 499 659 440 730 c 0
 410 765 376 783 338 784 c 128
 300 785 266 767 235 733 c 0
625 1304 m 1
 445 994 l 1
 395 1024 l 1
 515 1342 l 1
 625 1304 l 1
EndSplineSet
Colour: ffffff
EndChar

StartChar: ocircumflex
Encoding: 180 244 179
Width: 695
VWidth: 1655
GlyphClass: 2
Flags: HMW
LayerCount: 2
Fore
SplineSet
85 79 m 128
 37 149 14 236 14 340 c 128
 14 444 32 537 67 620 c 128
 102 703 149 770 210 821 c 128
 271 872 338 897 411 897 c 128
 484 897 547 863 598 795 c 128
 649 727 675 644 675 546 c 128
 675 448 660 358 629 274 c 128
 598 190 552 119 491 61 c 128
 430 3 359 -26 278 -26 c 128
 197 -26 133 9 85 79 c 128
236 733 m 0
 182 672 155 581 155 460 c 0
 155 325 186 221 247 146 c 0
 277 109 310 89 347 90 c 128
 384 91 417 107 446 139 c 0
 502 204 530 300 530 424 c 0
 530 558 500 659 441 730 c 0
 411 765 377 783 339 784 c 128
 301 785 267 767 236 733 c 0
427 1220 m 1
 601 1039 l 1
 552 1003 l 1
 392 1111 l 1
 383 1111 l 1
 246 1001 l 1
 208 1031 l 1
 373 1207 l 1
 427 1220 l 1
EndSplineSet
Colour: ffffff
EndChar

StartChar: otilde
Encoding: 181 245 180
Width: 695
VWidth: 1655
GlyphClass: 2
Flags: HMW
LayerCount: 2
Fore
SplineSet
85 79 m 128
 37 149 14 236 14 340 c 128
 14 444 32 537 67 620 c 128
 102 703 149 770 210 821 c 128
 271 872 338 897 411 897 c 128
 484 897 547 863 598 795 c 128
 649 727 675 644 675 546 c 128
 675 448 660 358 629 274 c 128
 598 190 552 119 491 61 c 128
 430 3 359 -26 278 -26 c 128
 197 -26 133 9 85 79 c 128
236 733 m 0
 182 672 155 581 155 460 c 0
 155 325 186 221 247 146 c 0
 277 109 310 89 347 90 c 128
 384 91 417 107 446 139 c 0
 502 204 530 300 530 424 c 0
 530 558 500 659 441 730 c 0
 411 765 377 783 339 784 c 128
 301 785 267 767 236 733 c 0
634 1171 m 1
 603 1077 560 1030 506 1031 c 2
 495 1031 l 1
 276 1062 l 1
 273 1062 l 2
 253 1062 237 1050 223 1026 c 1
 215 1015 l 1
 177 1022 l 1
 179 1029 182 1039 186 1053 c 128
 190 1067 198 1084 211 1105 c 0
 236 1144 264 1164 297 1163 c 2
 304 1163 l 1
 306 1161 307 1161 311 1161 c 2
 528 1132 l 1
 531 1132 l 2
 549 1132 567 1146 587 1173 c 1
 634 1171 l 1
EndSplineSet
Colour: ffffff
EndChar

StartChar: odieresis
Encoding: 182 246 181
Width: 695
VWidth: 1655
GlyphClass: 2
Flags: HMW
LayerCount: 2
Fore
SplineSet
85 79 m 128
 37 149 14 236 14 340 c 128
 14 444 32 537 67 620 c 128
 102 703 149 770 210 821 c 128
 271 872 338 897 411 897 c 128
 484 897 547 863 598 795 c 128
 649 727 675 644 675 546 c 128
 675 448 660 358 629 274 c 128
 598 190 552 119 491 61 c 128
 430 3 359 -26 278 -26 c 128
 197 -26 133 9 85 79 c 128
236 733 m 0
 182 672 155 581 155 460 c 0
 155 325 186 221 247 146 c 0
 277 109 310 89 347 90 c 128
 384 91 417 107 446 139 c 0
 502 204 530 300 530 424 c 0
 530 558 500 659 441 730 c 0
 411 765 377 783 339 784 c 128
 301 785 267 767 236 733 c 0
595 1160 m 128
 613 1145 621 1127 621 1105 c 128
 621 1083 613 1066 595 1050 c 128
 577 1034 558 1027 535 1027 c 128
 512 1027 493 1034 476 1050 c 128
 459 1066 452 1084 452 1106 c 128
 452 1128 459 1146 476 1161 c 128
 493 1176 512 1182 535 1182 c 128
 558 1182 577 1175 595 1160 c 128
332 1160 m 128
 349 1145 357 1127 357 1105 c 128
 357 1083 349 1065 332 1050 c 128
 315 1035 297 1027 274 1027 c 128
 251 1027 231 1034 214 1050 c 128
 197 1066 190 1084 190 1106 c 128
 190 1128 197 1146 214 1161 c 128
 231 1176 251 1182 274 1182 c 128
 297 1182 315 1175 332 1160 c 128
EndSplineSet
Colour: ffffff
EndChar

StartChar: divide
Encoding: 183 247 182
Width: 855
VWidth: 1655
GlyphClass: 2
Flags: HMW
LayerCount: 2
Fore
SplineSet
581 790 m 0
 581 782 581 777 579 773 c 1
 573 740 558 711 531 688 c 128
 504 665 475 653 444 653 c 128
 413 653 388 662 370 682 c 128
 352 702 344 720 344 740 c 128
 344 760 344 771 345 775 c 1
 349 806 364 832 390 853 c 128
 416 874 445 885 476 885 c 132
 507 885 532 876 552 857 c 128
 572 838 581 817 581 790 c 0
493 238 m 0
 493 230 493 225 492 221 c 1
 486 188 470 160 443 137 c 128
 416 114 386 103 356 103 c 128
 326 103 302 112 283 131 c 128
 264 150 255 168 255 188 c 128
 255 208 255 219 257 223 c 1
 261 254 276 280 303 301 c 128
 330 322 358 332 389 332 c 128
 420 332 444 323 464 305 c 128
 484 287 493 265 493 238 c 0
40 548 m 1
 836 548 l 1
 808 446 l 1
 13 446 l 1
 40 548 l 1
EndSplineSet
Colour: ffffff
EndChar

StartChar: oslash
Encoding: 184 248 183
Width: 710
VWidth: 1655
GlyphClass: 2
Flags: HMW
LayerCount: 2
Fore
SplineSet
248 163 m 1
 282 114 318 89 358 90 c 128
 398 91 432 107 461 139 c 0
 517 204 545 300 545 424 c 0
 545 503 532 576 505 644 c 1
 248 163 l 1
251 733 m 0
 197 672 170 581 170 460 c 0
 170 377 183 301 210 233 c 1
 467 716 l 1
 436 761 400 784 359 784 c 128
 318 784 282 767 251 733 c 0
550 915 m 1
 679 923 l 1
 611 794 l 1
 663 727 689 645 690 547 c 128
 691 449 675 358 644 274 c 128
 613 190 567 119 506 61 c 128
 445 3 375 -26 296 -26 c 0
 257 -26 219 -17 184 2 c 1
 142 -77 l 1
 13 -84 l 1
 102 80 l 1
 53 149 29 235 29 339 c 128
 29 443 47 537 82 620 c 128
 117 703 164 770 225 821 c 128
 286 872 351 897 421 897 c 0
 453 897 488 888 526 869 c 1
 550 915 l 1
EndSplineSet
Colour: ffffff
EndChar

StartChar: ugrave
Encoding: 185 249 184
Width: 991
VWidth: 1655
GlyphClass: 2
Flags: HMW
LayerCount: 2
Fore
SplineSet
662 817 m 1
 685 872 724 900 781 900 c 0
 795 900 808 899 823 895 c 1
 839 867 l 1
 769 484 l 1
 752 284 l 2
 747 233 744 199 745 178 c 128
 746 157 748 143 754 135 c 128
 760 127 771 123 787 123 c 128
 803 123 826 139 857 170 c 128
 888 201 913 234 933 270 c 1
 972 242 l 1
 920 64 823 -25 679 -24 c 0
 620 -24 591 17 590 98 c 0
 590 139 599 194 618 263 c 1
 607 265 l 1
 574 174 532 102 483 51 c 128
 434 0 382 -26 329 -26 c 128
 276 -26 235 -12 209 16 c 128
 183 44 170 77 170 118 c 128
 170 159 173 205 179 256 c 1
 232 602 l 1
 237 637 239 661 238 676 c 0
 238 717 227 737 204 738 c 0
 173 738 125 689 61 592 c 1
 13 623 l 1
 42 699 85 765 141 819 c 128
 197 873 252 900 307 900 c 0
 372 900 405 857 403 770 c 0
 403 743 395 673 377 561 c 2
 349 385 l 1
 339 328 335 281 335 242 c 128
 335 203 338 179 347 167 c 128
 356 155 370 150 390 150 c 0
 438 150 481 179 520 237 c 1
 559 296 594 393 625 527 c 1
 627 668 639 764 662 817 c 1
364 1331 m 1
 477 1367 l 1
 607 1041 l 1
 550 1006 l 1
 364 1331 l 1
EndSplineSet
Colour: ffffff
EndChar

StartChar: uacute
Encoding: 186 250 185
Width: 991
VWidth: 1655
GlyphClass: 2
Flags: HMW
LayerCount: 2
Fore
SplineSet
662 817 m 1
 685 872 724 900 781 900 c 0
 795 900 808 899 823 895 c 1
 839 867 l 1
 769 484 l 1
 752 284 l 2
 747 233 744 199 745 178 c 128
 746 157 748 143 754 135 c 128
 760 127 771 123 787 123 c 128
 803 123 826 139 857 170 c 128
 888 201 913 234 933 270 c 1
 972 242 l 1
 920 64 823 -25 679 -24 c 0
 620 -24 591 17 590 98 c 0
 590 139 599 194 618 263 c 1
 607 265 l 1
 574 174 532 102 483 51 c 128
 434 0 382 -26 329 -26 c 128
 276 -26 235 -12 209 16 c 128
 183 44 170 77 170 118 c 128
 170 159 173 205 179 256 c 1
 232 602 l 1
 237 637 239 661 238 676 c 0
 238 717 227 737 204 738 c 0
 173 738 125 689 61 592 c 1
 13 623 l 1
 42 699 85 765 141 819 c 128
 197 873 252 900 307 900 c 0
 372 900 405 857 403 770 c 0
 403 743 395 673 377 561 c 2
 349 385 l 1
 339 328 335 281 335 242 c 128
 335 203 338 179 347 167 c 128
 356 155 370 150 390 150 c 0
 438 150 481 179 520 237 c 1
 559 296 594 393 625 527 c 1
 627 668 639 764 662 817 c 1
785 1336 m 1
 605 1026 l 1
 555 1057 l 1
 675 1375 l 1
 785 1336 l 1
EndSplineSet
Colour: ffffff
EndChar

StartChar: ucircumflex
Encoding: 187 251 186
Width: 991
VWidth: 1655
GlyphClass: 2
Flags: HMW
LayerCount: 2
Fore
SplineSet
662 817 m 1
 685 872 724 900 781 900 c 0
 795 900 808 899 823 895 c 1
 839 867 l 1
 769 484 l 1
 752 284 l 2
 747 233 744 199 745 178 c 128
 746 157 748 143 754 135 c 128
 760 127 771 123 787 123 c 128
 803 123 826 139 857 170 c 128
 888 201 913 234 933 270 c 1
 972 242 l 1
 920 64 823 -25 679 -24 c 0
 620 -24 591 17 590 98 c 0
 590 139 599 194 618 263 c 1
 607 265 l 1
 574 174 532 102 483 51 c 128
 434 0 382 -26 329 -26 c 128
 276 -26 235 -12 209 16 c 128
 183 44 170 77 170 118 c 128
 170 159 173 205 179 256 c 1
 232 602 l 1
 237 637 239 661 238 676 c 0
 238 717 227 737 204 738 c 0
 173 738 125 689 61 592 c 1
 13 623 l 1
 42 699 85 765 141 819 c 128
 197 873 252 900 307 900 c 0
 372 900 405 857 403 770 c 0
 403 743 395 673 377 561 c 2
 349 385 l 1
 339 328 335 281 335 242 c 128
 335 203 338 179 347 167 c 128
 356 155 370 150 390 150 c 0
 438 150 481 179 520 237 c 1
 559 296 594 393 625 527 c 1
 627 668 639 764 662 817 c 1
586 1252 m 1
 760 1071 l 1
 712 1036 l 1
 551 1142 l 1
 542 1142 l 1
 405 1034 l 1
 367 1064 l 1
 532 1239 l 1
 586 1252 l 1
EndSplineSet
Colour: ffffff
EndChar

StartChar: udieresis
Encoding: 188 252 187
Width: 991
VWidth: 1655
GlyphClass: 2
Flags: HMW
LayerCount: 2
Fore
SplineSet
662 817 m 1
 685 872 724 900 781 900 c 0
 795 900 808 899 823 895 c 1
 839 867 l 1
 769 484 l 1
 752 284 l 2
 747 233 744 199 745 178 c 128
 746 157 748 143 754 135 c 128
 760 127 771 123 787 123 c 128
 803 123 826 139 857 170 c 128
 888 201 913 234 933 270 c 1
 972 242 l 1
 920 64 823 -25 679 -24 c 0
 620 -24 591 17 590 98 c 0
 590 139 599 194 618 263 c 1
 607 265 l 1
 574 174 532 102 483 51 c 128
 434 0 382 -26 329 -26 c 128
 276 -26 235 -12 209 16 c 128
 183 44 170 77 170 118 c 128
 170 159 173 205 179 256 c 1
 232 602 l 1
 237 637 239 661 238 676 c 0
 238 717 227 737 204 738 c 0
 173 738 125 689 61 592 c 1
 13 623 l 1
 42 699 85 765 141 819 c 128
 197 873 252 900 307 900 c 0
 372 900 405 857 403 770 c 0
 403 743 395 673 377 561 c 2
 349 385 l 1
 339 328 335 281 335 242 c 128
 335 203 338 179 347 167 c 128
 356 155 370 150 390 150 c 0
 438 150 481 179 520 237 c 1
 559 296 594 393 625 527 c 1
 627 668 639 764 662 817 c 1
754 1193 m 128
 772 1178 780 1160 780 1138 c 128
 780 1116 772 1099 754 1083 c 128
 736 1067 717 1060 694 1060 c 128
 671 1060 652 1067 636 1083 c 128
 620 1099 612 1117 612 1139 c 128
 612 1161 620 1179 636 1194 c 128
 652 1209 671 1215 694 1215 c 128
 717 1215 736 1208 754 1193 c 128
492 1193 m 128
 509 1178 517 1160 517 1138 c 128
 517 1116 509 1098 492 1083 c 128
 475 1068 456 1060 433 1060 c 128
 410 1060 390 1067 373 1083 c 128
 356 1099 349 1117 349 1139 c 128
 349 1161 356 1179 373 1194 c 128
 390 1209 410 1215 433 1215 c 128
 456 1215 475 1208 492 1193 c 128
EndSplineSet
Colour: ffffff
EndChar

StartChar: yacute
Encoding: 189 253 188
Width: 856
VWidth: 1655
GlyphClass: 2
Flags: HMW
LayerCount: 2
Fore
SplineSet
62 592 m 1
 13 629 l 1
 38 700 75 764 127 819 c 128
 179 874 230 902 278 902 c 128
 326 902 362 885 387 852 c 128
 412 819 429 766 439 693 c 2
 500 205 l 1
 505 162 l 1
 514 162 l 1
 590 276 636 354 651 395 c 128
 666 436 674 467 677 490 c 128
 680 513 681 545 681 585 c 128
 681 625 667 671 640 723 c 128
 613 775 581 817 546 848 c 1
 559 864 577 877 601 889 c 128
 625 901 649 906 672 906 c 0
 717 906 755 886 788 846 c 128
 821 806 837 760 837 707 c 0
 837 616 812 524 763 429 c 128
 714 334 628 206 504 46 c 1
 491 -73 451 -174 385 -257 c 128
 319 -340 242 -381 155 -381 c 0
 117 -381 85 -370 57 -349 c 128
 29 -328 15 -302 15 -270 c 2
 15 -265 l 1
 18 -236 23 -213 32 -195 c 128
 41 -177 57 -160 80 -141 c 1
 131 -189 182 -213 231 -212 c 128
 280 -211 316 -198 339 -170 c 128
 362 -142 374 -93 374 -24 c 0
 374 13 371 57 364 109 c 2
 300 610 l 2
 294 652 284 685 266 710 c 128
 248 735 229 748 208 748 c 128
 187 748 165 733 138 703 c 128
 111 673 85 635 62 592 c 1
734 1336 m 1
 555 1026 l 1
 505 1057 l 1
 625 1375 l 1
 734 1336 l 1
EndSplineSet
Colour: ffffff
EndChar

StartChar: thorn
Encoding: 190 254 189
Width: 914
VWidth: 1655
GlyphClass: 2
Flags: HMW
LayerCount: 2
Back
SplineSet
164 -251 m 1
 309 887 l 1
 345 1145 l 1
 206 1171 l 1
 217 1246 l 1
 505 1269 l 1
 522 1248 l 1
 464 839 l 1
 396 560 l 1
 408 558 l 1
 445 652 488 730 539 791 c 128
 590 852 643 882 699 882 c 128
 755 882 801 852 838 790 c 128
 875 728 894 646 894 545 c 128
 894 444 879 355 850 278 c 128
 821 201 780 142 729 103 c 0
 632 27 522 -11 401 -13 c 1
 391 61 l 1
 433 66 466 71 491 79 c 128
 516 87 544 99 576 119 c 0
 608 139 633 164 653 195 c 0
 699 268 722 378 722 527 c 0
 722 596 715 645 702 676 c 128
 689 707 668 722 637 722 c 0
 586 722 533 673 480 574 c 1
 426 473 390 341 371 179 c 1
 308 -270 l 1
 490 -291 l 1
 473 -362 l 1
 13 -362 l 1
 32 -293 l 1
 164 -251 l 1
EndSplineSet
Fore
SplineSet
164 -251 m 1
 309 887 l 1
 349 1175 l 1
 210 1201 l 1
 221 1276 l 1
 509 1299 l 1
 526 1278 l 1
 464 839 l 1
 396 560 l 1
 408 558 l 1
 445 652 488 730 539 791 c 128
 590 852 643 882 699 882 c 128
 755 882 801 852 838 790 c 128
 875 728 894 646 894 545 c 128
 894 444 879 355 850 278 c 128
 821 201 780 142 729 103 c 0
 632 27 522 -11 401 -13 c 1
 391 61 l 1
 433 66 466 71 491 79 c 128
 516 87 544 99 576 119 c 0
 608 139 633 164 653 195 c 0
 699 268 722 378 722 527 c 0
 722 596 715 645 702 676 c 128
 689 707 668 722 637 722 c 0
 586 722 533 673 480 574 c 1
 426 473 390 341 371 179 c 1
 308 -270 l 1
 490 -291 l 1
 473 -362 l 1
 13 -362 l 1
 32 -293 l 1
 164 -251 l 1
EndSplineSet
Colour: ffffff
EndChar

StartChar: ydieresis
Encoding: 191 255 190
Width: 856
VWidth: 1655
GlyphClass: 2
Flags: HMW
LayerCount: 2
Fore
SplineSet
62 592 m 1
 13 629 l 1
 38 700 75 764 127 819 c 128
 179 874 230 902 278 902 c 128
 326 902 362 885 387 852 c 128
 412 819 429 766 439 693 c 2
 500 205 l 1
 505 162 l 1
 514 162 l 1
 590 276 636 354 651 395 c 128
 666 436 674 467 677 490 c 128
 680 513 681 545 681 585 c 128
 681 625 667 671 640 723 c 128
 613 775 581 817 546 848 c 1
 559 864 577 877 601 889 c 128
 625 901 649 906 672 906 c 0
 717 906 755 886 788 846 c 128
 821 806 837 760 837 707 c 0
 837 616 812 524 763 429 c 128
 714 334 628 206 504 46 c 1
 491 -73 451 -174 385 -257 c 128
 319 -340 242 -381 155 -381 c 0
 117 -381 85 -370 57 -349 c 128
 29 -328 15 -302 15 -270 c 2
 15 -265 l 1
 18 -236 23 -213 32 -195 c 128
 41 -177 57 -160 80 -141 c 1
 131 -189 182 -213 231 -212 c 128
 280 -211 316 -198 339 -170 c 128
 362 -142 374 -93 374 -24 c 0
 374 13 371 57 364 109 c 2
 300 610 l 2
 294 652 284 685 266 710 c 128
 248 735 229 748 208 748 c 128
 187 748 165 733 138 703 c 128
 111 673 85 635 62 592 c 1
705 1193 m 128
 722 1178 729 1160 729 1138 c 128
 729 1116 722 1099 705 1083 c 128
 688 1067 668 1060 645 1060 c 128
 622 1060 602 1067 586 1083 c 128
 570 1099 562 1117 562 1139 c 128
 562 1161 570 1179 586 1194 c 128
 602 1209 622 1215 645 1215 c 128
 668 1215 688 1208 705 1193 c 128
442 1193 m 128
 459 1178 466 1160 466 1138 c 128
 466 1116 459 1098 442 1083 c 128
 425 1068 405 1060 382 1060 c 128
 359 1060 340 1067 324 1083 c 128
 308 1099 300 1117 300 1139 c 128
 300 1161 308 1179 324 1194 c 128
 340 1209 359 1215 382 1215 c 128
 405 1215 425 1208 442 1193 c 128
EndSplineSet
Colour: ffffff
EndChar

StartChar: circumflex
Encoding: 192 710 191
Width: 474
VWidth: 1655
GlyphClass: 2
Flags: HMW
LayerCount: 2
Fore
SplineSet
258 1548 m 1
 434 1367 l 1
 385 1332 l 1
 225 1438 l 1
 215 1438 l 1
 77 1331 l 1
 40 1359 l 1
 206 1536 l 1
 258 1548 l 1
EndSplineSet
Colour: ffffff
EndChar

StartChar: dotaccent
Encoding: 193 729 192
Width: 316
VWidth: 1655
GlyphClass: 2
Flags: HMW
LayerCount: 2
Fore
SplineSet
241 1527 m 128
 264 1506 276 1480 276 1448 c 128
 276 1416 264 1387 241 1364 c 128
 218 1341 190 1329 157 1329 c 128
 124 1329 97 1341 74 1364 c 128
 51 1387 40 1415 40 1448 c 128
 40 1481 52 1507 75 1528 c 128
 98 1549 125 1559 157 1559 c 128
 189 1559 218 1548 241 1527 c 128
EndSplineSet
Colour: ffffff
EndChar

StartChar: ring
Encoding: 194 730 193
Width: 398
VWidth: 1655
GlyphClass: 2
Flags: HMW
LayerCount: 2
Fore
SplineSet
133 1586 m 128
 117 1565 110 1538 110 1505 c 128
 110 1472 118 1444 136 1419 c 128
 154 1394 176 1382 204 1382 c 0
 260 1382 288 1419 288 1494 c 0
 288 1529 279 1558 261 1582 c 128
 243 1606 222 1617 196 1617 c 128
 170 1617 149 1607 133 1586 c 128
316 1620 m 128
 344 1590 358 1551 358 1505 c 128
 358 1459 343 1419 311 1386 c 128
 279 1353 240 1336 194 1336 c 128
 148 1336 110 1350 82 1379 c 128
 54 1408 40 1446 40 1493 c 128
 40 1540 56 1580 89 1614 c 128
 122 1648 161 1665 206 1665 c 128
 251 1665 288 1650 316 1620 c 128
EndSplineSet
Colour: ffffff
EndChar

StartChar: tilde
Encoding: 195 732 194
Width: 539
VWidth: 1655
GlyphClass: 2
Flags: HMW
LayerCount: 2
Fore
SplineSet
137 1389 m 2
 120 1389 101 1373 78 1342 c 1
 41 1351 l 1
 43 1358 46 1367 50 1381 c 128
 54 1395 62 1412 75 1432 c 0
 100 1471 128 1491 161 1492 c 2
 168 1492 l 1
 170 1490 172 1490 174 1490 c 2
 392 1461 l 1
 396 1461 l 2
 410 1461 428 1474 450 1501 c 1
 498 1500 l 1
 467 1406 424 1359 370 1359 c 2
 359 1359 l 1
 140 1389 l 1
 137 1389 l 2
EndSplineSet
Colour: ffffff
EndChar

StartChar: Germandbls
Encoding: 196 7838 195
Width: 1376
VWidth: 1655
GlyphClass: 2
Flags: HMW
LayerCount: 2
Fore
SplineSet
788 369 m 1
 768 317 757 271 758 232 c 128
 759 193 764 164 775 144 c 1
 784 122 800 103 823 86 c 0
 859 60 897 47 937 47 c 128
 977 47 1011 57 1042 78 c 0
 1094 113 1120 160 1120 220 c 0
 1120 268 1109 308 1086 341 c 128
 1063 374 1013 428 936 502 c 128
 859 576 804 631 773 667 c 128
 742 703 719 738 704 770 c 128
 689 802 681 839 681 882 c 2
 681 893 l 1
 683 939 695 981 717 1020 c 1
 755 1090 813 1142 890 1176 c 1
 890 1184 l 1
 876 1184 l 2
 790 1184 719 1160 662 1113 c 128
 605 1066 566 1005 545 931 c 1
 536 902 531 871 527 838 c 1
 423 -2 l 1
 13 -2 l 1
 36 80 l 1
 254 134 l 1
 335 771 l 1
 347 844 356 896 365 926 c 128
 374 956 389 988 411 1022 c 0
 490 1146 635 1221 844 1246 c 1
 875 1251 919 1253 976 1252 c 128
 1033 1251 1087 1245 1138 1230 c 128
 1189 1215 1233 1194 1271 1163 c 1
 1306 1132 1328 1100 1340 1068 c 128
 1352 1036 1357 1010 1357 992 c 0
 1357 923 1336 873 1293 841 c 0
 1264 819 1234 808 1204 809 c 128
 1174 810 1145 816 1118 830 c 1
 1144 902 1157 958 1157 999 c 128
 1157 1040 1154 1069 1147 1086 c 128
 1140 1103 1128 1119 1108 1136 c 128
 1088 1153 1070 1162 1052 1164 c 1
 1048 1166 1043 1166 1034 1166 c 0
 995 1166 961 1150 930 1117 c 1
 899 1086 880 1045 872 994 c 1
 868 978 867 963 867 948 c 128
 867 933 869 912 874 886 c 128
 879 860 886 839 897 821 c 0
 913 795 956 749 1027 683 c 128
 1098 617 1141 576 1157 561 c 0
 1200 520 1235 477 1262 432 c 0
 1296 377 1313 319 1313 258 c 128
 1313 197 1290 140 1243 88 c 1
 1214 54 1178 26 1135 3 c 0
 1059 -36 978 -55 892 -56 c 0
 844 -56 793 -49 739 -33 c 1
 656 -6 596 39 560 101 c 1
 544 130 535 150 533 162 c 128
 531 174 530 184 530 195 c 0
 530 246 547 288 581 320 c 1
 617 359 665 378 724 378 c 0
 745 379 767 376 788 369 c 1
EndSplineSet
Colour: ffffff
EndChar

StartChar: endash
Encoding: 197 8211 196
Width: 664
VWidth: 1655
GlyphClass: 2
Flags: HMW
LayerCount: 2
Fore
SplineSet
41 504 m 1
 639 510 l 1
 623 408 l 1
 24 401 l 1
 41 504 l 1
EndSplineSet
Colour: ffffff
EndChar

StartChar: emdash
Encoding: 198 8212 197
Width: 1162
VWidth: 1655
GlyphClass: 2
Flags: HMW
LayerCount: 2
Fore
SplineSet
41 504 m 1
 1137 510 l 1
 1121 408 l 1
 24 401 l 1
 41 504 l 1
EndSplineSet
Colour: ffffff
EndChar

StartChar: quoteleft
Encoding: 199 8216 198
Width: 372
VWidth: 1655
GlyphClass: 2
Flags: HMW
LayerCount: 2
Fore
SplineSet
163 801 m 2
 148 801 l 1
 96 807 59 840 36 900 c 0
 26 924 22 948 21 971 c 0
 21 1072 71 1160 171 1236 c 1
 215 1272 264 1304 319 1331 c 1
 352 1278 l 1
 293 1247 251 1214 226 1176 c 128
 201 1138 189 1101 189 1066 c 0
 189 1064 191 1053 195 1031 c 128
 199 1009 209 987 229 964 c 128
 249 941 272 924 297 911 c 1
 287 875 270 848 243 829 c 128
 216 810 190 801 163 801 c 2
EndSplineSet
Colour: ffffff
EndChar

StartChar: quoteright
Encoding: 200 8217 199
Width: 371
VWidth: 1655
GlyphClass: 2
Flags: HMW
LayerCount: 2
Fore
SplineSet
211 1324 m 2
 224 1324 l 1
 276 1317 314 1284 337 1224 c 0
 347 1200 351 1177 351 1154 c 0
 352 1053 302 965 203 888 c 1
 159 852 109 821 53 794 c 1
 20 846 l 1
 79 877 120 911 146 949 c 128
 172 987 185 1023 185 1058 c 0
 185 1060 183 1071 179 1093 c 128
 175 1115 163 1138 143 1160 c 128
 123 1182 101 1199 76 1213 c 1
 86 1249 103 1277 130 1296 c 128
 157 1315 184 1324 211 1324 c 2
EndSplineSet
Colour: ffffff
EndChar

StartChar: quotesinglbase
Encoding: 201 8218 200
Width: 377
VWidth: 1655
GlyphClass: 2
Flags: HMW
LayerCount: 2
Fore
SplineSet
214 228 m 2
 227 228 l 1
 279 221 316 188 338 127 c 0
 348 101 351 77 352 54 c 128
 353 31 352 13 349 0 c 0
 335 -75 287 -144 204 -209 c 1
 160 -245 110 -276 55 -303 c 1
 23 -251 l 1
 82 -220 124 -186 149 -149 c 128
 174 -112 186 -75 186 -38 c 0
 186 -29 184 -17 180 0 c 128
 176 17 163 38 141 63 c 128
 119 88 99 105 78 116 c 1
 88 152 106 179 133 199 c 128
 160 219 187 228 214 228 c 2
EndSplineSet
Colour: ffffff
EndChar

StartChar: quotedblleft
Encoding: 202 8220 201
Width: 706
VWidth: 1655
GlyphClass: 2
Flags: HMW
LayerCount: 2
Fore
SplineSet
497 801 m 2
 483 801 l 1
 431 807 394 840 372 900 c 0
 362 924 358 948 357 971 c 0
 357 1072 406 1160 505 1236 c 1
 549 1272 599 1304 654 1331 c 1
 686 1278 l 1
 627 1247 586 1214 561 1176 c 128
 536 1138 523 1101 523 1066 c 0
 523 1064 525 1053 530 1031 c 128
 535 1009 546 987 566 964 c 128
 586 941 607 924 632 911 c 1
 622 875 605 848 578 829 c 128
 551 810 524 801 497 801 c 2
163 801 m 2
 148 801 l 1
 96 807 59 840 36 900 c 0
 26 924 22 948 21 971 c 0
 21 1072 71 1160 171 1236 c 1
 215 1272 264 1304 319 1331 c 1
 352 1278 l 1
 293 1247 251 1214 226 1176 c 128
 201 1138 189 1101 189 1066 c 0
 189 1064 191 1053 195 1031 c 128
 199 1009 209 987 229 964 c 128
 249 941 272 924 297 911 c 1
 287 875 270 848 243 829 c 128
 216 810 190 801 163 801 c 2
EndSplineSet
Colour: ffffff
EndChar

StartChar: quotedblright
Encoding: 203 8221 202
Width: 698
VWidth: 1655
GlyphClass: 2
Flags: HMW
LayerCount: 2
Fore
SplineSet
537 1324 m 2
 552 1324 l 1
 604 1317 641 1284 663 1224 c 0
 673 1200 677 1177 678 1154 c 0
 678 1053 628 965 529 888 c 1
 485 852 436 821 381 794 c 1
 348 846 l 1
 407 877 449 911 474 949 c 128
 499 987 511 1023 511 1058 c 0
 511 1060 509 1071 505 1093 c 128
 501 1115 490 1138 470 1160 c 128
 450 1182 428 1199 404 1213 c 1
 414 1249 432 1277 458 1296 c 128
 484 1315 510 1324 537 1324 c 2
211 1324 m 2
 224 1324 l 1
 276 1317 314 1284 337 1224 c 0
 347 1200 351 1177 351 1154 c 0
 352 1053 302 965 203 888 c 1
 159 852 109 821 53 794 c 1
 20 846 l 1
 79 877 120 911 146 949 c 128
 172 987 185 1023 185 1058 c 0
 185 1060 183 1071 179 1093 c 128
 175 1115 163 1138 143 1160 c 128
 123 1182 101 1199 76 1213 c 1
 86 1249 103 1277 130 1296 c 128
 157 1315 184 1324 211 1324 c 2
EndSplineSet
Colour: ffffff
EndChar

StartChar: dagger
Encoding: 204 8224 203
Width: 758
VWidth: 1655
GlyphClass: 2
Flags: HMW
LayerCount: 2
Fore
SplineSet
441 802 m 1
 741 811 l 1
 718 691 l 1
 427 702 l 1
 312 -355 l 1
 171 -343 l 1
 314 704 l 1
 17 698 l 1
 38 811 l 1
 327 802 l 1
 371 1229 l 1
 501 1218 l 1
 441 802 l 1
EndSplineSet
Colour: ffffff
EndChar

StartChar: daggerdbl
Encoding: 205 8225 204
Width: 824
VWidth: 1655
GlyphClass: 2
Flags: HMW
LayerCount: 2
Fore
SplineSet
453 421 m 1
 425 170 l 1
 731 176 l 1
 712 63 l 1
 412 72 l 1
 369 -355 l 1
 239 -344 l 1
 299 72 l 1
 17 63 l 1
 38 183 l 1
 312 171 l 1
 359 489 l 1
 381 704 l 1
 86 698 l 1
 107 811 l 1
 395 802 l 1
 438 1229 l 1
 568 1218 l 1
 508 802 l 1
 807 811 l 1
 784 691 l 1
 495 702 l 1
 453 421 l 1
EndSplineSet
Colour: ffffff
EndChar

StartChar: guilsinglleft
Encoding: 206 8249 205
Width: 391
VWidth: 1655
GlyphClass: 2
Flags: HMW
LayerCount: 2
Fore
SplineSet
21 460 m 1
 337 804 l 1
 373 745 l 1
 164 451 l 1
 279 137 l 1
 216 77 l 1
 19 440 l 1
 21 460 l 1
EndSplineSet
Colour: ffffff
EndChar

StartChar: guilsinglright
Encoding: 207 8250 206
Width: 397
VWidth: 1655
GlyphClass: 2
Flags: HMW
LayerCount: 2
Fore
SplineSet
378 460 m 1
 374 440 l 1
 59 77 l 1
 18 137 l 1
 233 451 l 1
 118 745 l 1
 170 804 l 1
 378 460 l 1
EndSplineSet
Colour: ffffff
EndChar

StartChar: Euro
Encoding: 208 8364 207
Width: 1131
VWidth: 1655
GlyphClass: 2
Flags: HMW
LayerCount: 2
Fore
SplineSet
921 385 m 1
 1007 398 l 1
 1002 108 l 1
 935 59 871 26 811 6 c 128
 751 -14 681 -24 600 -24 c 0
 456 -24 339 20 250 109 c 128
 161 198 117 319 117 472 c 2
 117 476 l 1
 17 476 l 1
 48 579 l 1
 124 579 l 1
 130 618 133 641 135 648 c 1
 45 648 l 1
 76 750 l 1
 163 750 l 1
 208 884 279 997 377 1090 c 0
 429 1139 492 1177 566 1204 c 128
 640 1231 718 1245 803 1245 c 0
 932 1245 1035 1212 1114 1145 c 1
 1043 820 l 1
 958 834 l 1
 944 1048 l 1
 921 1084 893 1110 863 1126 c 128
 833 1142 790 1150 735 1150 c 0
 645 1150 567 1115 501 1045 c 128
 435 975 388 876 360 750 c 1
 894 750 l 1
 852 648 l 1
 342 648 l 1
 342 646 l 1
 337 619 335 597 335 579 c 1
 828 579 l 1
 786 476 l 1
 333 476 l 1
 337 350 369 253 427 185 c 128
 485 117 563 83 661 83 c 0
 739 83 803 112 854 170 c 1
 921 385 l 1
EndSplineSet
Colour: ffffff
EndChar

StartChar: A.alt
Encoding: 211 -1 208
Width: 1396
VWidth: 1655
GlyphClass: 2
Flags: HMW
LayerCount: 2
Fore
SplineSet
673 537 m 1
 936 505 l 1
 847 1062 l 1
 843 1062 l 1
 807 934 772 819 737 716 c 1
 673 537 l 1
991 1271 m 1
 1200 132 l 1
 1377 81 l 1
 1356 0 l 1
 779 0 l 1
 801 72 l 1
 998 108 l 1
 948 432 l 1
 636 446 l 1
 563.412 261.506 423.588 -46.0762 216 -49 c 0
 104.705 -49 21.792 24.0859 13 123 c 1
 266.175 171.688 451.344 323.178 565 538 c 0
 634.1 667.137 754.312 988.083 811 1241 c 1
 991 1271 l 1
EndSplineSet
Colour: ffffff
EndChar

StartChar: eight.osf
Encoding: 212 -1 209
Width: 804
VWidth: 0
Flags: HMW
LayerCount: 2
Fore
SplineSet
297.185 589 m 1
 298.61 598 l 1
 239.123 637.048 169.881 738.861 169.881 852.689 c 0
 169.881 1050.9 348.095 1201 530.116 1201 c 0
 684.371 1201 785.933 1114.94 785.933 988.262 c 0
 785.933 837.807 706.278 726.044 569.055 635 c 1
 567.629 626 l 1
 682.47 546.219 737.537 449.893 737.537 346.153 c 0
 737.537 125.719 558.539 -27 319.62 -27 c 0
 157.049 -27 17 63.5547 17 216.386 c 0
 17 372 138.896 504 297.185 589 c 1
187.693 271.465 m 0
 187.693 142 266.92 66 359.35 66 c 0
 469.776 66 570.864 121.341 570.864 269.176 c 0
 570.864 367.16 472.088 461.51 350.8 545 c 1
 266.896 504 187.693 398.431 187.693 271.465 c 0
333.67 949.405 m 0
 333.67 852.714 392.362 746.819 505.965 676 c 1
 554.132 721.122 632.234 799.6 632.234 944.094 c 0
 632.234 1034.37 590.258 1124 500.921 1124 c 0
 409.636 1124 333.67 1052.69 333.67 949.405 c 0
EndSplineSet
Colour: ffffff
EndChar

StartChar: five.osf
Encoding: 213 -1 210
Width: 903
VWidth: 0
Flags: HMW
LayerCount: 2
Fore
SplineSet
173 29 m 1
 167.368 -86.7234 203.973 -216 356.395 -216 c 0
 492.88 -216 612 -132.869 612 95 c 0
 612 243.445 486.556 374.214 232.493 376 c 1
 435.952 904 l 1
 660 908.571 804 942.857 886.288 984 c 1
 889.719 964.354 891.369 946.406 891.369 930.021 c 0
 891.369 786.263 798.791 752.071 671.957 752.071 c 0
 610.663 752.071 543.398 757.482 473.828 764 c 1
 388.301 520 l 1
 691.337 511.935 798 340.527 798 149 c 0
 798 -93.2748 567.493 -297 303.981 -297 c 0
 98.4082 -297 0 -211 0 -121 c 0
 0 8.34465e-07 107.708 18.543 173 29 c 1
EndSplineSet
Colour: ffffff
EndChar

StartChar: four.osf
Encoding: 214 -1 211
Width: 977
VWidth: 0
Flags: HMW
LayerCount: 2
Fore
SplineSet
17 164 m 1
 774.192 986 l 1
 836.342 968 l 1
 811.494 849 770.115 613 741.447 432 c 2
 706.444 211 l 1
 960.444 211 l 1
 923.646 86 l 1
 688.646 86 l 1
 629.736 -277 l 5
 451.877 -304 l 1
 514.121 89 l 1
 28.1221 89 l 1
 17 164 l 1
202.444 211 m 1
 532.444 211 l 1
 606.094 676 l 1
 202.444 211 l 1
EndSplineSet
Colour: ffffff
EndChar

StartChar: nine.osf
Encoding: 215 -1 212
Width: 780
VWidth: 0
Flags: HMW
LayerCount: 2
Fore
SplineSet
468.894 972 m 0
 684.921 972 761.713 805.591 761.713 623.612 c 0
 761.713 202.656 402.871 -168.857 28.2803 -282 c 1
 17 -208 l 1
 328.64 -84 446.944 132 518.479 319 c 1
 506.479 319 l 1
 446.866 252 362.373 230 275.373 230 c 0
 112.419 230 33.3945 338.898 33.3945 500.695 c 0
 33.3945 779.016 245.851 972 468.894 972 c 0
220.135 526.874 m 0
 220.135 412.444 266.021 338 365.479 338 c 0
 435.479 338 503.18 374 542.1 424 c 1
 567.208 499.565 578.993 574.051 578.993 658.681 c 0
 578.993 785.552 534.652 891 441.064 891 c 0
 323.049 891 220.135 755.071 220.135 526.874 c 0
EndSplineSet
Colour: ffffff
EndChar

StartChar: one.osf
Encoding: 216 -1 213
Width: 597
VWidth: 0
Flags: HMW
LayerCount: 2
Fore
SplineSet
17 0 m 1
 37.7207 74 l 1
 229.164 121 l 1
 337.024 802 l 1
 144.499 802 l 1
 165.695 882 l 1
 462.416 956 l 1
 530.416 956 l 1
 396.056 114 l 1
 579.671 80 l 1
 557 0 l 1
 17 0 l 1
EndSplineSet
Colour: ffffff
EndChar

StartChar: seven.osf
Encoding: 217 -1 214
Width: 777
VWidth: 0
Flags: HMW
LayerCount: 2
Back
SplineSet
373 238 m 0
 334 155 315 70 315 -17 c 128
 315 -104 346 -182 408 -250 c 1
 390 -273 365 -290 331 -302 c 1
 321 -307 308 -309 292 -309 c 128
 276 -309 256 -305 230 -297 c 128
 204 -289 179 -271 156 -241 c 128
 133 -211 121 -179 117 -146 c 128
 113 -113 111 -89 111 -71 c 0
 111 -30 133 36 176 128 c 1
 222 216 291 320 383 439 c 2
 603 723 l 1
 487 719 380 714 281 706 c 128
 182 698 126 694 111 691 c 1
 45 531 l 1
 -30 552 l 1
 4 843 l 1
 20 845 77 848 179 854 c 128
 281 860 368 862 439 862 c 1
 794 849 l 1
 791 791 l 1
 557 513 l 2
 473 412 412 320 373 238 c 0
EndSplineSet
Fore
SplineSet
68.0596 666 m 1
 100.673 965 l 1
 353.386 976.673 537 961 758.673 945 c 1
 756.627 850 l 1
 573.387 608.692 113.834 53.6839 406 -257 c 1
 366.602 -292.68 334.182 -307.943 293.137 -307.943 c 0
 185 -307.943 111 -212.947 111 -103 c 0
 111 83.6205 365.734 466.96 615.49 796 c 1
 471.446 808 316.161 799 197.49 786 c 1
 144 646 l 1
 68.0596 666 l 1
EndSplineSet
Colour: ffffff
EndChar

StartChar: six.osf
Encoding: 218 -1 215
Width: 789
VWidth: 0
Flags: HMW
LayerCount: 2
Fore
SplineSet
746.062 1229 m 1
 771.875 1171 l 1
 492.027 1052 334.649 816 263.289 618 c 1
 273.289 618 l 1
 342.059 686 430.761 722 512.762 722 c 0
 667.114 722 750.058 592.966 750.058 442.061 c 0
 750.058 177.824 521.68 -21 305.081 -21 c 0
 94.2549 -21 17 160.069 17 340.553 c 0
 17 759.062 389.794 1118.93 746.062 1229 c 1
209.825 306.292 m 0
 209.825 182.31 245.792 61 335.068 61 c 0
 465.861 61 555.953 218.141 555.953 407.774 c 0
 555.953 508.341 524.033 615 416.813 615 c 0
 342.813 615 276.687 570 246.984 534 c 1
 228.485 459.795 209.825 393.72 209.825 306.292 c 0
EndSplineSet
Colour: ffffff
EndChar

StartChar: three.osf
Encoding: 219 -1 216
Width: 838
VWidth: 0
Flags: HMW
LayerCount: 2
Fore
SplineSet
164.154 -9 m 1
 173.154 -96 215.154 -204 308.154 -204 c 0
 501.921 -204 571.276 -71.6465 571.276 72.6641 c 0
 571.276 186.051 469.526 308.56 304.145 313 c 1
 294.757 380 l 1
 434.65 422.332 625.67 540 625.67 701.953 c 0
 625.67 770.546 597.115 857 522.89 857 c 0
 414.89 857 350.961 788 299.707 698 c 1
 225.983 725 l 1
 261.613 830 424.113 991 602.113 991 c 0
 736.992 991 820.85 875.627 820.85 754.057 c 0
 820.85 566.959 635.005 453.062 533.408 412 c 1
 531.666 401 l 1
 663.782 385.753 768.128 269.154 768.128 131.281 c 0
 768.128 -95.9727 519.787 -297 265.114 -297 c 0
 101.869 -297 17 -213.626 17 -151.289 c 0
 17 -92.3799 78.1143 -17.168 164.154 -9 c 1
EndSplineSet
Colour: ffffff
EndChar

StartChar: two.osf
Encoding: 220 -1 217
Width: 805
VWidth: 0
Flags: HMW
LayerCount: 2
Fore
SplineSet
26.1553 102 m 5
 336 288 576.326 444 576.326 698.212 c 4
 576.326 796.606 528.67 867 450.319 867 c 4
 364.319 867 259.856 782 209.909 675 c 5
 139.503 704 l 5
 170.708 800 335.325 987 543.959 991 c 4
 546.043 991.033 548.113 991.049 550.17 991.049 c 4
 711.955 991.049 787.468 869.392 787.97 739.958 c 4
 789 474 477 297 237.282 147 c 5
 608.282 147 l 5
 710.674 301 l 5
 780.248 292 l 5
 680 0 l 5
 17 0 l 5
 26.1553 102 l 5
EndSplineSet
Colour: ffffff
EndChar

StartChar: zero.osf
Encoding: 221 -1 218
Width: 832
VWidth: 0
Flags: HMW
LayerCount: 2
Fore
SplineSet
494.226 985.012 m 1
 496.98 985 l 0
 705.121 982.436 813.53 838.654 813.53 619.194 c 4
 813.53 234.553 551.738 -23 336.328 -23 c 0
 160.995 -23 18 95.0791 18 347.967 c 0
 18 673.971 239.829 985.012 494.226 985.012 c 1
209.239 320.578 m 0
 209.239 138.032 275.704 71 352.216 71 c 0
 481.554 71 625.469 292.944 625.469 644.956 c 0
 625.469 825.256 559.141 900 482.517 900 c 0
 351.067 900 209.239 672.917 209.239 320.578 c 0
EndSplineSet
Colour: ffffff
EndChar

StartChar: uniF001
Encoding: 209 61441 219
Width: 1340
VWidth: 1655
Flags: HMW
LayerCount: 2
Back
SplineSet
35 0 m 1
 47 73 l 1
 199 116 l 1
 199 784 l 1
 50 784 l 1
 62 857 l 1
 200 879 l 1
 233 1167 423 1304 565 1304 c 0
 670 1304 746 1269 746 1189 c 0
 746 1140 690 1090 657 1077 c 1
 608 1156 550 1198 494 1198 c 0
 420 1198 370 1153 368 981 c 2
 366 873 l 1
 623 873 l 1
 611 784 l 1
 366 784 l 1
 366 121 l 1
 611 83 l 1
 604 0 l 1
 35 0 l 1
658 0 m 1
 670 79 l 1
 821 116 l 1
 821 731 l 1
 670 786 l 1
 683 862 l 1
 964 885 l 1
 989 860 l 1
 989 116 l 1
 1149 80 l 1
 1137 0 l 1
 658 0 l 1
777 1194 m 0
 777 1258 833 1306 895 1306 c 0
 961 1306 1019 1256 1019 1192 c 0
 1019 1125 961 1070 895 1070 c 0
 829 1070 777 1127 777 1194 c 0
EndSplineSet
Fore
SplineSet
161 -381 m 0
 75.0889 -381 23.2178 -333.839 17 -253 c 1
 17 -204.169 47.8262 -158.516 76 -132 c 1
 142 -196 209 -228 277 -228 c 0
 418 -228 396 0 415 313 c 2
 443 775 l 1
 335 766 l 1
 347 871 l 1
 455 855 l 1
 468 925 l 2
 505.615 1113.24 679.216 1299 916 1299 c 0
 1009.5 1299 1095 1246.57 1095 1163 c 0
 1095 1104.34 1060.84 1064.35 1021 1039 c 1
 989.786 1104.27 924.071 1164 814 1164 c 0
 626.938 1164 619.25 1023.64 609 850 c 1
 649.536 868.579 887 900.693 984.264 900.693 c 0
 1087.79 900.693 1137 892 1137 756 c 0
 1137 748 1132 692 1120 569 c 1
 1092 254 l 1
 1088 225 1087 201 1087 181 c 0
 1087 142 1098 123 1121 123 c 0
 1186.28 123 1253.68 195.456 1281 246 c 1
 1323 217 l 1
 1263 57 1167 -23 1035 -23 c 0
 954.959 -23 922 30.3711 922 108 c 0
 922 145 926 208 935 296 c 1
 971 601 l 2
 974.081 627.957 976.305 650.532 976.305 669.329 c 0
 976.305 754.453 940 755 839.223 765.665 c 0
 773.192 772.653 693.532 775.834 629.092 775.834 c 0
 619.652 775.834 610.532 775.681 601.82 775.342 c 1
 561 178 l 2
 537 -170 433 -381 161 -381 c 0
EndSplineSet
Colour: ffffff
EndChar

StartChar: uniF002
Encoding: 210 61442 220
Width: 1297
VWidth: 1655
Flags: HMW
LayerCount: 2
Back
SplineSet
161 -381 m 0
 75.0889 -381 23.2178 -333.839 17 -253 c 1
 17 -204.169 47.8262 -158.516 76 -132 c 1
 142 -196 209 -228 277 -228 c 0
 418 -228 393.361 0.598633 415 313 c 1
 443 765 l 1
 335 756 l 1
 347 861 l 1
 455 845 l 1
 465 925 l 2
 485 1088 618 1287 831 1287 c 4
 954.077 1287 1006 1220 1038.07 1203.65 c 5
 1068 1210 1103.79 1227.21 1151 1266 c 5
 1166 1245 l 5
 1128.37 967 l 25
 1086 623 l 1
 1046 253 l 2
 1043.49 229.735 1042.02 179.952 1042.02 163.34 c 0
 1042.02 128 1055.97 121 1096 121 c 0
 1177.56 121 1194.02 206.129 1228 266 c 1
 1280 246 l 1
 1246 77 1151 -24 1005 -24 c 0
 936 -24 871 3 871 99 c 0
 871 137 877 216 888 295 c 2
 981.698 1065.8 l 5
 934.006 1111.05 858.676 1152 759 1152 c 4
 613 1152 609 987 609 840 c 1
 839 861 l 1
 820 750 l 1
 603 761 l 1
 561 178 l 2
 536 -170 433 -381 161 -381 c 0
641 0 m 1
 653 79 l 1
 805 116 l 1
 805 1117 l 1
 648 1171 l 1
 660 1247 l 1
 947 1269 l 1
 972 1245 l 1
 972 116 l 1
 1131 80 l 1
 1120 0 l 1
 641 0 l 1
35 0 m 1
 47 73 l 1
 199 116 l 1
 199 784 l 1
 50 784 l 1
 62 857 l 1
 200 879 l 1
 203 1153 401 1302 494 1302 c 0
 581 1302 638 1281 638 1214 c 0
 638 1174 604 1136 574 1120 c 1
 550 1147 476 1185 432 1185 c 0
 370 1185 359 1065 363 948 c 2
 366 873 l 1
 623 873 l 1
 611 784 l 1
 366 784 l 1
 366 121 l 1
 611 83 l 1
 604 0 l 1
 35 0 l 1
EndSplineSet
Fore
SplineSet
161 -381 m 0
 75.0889 -381 23.2178 -333.839 17 -253 c 1
 17 -204.169 47.8262 -158.516 76 -132 c 1
 142 -196 209 -228 277 -228 c 0
 418 -228 396 0 415 313 c 2
 443 765 l 1
 335 756 l 1
 347 861 l 1
 455 845 l 1
 465 925 l 2
 484.891 1093.4 617.164 1299 829 1299 c 0
 952.077 1299 1004 1232 1036.07 1215.65 c 1
 1149 1278 l 1
 1164 1257 l 1
 1128.37 967 l 25
 1086 623 l 1
 1046 253 l 2
 1043.49 229.735 1042.02 179.952 1042.02 163.34 c 0
 1042.02 128 1055.97 121 1096 121 c 0
 1177.56 121 1194.02 206.129 1228 266 c 1
 1280 246 l 1
 1246 77 1151 -24 1005 -24 c 0
 936 -24 871 3 871 99 c 0
 871 137 879 216 888 295 c 2
 979.698 1077.8 l 1
 932.006 1123.05 856.676 1164 757 1164 c 0
 612.947 1164 609 992.654 609 840 c 1
 839 861 l 1
 820 750 l 1
 603 761 l 1
 561 178 l 2
 536 -170 433 -381 161 -381 c 0
EndSplineSet
Colour: ffffff
EndChar

StartChar: OE
Encoding: 222 338 221
Width: 1785
VWidth: 1655
Flags: W
HStem: -28 148<557.269 821.074> 3 95<1009 1474.86> 9.90759 110.092<611.38 819.638> 569 145<1346.15 1504> 1130 145<569.022 831.452> 1143 109<1138 1567.56>
VStem: 164 209<362.408 797.839> 1600 86<848 908.651> 1617 87<332.552 440>
LayerCount: 2
Back
SplineSet
140.424 619 m 0xa780
 188.574 1009 423.046 1272 817.046 1272 c 0xaf80
 887.046 1272 947.935 1263 998.589 1244 c 1
 1775.59 1244 l 1
 1704.08 924 l 1
 1619.69 937 l 1
 1606.23 1152 l 1
 1137.23 1152 l 1
 1078.46 676 l 1
 1366.46 676 l 1
 1423.28 796 l 1
 1519 810 l 1
 1438.98 421 l 1
 1350.37 408 l 1
 1338.98 583 l 1
 1066.98 583 l 1
 1006.85 96 l 1
 1498.85 96 l 1
 1625.25 326 l 1
 1706.64 313 l 1
 1639 0 l 1
 798 0 l 1x7780
 730.024 -16 659.666 -27 586.666 -27 c 0
 248.666 -27 94.4961 247 140.424 619 c 0xa780
369.462 676 m 0
 337.237 415 382.754 79 642.754 79 c 0
 701.754 79 760.358 92 817.062 122 c 1
 941.02 1126 l 1
 889.094 1159 826.193 1176 756.193 1176 c 0
 538.193 1176 410.699 1010 369.462 676 c 0
EndSplineSet
Fore
SplineSet
407 888 m 0x9a
 384 817 373 734 373 639 c 0
 373 544 386 455 413 375 c 0
 440 295 477 233 527 188 c 0
 577 143 633 120 696 120 c 0
 742.005 120 783.737 130.572 821.407 151.61 c 1
 924.978 994.171 l 1
 906.436 1020.17 885.386 1043.14 862 1063 c 0
 809 1108 748 1130 681 1130 c 0
 614 1130 557 1108 511 1063 c 0
 465 1018 430 959 407 888 c 0x9a
989.701 1222.04 m 1
 1011.78 1225.87 1038.13 1229.35 1069 1233 c 0
 1214 1246 1347 1252 1469 1252 c 1
 1766 1246 l 1
 1686 835 l 1
 1600 848 l 1x17
 1568 1111 l 1
 1540 1117 l 1
 1445 1136 1322 1145 1171 1143 c 1
 1138 1143 l 1
 1083 680 l 1
 1538 714 l 1
 1504 569 l 1
 1071 578 l 1
 1009 98 l 1
 1226 108 l 1
 1348 115 1432 122 1477 132 c 1
 1500 169 1526 222 1557 292 c 0
 1588 362 1607 415 1617 451 c 1
 1704 440 l 1
 1704 434 l 2
 1704 345 1697 262 1683 182 c 0
 1669 102 1651 41 1627 0 c 1
 1259 2 1052 3 1009 3 c 1x5680
 806.706 9.90759 l 1x3280
 746.22 -15.5918 680.212 -28 608 -28 c 0
 526 -28 450 -4 380 45 c 0
 310 94 257 158 220 238 c 0
 183 318 164 408 164 505 c 0
 164 642 190 769 242 886 c 0
 294 1003 368 1098 463 1169 c 0
 558 1240 667 1275 787 1275 c 0
 861.59 1275 928.79 1257.53 989.701 1222.04 c 1
EndSplineSet
Colour: ffffff
EndChar

StartChar: oe
Encoding: 223 339 222
Width: 1319
VWidth: 1655
Flags: W
HStem: -31 134<932.677 1118.26> -21 153<374.5 519.628> 770 125<535.49 724.747> 790 107<988.91 1140.24>
VStem: 253 154<151.219 467.823> 716.025 159.975<162.375 287> 1148 152<580.982 783.477>
LayerCount: 2
Back
SplineSet
106.596 426 m 0x7c
 144.129 730 353.117 900 576.117 900 c 0
 700.117 900 822.117 819 845.869 736 c 1
 918.117 819 1040.99 899 1178.99 899 c 0
 1323.99 899 1432.78 792 1406.73 581 c 0
 1402.91 550 1385.88 485 1373.68 451 c 1
 890.941 445 l 1
 870.693 281 944.481 93 1125.48 93 c 0
 1195.48 93 1246.47 101 1357.38 157 c 1
 1375.84 104 l 1
 1286.59 21 1160.3 -30 1028.3 -30 c 0xbc
 897.296 -30 812.814 39 754.174 131 c 1
 651.222 18 558.543 -28 437.543 -28 c 0
 173.543 -28 74.8652 169 106.596 426 c 0x7c
294.361 497 m 0
 268.928 291 320.383 76 484.383 76 c 0x7c
 592.383 76 683.915 218 701.324 359 c 0
 725.769 557 693.895 801 522.895 801 c 0
 371.895 801 313.745 654 294.361 497 c 0
902.065 527 m 5
 1218.78 549 l 1
 1224.76 565 1231.96 599 1233.93 615 c 0
 1248.62 734 1213.89 801 1117.89 801 c 0
 1037.89 801 936.018 721 902.065 527 c 5
EndSplineSet
Fore
SplineSet
1148 698 m 0x1e
 1148 760 1121 791 1068 790 c 1
 956 790 892 664 876 414 c 1
 1057 481 1148 576 1148 698 c 0x1e
1256 849 m 0
 1286 817 1300 777 1300 726 c 0
 1300 630 1251 547 1152 477 c 0
 1071 419 979 374 876 341 c 1
 880 182 933 103 1038 103 c 0
 1115 103 1184 151 1244 246 c 1
 1281 214 l 1
 1258 147 1216 89 1158 41 c 0
 1100 -7 1033 -31 957 -31 c 0x9e
 881 -31 823 -2 780 56 c 0
 737.864 112.835 716.852 189.835 716.025 287 c 1
 708 287 l 1
 673 203 627 131 570 70 c 0
 513 9 457 -21 402 -21 c 0
 347 -21 308 2.98023e-07 286 41 c 0
 264 82 253 143 253 225 c 0
 253 307 272 401 310 505 c 0
 348 609 399 701 463 779 c 0
 527 857 591 895 654 895 c 0x6e
 741.938 895 808.938 842.667 855 738 c 1
 865.305 738 l 1
 885.21 763.54 906.775 786.919 930 808 c 0
 995 867 1062 897 1133 897 c 0
 1185 897 1226 881 1256 849 c 0
407 288 m 0
 407 229 411 188 420 166 c 0
 429 144 445 132 472 132 c 0
 521 132 576 183 639 285 c 0
 702 387 746 512 772 660 c 1
 762 688 743 713 713 736 c 0
 683 759 653 770 621 770 c 0x6e
 589 770 559 754 529 722 c 0
 499 690 476 648 459 595 c 0
 424 491 407 389 407 288 c 0
EndSplineSet
Colour: ffffff
EndChar

